G04 #@! TF.GenerationSoftware,KiCad,Pcbnew,5.1.5*
G04 #@! TF.CreationDate,2020-04-09T00:42:44+02:00*
G04 #@! TF.ProjectId,debug_control_board,64656275-675f-4636-9f6e-74726f6c5f62,rev?*
G04 #@! TF.SameCoordinates,Original*
G04 #@! TF.FileFunction,Legend,Bot*
G04 #@! TF.FilePolarity,Positive*
%FSLAX46Y46*%
G04 Gerber Fmt 4.6, Leading zero omitted, Abs format (unit mm)*
G04 Created by KiCad (PCBNEW 5.1.5) date 2020-04-09 00:42:44*
%MOMM*%
%LPD*%
G04 APERTURE LIST*
%ADD10C,0.300000*%
%ADD11C,0.120000*%
G04 APERTURE END LIST*
D10*
X133778571Y-83085714D02*
X134778571Y-83085714D01*
X133207142Y-82728571D02*
X134278571Y-82371428D01*
X134278571Y-83300000D01*
X134790571Y-86589285D02*
X134076285Y-86089285D01*
X134790571Y-85732142D02*
X133290571Y-85732142D01*
X133290571Y-86303571D01*
X133362000Y-86446428D01*
X133433428Y-86517857D01*
X133576285Y-86589285D01*
X133790571Y-86589285D01*
X133933428Y-86517857D01*
X134004857Y-86446428D01*
X134076285Y-86303571D01*
X134076285Y-85732142D01*
X133362000Y-88017857D02*
X133290571Y-87875000D01*
X133290571Y-87660714D01*
X133362000Y-87446428D01*
X133504857Y-87303571D01*
X133647714Y-87232142D01*
X133933428Y-87160714D01*
X134147714Y-87160714D01*
X134433428Y-87232142D01*
X134576285Y-87303571D01*
X134719142Y-87446428D01*
X134790571Y-87660714D01*
X134790571Y-87803571D01*
X134719142Y-88017857D01*
X134647714Y-88089285D01*
X134147714Y-88089285D01*
X134147714Y-87803571D01*
X134004857Y-89232142D02*
X134076285Y-89446428D01*
X134147714Y-89517857D01*
X134290571Y-89589285D01*
X134504857Y-89589285D01*
X134647714Y-89517857D01*
X134719142Y-89446428D01*
X134790571Y-89303571D01*
X134790571Y-88732142D01*
X133290571Y-88732142D01*
X133290571Y-89232142D01*
X133362000Y-89375000D01*
X133433428Y-89446428D01*
X133576285Y-89517857D01*
X133719142Y-89517857D01*
X133862000Y-89446428D01*
X133933428Y-89375000D01*
X134004857Y-89232142D01*
X134004857Y-88732142D01*
X133290571Y-92781428D02*
X133290571Y-92638571D01*
X133362000Y-92495714D01*
X133433428Y-92424285D01*
X133576285Y-92352857D01*
X133862000Y-92281428D01*
X134219142Y-92281428D01*
X134504857Y-92352857D01*
X134647714Y-92424285D01*
X134719142Y-92495714D01*
X134790571Y-92638571D01*
X134790571Y-92781428D01*
X134719142Y-92924285D01*
X134647714Y-92995714D01*
X134504857Y-93067142D01*
X134219142Y-93138571D01*
X133862000Y-93138571D01*
X133576285Y-93067142D01*
X133433428Y-92995714D01*
X133362000Y-92924285D01*
X133290571Y-92781428D01*
X127214285Y-93128571D02*
X127214285Y-94128571D01*
X127571428Y-92557142D02*
X127928571Y-93628571D01*
X127000000Y-93628571D01*
X125378571Y-94833428D02*
X124664285Y-94333428D01*
X125378571Y-93976285D02*
X123878571Y-93976285D01*
X123878571Y-94547714D01*
X123950000Y-94690571D01*
X124021428Y-94762000D01*
X124164285Y-94833428D01*
X124378571Y-94833428D01*
X124521428Y-94762000D01*
X124592857Y-94690571D01*
X124664285Y-94547714D01*
X124664285Y-93976285D01*
X123878571Y-95762000D02*
X123878571Y-96047714D01*
X123950000Y-96190571D01*
X124092857Y-96333428D01*
X124378571Y-96404857D01*
X124878571Y-96404857D01*
X125164285Y-96333428D01*
X125307142Y-96190571D01*
X125378571Y-96047714D01*
X125378571Y-95762000D01*
X125307142Y-95619142D01*
X125164285Y-95476285D01*
X124878571Y-95404857D01*
X124378571Y-95404857D01*
X124092857Y-95476285D01*
X123950000Y-95619142D01*
X123878571Y-95762000D01*
X123878571Y-96904857D02*
X125378571Y-97262000D01*
X124307142Y-97547714D01*
X125378571Y-97833428D01*
X123878571Y-98190571D01*
X127071428Y-103528571D02*
X127928571Y-103528571D01*
X127500000Y-103528571D02*
X127500000Y-102028571D01*
X127642857Y-102242857D01*
X127785714Y-102385714D01*
X127928571Y-102457142D01*
X130119428Y-102028571D02*
X129976571Y-102028571D01*
X129833714Y-102100000D01*
X129762285Y-102171428D01*
X129690857Y-102314285D01*
X129619428Y-102600000D01*
X129619428Y-102957142D01*
X129690857Y-103242857D01*
X129762285Y-103385714D01*
X129833714Y-103457142D01*
X129976571Y-103528571D01*
X130119428Y-103528571D01*
X130262285Y-103457142D01*
X130333714Y-103385714D01*
X130405142Y-103242857D01*
X130476571Y-102957142D01*
X130476571Y-102600000D01*
X130405142Y-102314285D01*
X130333714Y-102171428D01*
X130262285Y-102100000D01*
X130119428Y-102028571D01*
X133016571Y-102171428D02*
X132945142Y-102100000D01*
X132802285Y-102028571D01*
X132445142Y-102028571D01*
X132302285Y-102100000D01*
X132230857Y-102171428D01*
X132159428Y-102314285D01*
X132159428Y-102457142D01*
X132230857Y-102671428D01*
X133088000Y-103528571D01*
X132159428Y-103528571D01*
X135625000Y-102028571D02*
X134696428Y-102028571D01*
X135196428Y-102600000D01*
X134982142Y-102600000D01*
X134839285Y-102671428D01*
X134767857Y-102742857D01*
X134696428Y-102885714D01*
X134696428Y-103242857D01*
X134767857Y-103385714D01*
X134839285Y-103457142D01*
X134982142Y-103528571D01*
X135410714Y-103528571D01*
X135553571Y-103457142D01*
X135625000Y-103385714D01*
X141725000Y-100778571D02*
X141725000Y-99278571D01*
X141225000Y-100350000D01*
X140725000Y-99278571D01*
X140725000Y-100778571D01*
X140010714Y-99278571D02*
X140010714Y-100492857D01*
X139939285Y-100635714D01*
X139867857Y-100707142D01*
X139725000Y-100778571D01*
X139439285Y-100778571D01*
X139296428Y-100707142D01*
X139225000Y-100635714D01*
X139153571Y-100492857D01*
X139153571Y-99278571D01*
X138582142Y-99278571D02*
X137582142Y-100778571D01*
X137582142Y-99278571D02*
X138582142Y-100778571D01*
X123792857Y-76648571D02*
X123792857Y-77862857D01*
X123721428Y-78005714D01*
X123650000Y-78077142D01*
X123507142Y-78148571D01*
X123221428Y-78148571D01*
X123078571Y-78077142D01*
X123007142Y-78005714D01*
X122935714Y-77862857D01*
X122935714Y-76648571D01*
X122292857Y-78077142D02*
X122078571Y-78148571D01*
X121721428Y-78148571D01*
X121578571Y-78077142D01*
X121507142Y-78005714D01*
X121435714Y-77862857D01*
X121435714Y-77720000D01*
X121507142Y-77577142D01*
X121578571Y-77505714D01*
X121721428Y-77434285D01*
X122007142Y-77362857D01*
X122150000Y-77291428D01*
X122221428Y-77220000D01*
X122292857Y-77077142D01*
X122292857Y-76934285D01*
X122221428Y-76791428D01*
X122150000Y-76720000D01*
X122007142Y-76648571D01*
X121650000Y-76648571D01*
X121435714Y-76720000D01*
X120292857Y-77362857D02*
X120078571Y-77434285D01*
X120007142Y-77505714D01*
X119935714Y-77648571D01*
X119935714Y-77862857D01*
X120007142Y-78005714D01*
X120078571Y-78077142D01*
X120221428Y-78148571D01*
X120792857Y-78148571D01*
X120792857Y-76648571D01*
X120292857Y-76648571D01*
X120150000Y-76720000D01*
X120078571Y-76791428D01*
X120007142Y-76934285D01*
X120007142Y-77077142D01*
X120078571Y-77220000D01*
X120150000Y-77291428D01*
X120292857Y-77362857D01*
X120792857Y-77362857D01*
X125416571Y-74364285D02*
X125416571Y-73650000D01*
X126130857Y-73578571D01*
X126059428Y-73650000D01*
X125988000Y-73792857D01*
X125988000Y-74150000D01*
X126059428Y-74292857D01*
X126130857Y-74364285D01*
X126273714Y-74435714D01*
X126630857Y-74435714D01*
X126773714Y-74364285D01*
X126845142Y-74292857D01*
X126916571Y-74150000D01*
X126916571Y-73792857D01*
X126845142Y-73650000D01*
X126773714Y-73578571D01*
X125416571Y-74864285D02*
X126916571Y-75364285D01*
X125416571Y-75864285D01*
X129453571Y-73328571D02*
X127953571Y-73328571D01*
X127953571Y-73685714D01*
X128025000Y-73900000D01*
X128167857Y-74042857D01*
X128310714Y-74114285D01*
X128596428Y-74185714D01*
X128810714Y-74185714D01*
X129096428Y-74114285D01*
X129239285Y-74042857D01*
X129382142Y-73900000D01*
X129453571Y-73685714D01*
X129453571Y-73328571D01*
X128882142Y-74828571D02*
X128882142Y-75971428D01*
X129453571Y-75400000D02*
X128310714Y-75400000D01*
X131978571Y-73328571D02*
X130478571Y-73328571D01*
X130478571Y-73685714D01*
X130550000Y-73900000D01*
X130692857Y-74042857D01*
X130835714Y-74114285D01*
X131121428Y-74185714D01*
X131335714Y-74185714D01*
X131621428Y-74114285D01*
X131764285Y-74042857D01*
X131907142Y-73900000D01*
X131978571Y-73685714D01*
X131978571Y-73328571D01*
X131407142Y-74828571D02*
X131407142Y-75971428D01*
X133100000Y-73507142D02*
X133028571Y-73364285D01*
X133028571Y-73150000D01*
X133100000Y-72935714D01*
X133242857Y-72792857D01*
X133385714Y-72721428D01*
X133671428Y-72650000D01*
X133885714Y-72650000D01*
X134171428Y-72721428D01*
X134314285Y-72792857D01*
X134457142Y-72935714D01*
X134528571Y-73150000D01*
X134528571Y-73292857D01*
X134457142Y-73507142D01*
X134385714Y-73578571D01*
X133885714Y-73578571D01*
X133885714Y-73292857D01*
X134528571Y-74221428D02*
X133028571Y-74221428D01*
X134528571Y-75078571D01*
X133028571Y-75078571D01*
X134528571Y-75792857D02*
X133028571Y-75792857D01*
X133028571Y-76150000D01*
X133100000Y-76364285D01*
X133242857Y-76507142D01*
X133385714Y-76578571D01*
X133671428Y-76650000D01*
X133885714Y-76650000D01*
X134171428Y-76578571D01*
X134314285Y-76507142D01*
X134457142Y-76364285D01*
X134528571Y-76150000D01*
X134528571Y-75792857D01*
X146728571Y-80417857D02*
X146728571Y-81346428D01*
X147300000Y-80846428D01*
X147300000Y-81060714D01*
X147371428Y-81203571D01*
X147442857Y-81275000D01*
X147585714Y-81346428D01*
X147942857Y-81346428D01*
X148085714Y-81275000D01*
X148157142Y-81203571D01*
X148228571Y-81060714D01*
X148228571Y-80632142D01*
X148157142Y-80489285D01*
X148085714Y-80417857D01*
X146728571Y-81775000D02*
X148228571Y-82275000D01*
X146728571Y-82775000D01*
X146728571Y-83132142D02*
X146728571Y-84060714D01*
X147300000Y-83560714D01*
X147300000Y-83775000D01*
X147371428Y-83917857D01*
X147442857Y-83989285D01*
X147585714Y-84060714D01*
X147942857Y-84060714D01*
X148085714Y-83989285D01*
X148157142Y-83917857D01*
X148228571Y-83775000D01*
X148228571Y-83346428D01*
X148157142Y-83203571D01*
X148085714Y-83132142D01*
X143500000Y-81382142D02*
X143428571Y-81239285D01*
X143428571Y-81025000D01*
X143500000Y-80810714D01*
X143642857Y-80667857D01*
X143785714Y-80596428D01*
X144071428Y-80525000D01*
X144285714Y-80525000D01*
X144571428Y-80596428D01*
X144714285Y-80667857D01*
X144857142Y-80810714D01*
X144928571Y-81025000D01*
X144928571Y-81167857D01*
X144857142Y-81382142D01*
X144785714Y-81453571D01*
X144285714Y-81453571D01*
X144285714Y-81167857D01*
X144928571Y-82096428D02*
X143428571Y-82096428D01*
X144928571Y-82953571D01*
X143428571Y-82953571D01*
X144928571Y-83667857D02*
X143428571Y-83667857D01*
X143428571Y-84025000D01*
X143500000Y-84239285D01*
X143642857Y-84382142D01*
X143785714Y-84453571D01*
X144071428Y-84525000D01*
X144285714Y-84525000D01*
X144571428Y-84453571D01*
X144714285Y-84382142D01*
X144857142Y-84239285D01*
X144928571Y-84025000D01*
X144928571Y-83667857D01*
X138257142Y-80239285D02*
X138328571Y-80453571D01*
X138328571Y-80810714D01*
X138257142Y-80953571D01*
X138185714Y-81025000D01*
X138042857Y-81096428D01*
X137900000Y-81096428D01*
X137757142Y-81025000D01*
X137685714Y-80953571D01*
X137614285Y-80810714D01*
X137542857Y-80525000D01*
X137471428Y-80382142D01*
X137400000Y-80310714D01*
X137257142Y-80239285D01*
X137114285Y-80239285D01*
X136971428Y-80310714D01*
X136900000Y-80382142D01*
X136828571Y-80525000D01*
X136828571Y-80882142D01*
X136900000Y-81096428D01*
X138185714Y-82596428D02*
X138257142Y-82525000D01*
X138328571Y-82310714D01*
X138328571Y-82167857D01*
X138257142Y-81953571D01*
X138114285Y-81810714D01*
X137971428Y-81739285D01*
X137685714Y-81667857D01*
X137471428Y-81667857D01*
X137185714Y-81739285D01*
X137042857Y-81810714D01*
X136900000Y-81953571D01*
X136828571Y-82167857D01*
X136828571Y-82310714D01*
X136900000Y-82525000D01*
X136971428Y-82596428D01*
X138328571Y-83953571D02*
X138328571Y-83239285D01*
X136828571Y-83239285D01*
X140782142Y-80203571D02*
X140853571Y-80417857D01*
X140853571Y-80775000D01*
X140782142Y-80917857D01*
X140710714Y-80989285D01*
X140567857Y-81060714D01*
X140425000Y-81060714D01*
X140282142Y-80989285D01*
X140210714Y-80917857D01*
X140139285Y-80775000D01*
X140067857Y-80489285D01*
X139996428Y-80346428D01*
X139925000Y-80275000D01*
X139782142Y-80203571D01*
X139639285Y-80203571D01*
X139496428Y-80275000D01*
X139425000Y-80346428D01*
X139353571Y-80489285D01*
X139353571Y-80846428D01*
X139425000Y-81060714D01*
X140853571Y-81703571D02*
X139353571Y-81703571D01*
X139353571Y-82060714D01*
X139425000Y-82275000D01*
X139567857Y-82417857D01*
X139710714Y-82489285D01*
X139996428Y-82560714D01*
X140210714Y-82560714D01*
X140496428Y-82489285D01*
X140639285Y-82417857D01*
X140782142Y-82275000D01*
X140853571Y-82060714D01*
X140853571Y-81703571D01*
X140425000Y-83132142D02*
X140425000Y-83846428D01*
X140853571Y-82989285D02*
X139353571Y-83489285D01*
X140853571Y-83989285D01*
X139771428Y-86946428D02*
X139700000Y-87017857D01*
X139628571Y-87160714D01*
X139628571Y-87517857D01*
X139700000Y-87660714D01*
X139771428Y-87732142D01*
X139914285Y-87803571D01*
X140057142Y-87803571D01*
X140271428Y-87732142D01*
X141128571Y-86875000D01*
X141128571Y-87803571D01*
X141394571Y-90639285D02*
X140680285Y-90139285D01*
X141394571Y-89782142D02*
X139894571Y-89782142D01*
X139894571Y-90353571D01*
X139966000Y-90496428D01*
X140037428Y-90567857D01*
X140180285Y-90639285D01*
X140394571Y-90639285D01*
X140537428Y-90567857D01*
X140608857Y-90496428D01*
X140680285Y-90353571D01*
X140680285Y-89782142D01*
X139966000Y-92067857D02*
X139894571Y-91925000D01*
X139894571Y-91710714D01*
X139966000Y-91496428D01*
X140108857Y-91353571D01*
X140251714Y-91282142D01*
X140537428Y-91210714D01*
X140751714Y-91210714D01*
X141037428Y-91282142D01*
X141180285Y-91353571D01*
X141323142Y-91496428D01*
X141394571Y-91710714D01*
X141394571Y-91853571D01*
X141323142Y-92067857D01*
X141251714Y-92139285D01*
X140751714Y-92139285D01*
X140751714Y-91853571D01*
X140608857Y-93282142D02*
X140680285Y-93496428D01*
X140751714Y-93567857D01*
X140894571Y-93639285D01*
X141108857Y-93639285D01*
X141251714Y-93567857D01*
X141323142Y-93496428D01*
X141394571Y-93353571D01*
X141394571Y-92782142D01*
X139894571Y-92782142D01*
X139894571Y-93282142D01*
X139966000Y-93425000D01*
X140037428Y-93496428D01*
X140180285Y-93567857D01*
X140323142Y-93567857D01*
X140466000Y-93496428D01*
X140537428Y-93425000D01*
X140608857Y-93282142D01*
X140608857Y-92782142D01*
X140521428Y-96821428D02*
X140378571Y-96821428D01*
X140235714Y-96750000D01*
X140164285Y-96678571D01*
X140092857Y-96535714D01*
X140021428Y-96250000D01*
X140021428Y-95892857D01*
X140092857Y-95607142D01*
X140164285Y-95464285D01*
X140235714Y-95392857D01*
X140378571Y-95321428D01*
X140521428Y-95321428D01*
X140664285Y-95392857D01*
X140735714Y-95464285D01*
X140807142Y-95607142D01*
X140878571Y-95892857D01*
X140878571Y-96250000D01*
X140807142Y-96535714D01*
X140735714Y-96678571D01*
X140664285Y-96750000D01*
X140521428Y-96821428D01*
X138650000Y-105500000D02*
X137935714Y-105500000D01*
X138792857Y-105928571D02*
X138292857Y-104428571D01*
X137792857Y-105928571D01*
X137078571Y-105928571D02*
X137221428Y-105857142D01*
X137292857Y-105714285D01*
X137292857Y-104428571D01*
X135935714Y-105857142D02*
X136078571Y-105928571D01*
X136364285Y-105928571D01*
X136507142Y-105857142D01*
X136578571Y-105714285D01*
X136578571Y-105142857D01*
X136507142Y-105000000D01*
X136364285Y-104928571D01*
X136078571Y-104928571D01*
X135935714Y-105000000D01*
X135864285Y-105142857D01*
X135864285Y-105285714D01*
X136578571Y-105428571D01*
X135364285Y-105928571D02*
X134578571Y-104928571D01*
X135364285Y-104928571D02*
X134578571Y-105928571D01*
X132864285Y-105928571D02*
X132864285Y-104428571D01*
X132864285Y-105142857D02*
X132007142Y-105142857D01*
X132007142Y-105928571D02*
X132007142Y-104428571D01*
X131078571Y-105928571D02*
X131221428Y-105857142D01*
X131292857Y-105785714D01*
X131364285Y-105642857D01*
X131364285Y-105214285D01*
X131292857Y-105071428D01*
X131221428Y-105000000D01*
X131078571Y-104928571D01*
X130864285Y-104928571D01*
X130721428Y-105000000D01*
X130650000Y-105071428D01*
X130578571Y-105214285D01*
X130578571Y-105642857D01*
X130650000Y-105785714D01*
X130721428Y-105857142D01*
X130864285Y-105928571D01*
X131078571Y-105928571D01*
X130150000Y-104928571D02*
X129578571Y-104928571D01*
X129935714Y-105928571D02*
X129935714Y-104642857D01*
X129864285Y-104500000D01*
X129721428Y-104428571D01*
X129578571Y-104428571D01*
X129292857Y-104928571D02*
X128721428Y-104928571D01*
X129078571Y-105928571D02*
X129078571Y-104642857D01*
X129007142Y-104500000D01*
X128864285Y-104428571D01*
X128721428Y-104428571D01*
X128221428Y-105928571D02*
X128221428Y-104928571D01*
X128221428Y-105071428D02*
X128150000Y-105000000D01*
X128007142Y-104928571D01*
X127792857Y-104928571D01*
X127650000Y-105000000D01*
X127578571Y-105142857D01*
X127578571Y-105928571D01*
X127578571Y-105142857D02*
X127507142Y-105000000D01*
X127364285Y-104928571D01*
X127150000Y-104928571D01*
X127007142Y-105000000D01*
X126935714Y-105142857D01*
X126935714Y-105928571D01*
X125578571Y-105928571D02*
X125578571Y-105142857D01*
X125650000Y-105000000D01*
X125792857Y-104928571D01*
X126078571Y-104928571D01*
X126221428Y-105000000D01*
X125578571Y-105857142D02*
X125721428Y-105928571D01*
X126078571Y-105928571D01*
X126221428Y-105857142D01*
X126292857Y-105714285D01*
X126292857Y-105571428D01*
X126221428Y-105428571D01*
X126078571Y-105357142D01*
X125721428Y-105357142D01*
X125578571Y-105285714D01*
X124864285Y-104928571D02*
X124864285Y-105928571D01*
X124864285Y-105071428D02*
X124792857Y-105000000D01*
X124650000Y-104928571D01*
X124435714Y-104928571D01*
X124292857Y-105000000D01*
X124221428Y-105142857D01*
X124221428Y-105928571D01*
X141164285Y-72103571D02*
X141164285Y-70603571D01*
X140807142Y-70603571D01*
X140592857Y-70675000D01*
X140450000Y-70817857D01*
X140378571Y-70960714D01*
X140307142Y-71246428D01*
X140307142Y-71460714D01*
X140378571Y-71746428D01*
X140450000Y-71889285D01*
X140592857Y-72032142D01*
X140807142Y-72103571D01*
X141164285Y-72103571D01*
X139092857Y-72032142D02*
X139235714Y-72103571D01*
X139521428Y-72103571D01*
X139664285Y-72032142D01*
X139735714Y-71889285D01*
X139735714Y-71317857D01*
X139664285Y-71175000D01*
X139521428Y-71103571D01*
X139235714Y-71103571D01*
X139092857Y-71175000D01*
X139021428Y-71317857D01*
X139021428Y-71460714D01*
X139735714Y-71603571D01*
X138378571Y-72103571D02*
X138378571Y-70603571D01*
X138378571Y-71175000D02*
X138235714Y-71103571D01*
X137950000Y-71103571D01*
X137807142Y-71175000D01*
X137735714Y-71246428D01*
X137664285Y-71389285D01*
X137664285Y-71817857D01*
X137735714Y-71960714D01*
X137807142Y-72032142D01*
X137950000Y-72103571D01*
X138235714Y-72103571D01*
X138378571Y-72032142D01*
X136378571Y-71103571D02*
X136378571Y-72103571D01*
X137021428Y-71103571D02*
X137021428Y-71889285D01*
X136950000Y-72032142D01*
X136807142Y-72103571D01*
X136592857Y-72103571D01*
X136450000Y-72032142D01*
X136378571Y-71960714D01*
X135021428Y-71103571D02*
X135021428Y-72317857D01*
X135092857Y-72460714D01*
X135164285Y-72532142D01*
X135307142Y-72603571D01*
X135521428Y-72603571D01*
X135664285Y-72532142D01*
X135021428Y-72032142D02*
X135164285Y-72103571D01*
X135450000Y-72103571D01*
X135592857Y-72032142D01*
X135664285Y-71960714D01*
X135735714Y-71817857D01*
X135735714Y-71389285D01*
X135664285Y-71246428D01*
X135592857Y-71175000D01*
X135450000Y-71103571D01*
X135164285Y-71103571D01*
X135021428Y-71175000D01*
X132664285Y-71317857D02*
X132450000Y-71389285D01*
X132378571Y-71460714D01*
X132307142Y-71603571D01*
X132307142Y-71817857D01*
X132378571Y-71960714D01*
X132450000Y-72032142D01*
X132592857Y-72103571D01*
X133164285Y-72103571D01*
X133164285Y-70603571D01*
X132664285Y-70603571D01*
X132521428Y-70675000D01*
X132450000Y-70746428D01*
X132378571Y-70889285D01*
X132378571Y-71032142D01*
X132450000Y-71175000D01*
X132521428Y-71246428D01*
X132664285Y-71317857D01*
X133164285Y-71317857D01*
X131450000Y-72103571D02*
X131592857Y-72032142D01*
X131664285Y-71960714D01*
X131735714Y-71817857D01*
X131735714Y-71389285D01*
X131664285Y-71246428D01*
X131592857Y-71175000D01*
X131450000Y-71103571D01*
X131235714Y-71103571D01*
X131092857Y-71175000D01*
X131021428Y-71246428D01*
X130950000Y-71389285D01*
X130950000Y-71817857D01*
X131021428Y-71960714D01*
X131092857Y-72032142D01*
X131235714Y-72103571D01*
X131450000Y-72103571D01*
X129664285Y-72103571D02*
X129664285Y-71317857D01*
X129735714Y-71175000D01*
X129878571Y-71103571D01*
X130164285Y-71103571D01*
X130307142Y-71175000D01*
X129664285Y-72032142D02*
X129807142Y-72103571D01*
X130164285Y-72103571D01*
X130307142Y-72032142D01*
X130378571Y-71889285D01*
X130378571Y-71746428D01*
X130307142Y-71603571D01*
X130164285Y-71532142D01*
X129807142Y-71532142D01*
X129664285Y-71460714D01*
X128950000Y-72103571D02*
X128950000Y-71103571D01*
X128950000Y-71389285D02*
X128878571Y-71246428D01*
X128807142Y-71175000D01*
X128664285Y-71103571D01*
X128521428Y-71103571D01*
X127378571Y-72103571D02*
X127378571Y-70603571D01*
X127378571Y-72032142D02*
X127521428Y-72103571D01*
X127807142Y-72103571D01*
X127950000Y-72032142D01*
X128021428Y-71960714D01*
X128092857Y-71817857D01*
X128092857Y-71389285D01*
X128021428Y-71246428D01*
X127950000Y-71175000D01*
X127807142Y-71103571D01*
X127521428Y-71103571D01*
X127378571Y-71175000D01*
X125735714Y-70603571D02*
X125235714Y-72103571D01*
X124735714Y-70603571D01*
X123450000Y-72103571D02*
X124307142Y-72103571D01*
X123878571Y-72103571D02*
X123878571Y-70603571D01*
X124021428Y-70817857D01*
X124164285Y-70960714D01*
X124307142Y-71032142D01*
X122807142Y-71960714D02*
X122735714Y-72032142D01*
X122807142Y-72103571D01*
X122878571Y-72032142D01*
X122807142Y-71960714D01*
X122807142Y-72103571D01*
X121807142Y-70603571D02*
X121664285Y-70603571D01*
X121521428Y-70675000D01*
X121450000Y-70746428D01*
X121378571Y-70889285D01*
X121307142Y-71175000D01*
X121307142Y-71532142D01*
X121378571Y-71817857D01*
X121450000Y-71960714D01*
X121521428Y-72032142D01*
X121664285Y-72103571D01*
X121807142Y-72103571D01*
X121950000Y-72032142D01*
X122021428Y-71960714D01*
X122092857Y-71817857D01*
X122164285Y-71532142D01*
X122164285Y-71175000D01*
X122092857Y-70889285D01*
X122021428Y-70746428D01*
X121950000Y-70675000D01*
X121807142Y-70603571D01*
D11*
X121630000Y-94510000D02*
X121630000Y-96000000D01*
X121630000Y-96000000D02*
X120290000Y-96000000D01*
X121630000Y-81190000D02*
X121630000Y-79700000D01*
X121630000Y-79700000D02*
X120290000Y-79700000D01*
X117570000Y-96000000D02*
X115830000Y-96000000D01*
X115830000Y-96000000D02*
X115830000Y-79700000D01*
X115830000Y-79700000D02*
X117570000Y-79700000D01*
X121630000Y-94510000D02*
X122830000Y-94510000D01*
M02*
