M48
INCH
T1C0.0157
T2C0.0394
T3C0.2087
%
G90
G05
T1
X4.5213Y-3.7043
X4.5217Y-3.6634
X4.5502Y-3.2805
X4.5697Y-3.5589
X4.5789Y-3.6167
X4.5856Y-3.3774
X4.586Y-3.4961
X4.5943Y-3.3199
X4.6033Y-3.452
X4.62Y-3.2234
X4.6597Y-3.4173
X4.6608Y-3.4789
X4.7213Y-3.4593
X4.7488Y-3.2217
X4.75Y-3.6957
X4.7551Y-3.7354
X4.7606Y-3.4583
X4.7711Y-3.1873
X4.8102Y-3.7998
X4.82Y-3.17
X4.8669Y-3.2264
X4.8962Y-3.4643
X4.9383Y-3.4199
X4.95Y-3.3608
X4.9621Y-3.3234
X4.9777Y-3.4215
X5.0046Y-3.31
X5.03Y-3.274
X5.0701Y-3.3514
X5.1127Y-3.3669
X5.12Y-3.61
T2
X5.02Y-3.94
X5.12Y-3.94
X5.22Y-3.94
X5.32Y-3.94
X5.02Y-3.79
X5.12Y-3.79
X5.22Y-3.79
X5.32Y-3.79
X5.42Y-3.79
X5.42Y-3.45
X5.42Y-3.55
X5.42Y-3.65
X5.17Y-3.25
X5.17Y-3.35
X5.17Y-3.45
X5.17Y-3.55
X5.17Y-3.65
X5.816Y-3.3978
X5.816Y-3.4978
X5.816Y-3.5978
X5.816Y-3.6978
X5.816Y-3.7978
X5.42Y-3.09
X5.52Y-3.09
X5.673Y-3.3978
X5.673Y-3.4978
X5.673Y-3.5978
X5.673Y-3.6978
X5.673Y-3.7978
X4.97Y-3.09
X5.07Y-3.09
X5.17Y-3.09
X5.27Y-3.09
T3
X4.5787Y-4.0512
X5.7598Y-4.0512
X4.5787Y-2.9094
X5.7628Y-2.9094
T0
M30
