G04 #@! TF.GenerationSoftware,KiCad,Pcbnew,5.1.5*
G04 #@! TF.CreationDate,2020-04-09T00:42:44+02:00*
G04 #@! TF.ProjectId,debug_control_board,64656275-675f-4636-9f6e-74726f6c5f62,rev?*
G04 #@! TF.SameCoordinates,Original*
G04 #@! TF.FileFunction,Copper,L1,Top*
G04 #@! TF.FilePolarity,Positive*
%FSLAX46Y46*%
G04 Gerber Fmt 4.6, Leading zero omitted, Abs format (unit mm)*
G04 Created by KiCad (PCBNEW 5.1.5) date 2020-04-09 00:42:44*
%MOMM*%
%LPD*%
G04 APERTURE LIST*
%ADD10R,1.700000X1.700000*%
%ADD11O,1.700000X1.700000*%
%ADD12R,1.300000X0.300000*%
%ADD13R,2.200000X1.800000*%
%ADD14C,0.800000*%
%ADD15C,0.250000*%
%ADD16C,0.300000*%
G04 APERTURE END LIST*
D10*
X131318000Y-82550000D03*
D11*
X131318000Y-85090000D03*
X131318000Y-87630000D03*
X131318000Y-90170000D03*
X131318000Y-92710000D03*
X127508000Y-96266000D03*
X130048000Y-96266000D03*
X132588000Y-96266000D03*
X135128000Y-96266000D03*
D10*
X137668000Y-96266000D03*
D11*
X127508000Y-100076000D03*
X130048000Y-100076000D03*
X132588000Y-100076000D03*
D10*
X135128000Y-100076000D03*
D11*
X126238000Y-78486000D03*
X128778000Y-78486000D03*
X131318000Y-78486000D03*
D10*
X133858000Y-78486000D03*
X144093001Y-86305001D03*
D11*
X144093001Y-88845001D03*
X144093001Y-91385001D03*
X144093001Y-93925001D03*
X144093001Y-96465001D03*
X147727001Y-96465001D03*
X147727001Y-93925001D03*
X147727001Y-91385001D03*
X147727001Y-88845001D03*
D10*
X147727001Y-86305001D03*
X140208000Y-78486000D03*
D11*
X137668000Y-78486000D03*
D10*
X137668000Y-92710000D03*
D11*
X137668000Y-90170000D03*
X137668000Y-87630000D03*
D12*
X122180000Y-94090000D03*
X122180000Y-93590000D03*
X122180000Y-93090000D03*
X122180000Y-92590000D03*
X122180000Y-92090000D03*
X122180000Y-91590000D03*
X122180000Y-91090000D03*
X122180000Y-90590000D03*
X122180000Y-90090000D03*
X122180000Y-89590000D03*
X122180000Y-89090000D03*
X122180000Y-88590000D03*
X122180000Y-88090000D03*
X122180000Y-87590000D03*
X122180000Y-87090000D03*
X122180000Y-86590000D03*
X122180000Y-86090000D03*
X122180000Y-85590000D03*
X122180000Y-85090000D03*
X122180000Y-84590000D03*
X122180000Y-84090000D03*
X122180000Y-83590000D03*
X122180000Y-83090000D03*
X122180000Y-82590000D03*
X122180000Y-82090000D03*
X122180000Y-81590000D03*
D13*
X118930000Y-79690000D03*
X118930000Y-95990000D03*
D14*
X119920311Y-87865000D03*
X125433459Y-86866356D03*
X120920000Y-87840000D03*
X124362912Y-87993230D03*
X118385010Y-88365000D03*
X116070158Y-90395000D03*
X116475020Y-85785000D03*
X116485020Y-88800509D03*
X116925030Y-87680000D03*
X118356915Y-86800001D03*
X116694154Y-84325000D03*
X116304609Y-91864864D03*
X115575000Y-83325000D03*
X114850000Y-93050000D03*
X120780000Y-94880000D03*
X114840000Y-94090000D03*
X121185708Y-80958609D03*
X122428000Y-80518000D03*
X126432725Y-86904990D03*
X125730000Y-85365000D03*
X120650000Y-93870000D03*
X120620000Y-81830000D03*
X117348000Y-81875000D03*
X123620000Y-81950000D03*
X130048000Y-91694000D03*
X122180000Y-96514000D03*
X127117030Y-84074000D03*
X126038564Y-84413794D03*
X129862942Y-85519752D03*
X128780477Y-85126617D03*
X127762000Y-83159020D03*
D15*
X119920311Y-87766687D02*
X119920311Y-87865000D01*
X122180000Y-86590000D02*
X121096998Y-86590000D01*
X121096998Y-86590000D02*
X119920311Y-87766687D01*
X120460707Y-80916291D02*
X119520312Y-81856686D01*
X131318000Y-81450000D02*
X130894000Y-81026000D01*
X121315315Y-79756000D02*
X120460707Y-80610608D01*
X131318000Y-82550000D02*
X131318000Y-81450000D01*
X119520312Y-87465001D02*
X119920311Y-87865000D01*
X119520312Y-81856686D02*
X119520312Y-87465001D01*
X130894000Y-81026000D02*
X124206000Y-81026000D01*
X120460707Y-80610608D02*
X120460707Y-80916291D01*
X122936000Y-79756000D02*
X121315315Y-79756000D01*
X124206000Y-81026000D02*
X122936000Y-79756000D01*
X125231870Y-86708989D02*
X125231871Y-86708990D01*
X125661412Y-87630000D02*
X124740402Y-86708990D01*
X131318000Y-85090000D02*
X128778000Y-87630000D01*
X128778000Y-87630000D02*
X125661412Y-87630000D01*
X123080000Y-87090000D02*
X122180000Y-87090000D01*
X125433459Y-86866356D02*
X124897768Y-86866356D01*
X123985420Y-86708990D02*
X123604410Y-87090000D01*
X123604410Y-87090000D02*
X123080000Y-87090000D01*
X124897768Y-86866356D02*
X124740402Y-86708990D01*
X124740402Y-86708990D02*
X123985420Y-86708990D01*
X121170000Y-87590000D02*
X122180000Y-87590000D01*
X120920000Y-87840000D02*
X121170000Y-87590000D01*
X123080000Y-87590000D02*
X122180000Y-87590000D01*
X123740822Y-87590000D02*
X123080000Y-87590000D01*
X130556000Y-88392000D02*
X125787002Y-88392000D01*
X125787002Y-88392000D02*
X124554003Y-87159001D01*
X124171821Y-87159001D02*
X123740822Y-87590000D01*
X131318000Y-87630000D02*
X130556000Y-88392000D01*
X124554003Y-87159001D02*
X124171821Y-87159001D01*
X122180000Y-88090000D02*
X124000000Y-88090000D01*
X122180000Y-88090000D02*
X124266142Y-88090000D01*
X124266142Y-88090000D02*
X124362912Y-87993230D01*
X124642592Y-87884000D02*
X124206000Y-87884000D01*
X127690592Y-90932000D02*
X124642592Y-87884000D01*
X131318000Y-90170000D02*
X130556000Y-90932000D01*
X130556000Y-90932000D02*
X127690592Y-90932000D01*
X122180000Y-88590000D02*
X118610010Y-88590000D01*
X118610010Y-88590000D02*
X118385010Y-88365000D01*
X130115919Y-92710000D02*
X131318000Y-92710000D01*
X122180000Y-88590000D02*
X123886678Y-88590000D01*
X123886678Y-88590000D02*
X124014910Y-88718232D01*
X128652410Y-92710000D02*
X130115919Y-92710000D01*
X124660642Y-88718232D02*
X128652410Y-92710000D01*
X124014910Y-88718232D02*
X124660642Y-88718232D01*
X117256410Y-91090000D02*
X116561410Y-90395000D01*
X116561410Y-90395000D02*
X116070158Y-90395000D01*
X122180000Y-91090000D02*
X117256410Y-91090000D01*
X123730410Y-91090000D02*
X125672010Y-93031600D01*
X122180000Y-91090000D02*
X123730410Y-91090000D01*
X125672010Y-93031600D02*
X125540205Y-92899795D01*
X125672010Y-93414010D02*
X125672010Y-93031600D01*
X127508000Y-96266000D02*
X127508000Y-95250000D01*
X127508000Y-95250000D02*
X125672010Y-93414010D01*
X122180000Y-90590000D02*
X117420000Y-90590000D01*
X117392820Y-90590000D02*
X116472819Y-89669999D01*
X117420000Y-90590000D02*
X117392820Y-90590000D01*
X116189999Y-89669999D02*
X115760020Y-89240020D01*
X116472819Y-89669999D02*
X116189999Y-89669999D01*
X115760020Y-89240020D02*
X115760020Y-86500000D01*
X115760020Y-86500000D02*
X116475020Y-85785000D01*
X129198001Y-95416001D02*
X130048000Y-96266000D01*
X128872999Y-95090999D02*
X129198001Y-95416001D01*
X123866820Y-90590000D02*
X126122020Y-92845200D01*
X122180000Y-90590000D02*
X123866820Y-90590000D01*
X126122020Y-92845200D02*
X126122020Y-93102020D01*
X126122020Y-93102020D02*
X128110999Y-95090999D01*
X128110999Y-95090999D02*
X128872999Y-95090999D01*
X116670000Y-88985489D02*
X116670000Y-89230770D01*
X116485020Y-88800509D02*
X116670000Y-88985489D01*
X122180000Y-90090000D02*
X117529230Y-90090000D01*
X117529230Y-90090000D02*
X116670000Y-89230770D01*
X131412999Y-95090999D02*
X132588000Y-96266000D01*
X129184989Y-94640989D02*
X129634999Y-95090999D01*
X124003230Y-90090000D02*
X126572029Y-92658799D01*
X129634999Y-95090999D02*
X131412999Y-95090999D01*
X122180000Y-90090000D02*
X124003230Y-90090000D01*
X126572029Y-92790029D02*
X128422989Y-94640989D01*
X126572029Y-92658799D02*
X126572029Y-92790029D01*
X128422989Y-94640989D02*
X129184989Y-94640989D01*
X122180000Y-89590000D02*
X117665640Y-89590000D01*
X117665640Y-89590000D02*
X117210021Y-89134381D01*
X116925030Y-87680000D02*
X116925030Y-88174970D01*
X117210000Y-88459940D02*
X117210000Y-88740000D01*
X116925030Y-88174970D02*
X117210000Y-88459940D01*
X117210021Y-89134381D02*
X117210000Y-88740000D01*
X135128000Y-96266000D02*
X133502989Y-94640989D01*
X129371389Y-94190979D02*
X128778000Y-94190979D01*
X133502989Y-94640989D02*
X129821399Y-94640989D01*
X129821399Y-94640989D02*
X129371389Y-94190979D01*
X128016000Y-93466360D02*
X128016000Y-93472000D01*
X124167894Y-89618254D02*
X128016000Y-93466360D01*
X123642110Y-89618254D02*
X124167894Y-89618254D01*
X122180000Y-89590000D02*
X123613856Y-89590000D01*
X123613856Y-89590000D02*
X123642110Y-89618254D01*
X128016000Y-93472000D02*
X128734979Y-94190979D01*
X117660009Y-88850009D02*
X117880000Y-89070000D01*
X117660009Y-87496907D02*
X117660009Y-88850009D01*
X118356915Y-86800001D02*
X117660009Y-87496907D01*
X121280000Y-89090000D02*
X122180000Y-89090000D01*
X118017008Y-89070000D02*
X118037008Y-89090000D01*
X118037008Y-89090000D02*
X121280000Y-89090000D01*
X117880000Y-89070000D02*
X118017008Y-89070000D01*
X129584431Y-93726000D02*
X130049410Y-94190979D01*
X122180000Y-89090000D02*
X123750267Y-89090000D01*
X123750267Y-89090000D02*
X123828510Y-89168243D01*
X124474243Y-89168243D02*
X129032000Y-93726000D01*
X129032000Y-93726000D02*
X129584431Y-93726000D01*
X130049410Y-94190979D02*
X136692979Y-94190979D01*
X136692979Y-94190979D02*
X137668000Y-95166000D01*
X137668000Y-95166000D02*
X137668000Y-96266000D01*
X123828510Y-89168243D02*
X124474243Y-89168243D01*
X117080000Y-91590000D02*
X122180000Y-91590000D01*
X116670000Y-91140000D02*
X117080000Y-91590000D01*
X116650000Y-91120000D02*
X116670000Y-91140000D01*
X115310010Y-90690010D02*
X115740000Y-91120000D01*
X115740000Y-91120000D02*
X116650000Y-91120000D01*
X115320000Y-85699154D02*
X115320000Y-86100000D01*
X116694154Y-84325000D02*
X115320000Y-85699154D01*
X115320000Y-86100000D02*
X115310010Y-90690010D01*
X133942000Y-97790000D02*
X135128000Y-98976000D01*
X123391377Y-91764967D02*
X123649202Y-91764968D01*
X123114992Y-91639990D02*
X123266401Y-91639991D01*
X123090001Y-91614999D02*
X123114992Y-91639990D01*
X122180000Y-91614999D02*
X123090001Y-91614999D01*
X135128000Y-98976000D02*
X135128000Y-100076000D01*
X122180000Y-91590000D02*
X122180000Y-91614999D01*
X124505033Y-92620799D02*
X124505033Y-95002035D01*
X127292998Y-97790000D02*
X133942000Y-97790000D01*
X123266401Y-91639991D02*
X123391377Y-91764967D01*
X123649202Y-91764968D02*
X124505033Y-92620799D01*
X124505033Y-95002035D02*
X127292998Y-97790000D01*
X116529745Y-92090000D02*
X116304609Y-91864864D01*
X122180000Y-92090000D02*
X116529745Y-92090000D01*
X131738001Y-99226001D02*
X132588000Y-100076000D01*
X124055023Y-92807199D02*
X124055023Y-95188435D01*
X127106598Y-98240011D02*
X130752011Y-98240011D01*
X123204977Y-92214977D02*
X123462801Y-92214977D01*
X122180000Y-92090000D02*
X123080000Y-92090000D01*
X124055023Y-95188435D02*
X127106598Y-98240011D01*
X123462801Y-92214977D02*
X124055023Y-92807199D01*
X130752011Y-98240011D02*
X131738001Y-99226001D01*
X123080000Y-92090000D02*
X123204977Y-92214977D01*
X122180000Y-92590000D02*
X115600000Y-92590000D01*
X115575000Y-83305000D02*
X114860000Y-84020000D01*
X114860000Y-91870000D02*
X115580000Y-92590000D01*
X114860000Y-84020000D02*
X114860000Y-91870000D01*
X122180000Y-92590000D02*
X122941590Y-92590000D01*
X123605012Y-95374835D02*
X126920198Y-98690022D01*
X128662022Y-98690022D02*
X129198001Y-99226001D01*
X129198001Y-99226001D02*
X130048000Y-100076000D01*
X122941590Y-92590000D02*
X123016578Y-92664988D01*
X123016578Y-92664988D02*
X123276401Y-92664988D01*
X123605012Y-92993599D02*
X123605012Y-95374835D01*
X123276401Y-92664988D02*
X123605012Y-92993599D01*
X126920198Y-98690022D02*
X128662022Y-98690022D01*
X122180000Y-93090000D02*
X114890000Y-93090000D01*
X114890000Y-93090000D02*
X114850000Y-93050000D01*
X123155001Y-93179999D02*
X123090001Y-93114999D01*
X122204999Y-93114999D02*
X122180000Y-93090000D01*
X123155001Y-95723001D02*
X123155001Y-93179999D01*
X127508000Y-100076000D02*
X123155001Y-95723001D01*
X123090001Y-93114999D02*
X122204999Y-93114999D01*
X115345001Y-94595001D02*
X114840000Y-94090000D01*
X120780000Y-94880000D02*
X120495001Y-94595001D01*
X120495001Y-94595001D02*
X115345001Y-94595001D01*
X121548609Y-80958609D02*
X122180000Y-81590000D01*
X121185708Y-80958609D02*
X121548609Y-80958609D01*
X122428000Y-81342000D02*
X122180000Y-81590000D01*
X122428000Y-80518000D02*
X122428000Y-81342000D01*
X126432725Y-86339305D02*
X126432725Y-86904990D01*
X126183420Y-86090000D02*
X126432725Y-86339305D01*
X122180000Y-86090000D02*
X126183420Y-86090000D01*
X122180000Y-85590000D02*
X125505000Y-85590000D01*
X125505000Y-85590000D02*
X125730000Y-85365000D01*
X122180000Y-93590000D02*
X120930000Y-93590000D01*
X120930000Y-93590000D02*
X120650000Y-93870000D01*
X122980000Y-82590000D02*
X122180000Y-82590000D01*
X123620000Y-81950000D02*
X122980000Y-82590000D01*
X131692003Y-91534999D02*
X130772686Y-91534999D01*
X132493001Y-90734001D02*
X131692003Y-91534999D01*
X130772686Y-91534999D02*
X130613685Y-91694000D01*
X130613685Y-91694000D02*
X130048000Y-91694000D01*
X122180000Y-82590000D02*
X122204999Y-82565001D01*
X130396999Y-83914999D02*
X131882001Y-83914999D01*
X131882001Y-83914999D02*
X132493001Y-84525999D01*
X132493001Y-84525999D02*
X132493001Y-90734001D01*
X124185685Y-81950000D02*
X124601685Y-81534000D01*
X123620000Y-81950000D02*
X124185685Y-81950000D01*
X130142999Y-83660999D02*
X130302000Y-83820000D01*
X130142999Y-82898999D02*
X130142999Y-83660999D01*
X128778000Y-81534000D02*
X130142999Y-82898999D01*
X124601685Y-81534000D02*
X128778000Y-81534000D01*
X130302000Y-83820000D02*
X130396999Y-83914999D01*
D16*
X122180000Y-99320000D02*
X125984000Y-103124000D01*
X125984000Y-103124000D02*
X137922000Y-103124000D01*
X137922000Y-103124000D02*
X142240000Y-98806000D01*
X145386002Y-98806000D02*
X147727001Y-96465001D01*
X142240000Y-98806000D02*
X145386002Y-98806000D01*
X122180000Y-94090000D02*
X122180000Y-96514000D01*
X122180000Y-96514000D02*
X122180000Y-99320000D01*
X147727001Y-96465001D02*
X147727001Y-86305001D01*
D15*
X126731823Y-83688793D02*
X127117030Y-84074000D01*
X125561470Y-83688793D02*
X126731823Y-83688793D01*
X122180000Y-84590000D02*
X124660263Y-84590000D01*
X124660263Y-84590000D02*
X125561470Y-83688793D01*
X123080000Y-85090000D02*
X122180000Y-85090000D01*
X125472879Y-84413794D02*
X124796673Y-85090000D01*
X124796673Y-85090000D02*
X123080000Y-85090000D01*
X126038564Y-84413794D02*
X125472879Y-84413794D01*
X129862942Y-84017352D02*
X129862942Y-85519752D01*
X129692989Y-83847399D02*
X129862942Y-84017352D01*
X123743058Y-83090000D02*
X124849048Y-81984010D01*
X124849048Y-81984010D02*
X128466010Y-81984010D01*
X129692989Y-83210989D02*
X129692989Y-83847399D01*
X122180000Y-83090000D02*
X123743058Y-83090000D01*
X128466010Y-81984010D02*
X129692989Y-83210989D01*
X122180000Y-83590000D02*
X123914754Y-83590000D01*
X123914754Y-83590000D02*
X125070734Y-82434020D01*
X125070734Y-82434020D02*
X128279610Y-82434020D01*
X128780477Y-82934887D02*
X128780477Y-85126617D01*
X128279610Y-82434020D02*
X128780477Y-82934887D01*
X122180000Y-84090000D02*
X124073612Y-84090000D01*
X123080000Y-84090000D02*
X122180000Y-84090000D01*
X124051164Y-84090000D02*
X123080000Y-84090000D01*
X124982144Y-83159020D02*
X124051164Y-84090000D01*
X127762000Y-83159020D02*
X124982144Y-83159020D01*
M02*
