G04 #@! TF.GenerationSoftware,KiCad,Pcbnew,5.1.5*
G04 #@! TF.CreationDate,2020-04-09T00:18:25+02:00*
G04 #@! TF.ProjectId,bluepill_control_board,626c7565-7069-46c6-9c5f-636f6e74726f,rev?*
G04 #@! TF.SameCoordinates,Original*
G04 #@! TF.FileFunction,Legend,Top*
G04 #@! TF.FilePolarity,Positive*
%FSLAX46Y46*%
G04 Gerber Fmt 4.6, Leading zero omitted, Abs format (unit mm)*
G04 Created by KiCad (PCBNEW 5.1.5) date 2020-04-09 00:18:25*
%MOMM*%
%LPD*%
G04 APERTURE LIST*
%ADD10C,0.150000*%
%ADD11C,0.120000*%
G04 APERTURE END LIST*
D10*
X238418666Y-137929333D02*
X238418666Y-137453142D01*
X238704380Y-138024571D02*
X237704380Y-137691238D01*
X238704380Y-137357904D01*
X238704380Y-136881714D02*
X238656761Y-136976952D01*
X238561523Y-137024571D01*
X237704380Y-137024571D01*
X238656761Y-136119809D02*
X238704380Y-136215047D01*
X238704380Y-136405523D01*
X238656761Y-136500761D01*
X238561523Y-136548380D01*
X238180571Y-136548380D01*
X238085333Y-136500761D01*
X238037714Y-136405523D01*
X238037714Y-136215047D01*
X238085333Y-136119809D01*
X238180571Y-136072190D01*
X238275809Y-136072190D01*
X238371047Y-136548380D01*
X238704380Y-135738857D02*
X238037714Y-135215047D01*
X238037714Y-135738857D02*
X238704380Y-135215047D01*
X238704380Y-134072190D02*
X237704380Y-134072190D01*
X238180571Y-134072190D02*
X238180571Y-133500761D01*
X238704380Y-133500761D02*
X237704380Y-133500761D01*
X238704380Y-132881714D02*
X238656761Y-132976952D01*
X238609142Y-133024571D01*
X238513904Y-133072190D01*
X238228190Y-133072190D01*
X238132952Y-133024571D01*
X238085333Y-132976952D01*
X238037714Y-132881714D01*
X238037714Y-132738857D01*
X238085333Y-132643619D01*
X238132952Y-132596000D01*
X238228190Y-132548380D01*
X238513904Y-132548380D01*
X238609142Y-132596000D01*
X238656761Y-132643619D01*
X238704380Y-132738857D01*
X238704380Y-132881714D01*
X238037714Y-132262666D02*
X238037714Y-131881714D01*
X238704380Y-132119809D02*
X237847238Y-132119809D01*
X237752000Y-132072190D01*
X237704380Y-131976952D01*
X237704380Y-131881714D01*
X238037714Y-131691238D02*
X238037714Y-131310285D01*
X238704380Y-131548380D02*
X237847238Y-131548380D01*
X237752000Y-131500761D01*
X237704380Y-131405523D01*
X237704380Y-131310285D01*
X238704380Y-130976952D02*
X238037714Y-130976952D01*
X238132952Y-130976952D02*
X238085333Y-130929333D01*
X238037714Y-130834095D01*
X238037714Y-130691238D01*
X238085333Y-130596000D01*
X238180571Y-130548380D01*
X238704380Y-130548380D01*
X238180571Y-130548380D02*
X238085333Y-130500761D01*
X238037714Y-130405523D01*
X238037714Y-130262666D01*
X238085333Y-130167428D01*
X238180571Y-130119809D01*
X238704380Y-130119809D01*
X238704380Y-129215047D02*
X238180571Y-129215047D01*
X238085333Y-129262666D01*
X238037714Y-129357904D01*
X238037714Y-129548380D01*
X238085333Y-129643619D01*
X238656761Y-129215047D02*
X238704380Y-129310285D01*
X238704380Y-129548380D01*
X238656761Y-129643619D01*
X238561523Y-129691238D01*
X238466285Y-129691238D01*
X238371047Y-129643619D01*
X238323428Y-129548380D01*
X238323428Y-129310285D01*
X238275809Y-129215047D01*
X238037714Y-128738857D02*
X238704380Y-128738857D01*
X238132952Y-128738857D02*
X238085333Y-128691238D01*
X238037714Y-128596000D01*
X238037714Y-128453142D01*
X238085333Y-128357904D01*
X238180571Y-128310285D01*
X238704380Y-128310285D01*
X183761571Y-133277857D02*
X183809190Y-133135000D01*
X183856809Y-133087380D01*
X183952047Y-133039761D01*
X184094904Y-133039761D01*
X184190142Y-133087380D01*
X184237761Y-133135000D01*
X184285380Y-133230238D01*
X184285380Y-133611190D01*
X183285380Y-133611190D01*
X183285380Y-133277857D01*
X183333000Y-133182619D01*
X183380619Y-133135000D01*
X183475857Y-133087380D01*
X183571095Y-133087380D01*
X183666333Y-133135000D01*
X183713952Y-133182619D01*
X183761571Y-133277857D01*
X183761571Y-133611190D01*
X184285380Y-132468333D02*
X184237761Y-132563571D01*
X184142523Y-132611190D01*
X183285380Y-132611190D01*
X183618714Y-131658809D02*
X184285380Y-131658809D01*
X183618714Y-132087380D02*
X184142523Y-132087380D01*
X184237761Y-132039761D01*
X184285380Y-131944523D01*
X184285380Y-131801666D01*
X184237761Y-131706428D01*
X184190142Y-131658809D01*
X184237761Y-130801666D02*
X184285380Y-130896904D01*
X184285380Y-131087380D01*
X184237761Y-131182619D01*
X184142523Y-131230238D01*
X183761571Y-131230238D01*
X183666333Y-131182619D01*
X183618714Y-131087380D01*
X183618714Y-130896904D01*
X183666333Y-130801666D01*
X183761571Y-130754047D01*
X183856809Y-130754047D01*
X183952047Y-131230238D01*
X183618714Y-130325476D02*
X184618714Y-130325476D01*
X183666333Y-130325476D02*
X183618714Y-130230238D01*
X183618714Y-130039761D01*
X183666333Y-129944523D01*
X183713952Y-129896904D01*
X183809190Y-129849285D01*
X184094904Y-129849285D01*
X184190142Y-129896904D01*
X184237761Y-129944523D01*
X184285380Y-130039761D01*
X184285380Y-130230238D01*
X184237761Y-130325476D01*
X184285380Y-129420714D02*
X183618714Y-129420714D01*
X183285380Y-129420714D02*
X183333000Y-129468333D01*
X183380619Y-129420714D01*
X183333000Y-129373095D01*
X183285380Y-129420714D01*
X183380619Y-129420714D01*
X184285380Y-128801666D02*
X184237761Y-128896904D01*
X184142523Y-128944523D01*
X183285380Y-128944523D01*
X184285380Y-128277857D02*
X184237761Y-128373095D01*
X184142523Y-128420714D01*
X183285380Y-128420714D01*
X184190142Y-126563571D02*
X184237761Y-126611190D01*
X184285380Y-126754047D01*
X184285380Y-126849285D01*
X184237761Y-126992142D01*
X184142523Y-127087380D01*
X184047285Y-127135000D01*
X183856809Y-127182619D01*
X183713952Y-127182619D01*
X183523476Y-127135000D01*
X183428238Y-127087380D01*
X183333000Y-126992142D01*
X183285380Y-126849285D01*
X183285380Y-126754047D01*
X183333000Y-126611190D01*
X183380619Y-126563571D01*
X184285380Y-125992142D02*
X184237761Y-126087380D01*
X184190142Y-126135000D01*
X184094904Y-126182619D01*
X183809190Y-126182619D01*
X183713952Y-126135000D01*
X183666333Y-126087380D01*
X183618714Y-125992142D01*
X183618714Y-125849285D01*
X183666333Y-125754047D01*
X183713952Y-125706428D01*
X183809190Y-125658809D01*
X184094904Y-125658809D01*
X184190142Y-125706428D01*
X184237761Y-125754047D01*
X184285380Y-125849285D01*
X184285380Y-125992142D01*
X183618714Y-125230238D02*
X184285380Y-125230238D01*
X183713952Y-125230238D02*
X183666333Y-125182619D01*
X183618714Y-125087380D01*
X183618714Y-124944523D01*
X183666333Y-124849285D01*
X183761571Y-124801666D01*
X184285380Y-124801666D01*
X183618714Y-124468333D02*
X183618714Y-124087380D01*
X183285380Y-124325476D02*
X184142523Y-124325476D01*
X184237761Y-124277857D01*
X184285380Y-124182619D01*
X184285380Y-124087380D01*
X184285380Y-123754047D02*
X183618714Y-123754047D01*
X183809190Y-123754047D02*
X183713952Y-123706428D01*
X183666333Y-123658809D01*
X183618714Y-123563571D01*
X183618714Y-123468333D01*
X184285380Y-122992142D02*
X184237761Y-123087380D01*
X184190142Y-123135000D01*
X184094904Y-123182619D01*
X183809190Y-123182619D01*
X183713952Y-123135000D01*
X183666333Y-123087380D01*
X183618714Y-122992142D01*
X183618714Y-122849285D01*
X183666333Y-122754047D01*
X183713952Y-122706428D01*
X183809190Y-122658809D01*
X184094904Y-122658809D01*
X184190142Y-122706428D01*
X184237761Y-122754047D01*
X184285380Y-122849285D01*
X184285380Y-122992142D01*
X184285380Y-122087380D02*
X184237761Y-122182619D01*
X184142523Y-122230238D01*
X183285380Y-122230238D01*
X184285380Y-121563571D02*
X184237761Y-121658809D01*
X184142523Y-121706428D01*
X183285380Y-121706428D01*
X185411571Y-131230238D02*
X185459190Y-131087380D01*
X185506809Y-131039761D01*
X185602047Y-130992142D01*
X185744904Y-130992142D01*
X185840142Y-131039761D01*
X185887761Y-131087380D01*
X185935380Y-131182619D01*
X185935380Y-131563571D01*
X184935380Y-131563571D01*
X184935380Y-131230238D01*
X184983000Y-131135000D01*
X185030619Y-131087380D01*
X185125857Y-131039761D01*
X185221095Y-131039761D01*
X185316333Y-131087380D01*
X185363952Y-131135000D01*
X185411571Y-131230238D01*
X185411571Y-131563571D01*
X185935380Y-130420714D02*
X185887761Y-130515952D01*
X185840142Y-130563571D01*
X185744904Y-130611190D01*
X185459190Y-130611190D01*
X185363952Y-130563571D01*
X185316333Y-130515952D01*
X185268714Y-130420714D01*
X185268714Y-130277857D01*
X185316333Y-130182619D01*
X185363952Y-130135000D01*
X185459190Y-130087380D01*
X185744904Y-130087380D01*
X185840142Y-130135000D01*
X185887761Y-130182619D01*
X185935380Y-130277857D01*
X185935380Y-130420714D01*
X185935380Y-129230238D02*
X185411571Y-129230238D01*
X185316333Y-129277857D01*
X185268714Y-129373095D01*
X185268714Y-129563571D01*
X185316333Y-129658809D01*
X185887761Y-129230238D02*
X185935380Y-129325476D01*
X185935380Y-129563571D01*
X185887761Y-129658809D01*
X185792523Y-129706428D01*
X185697285Y-129706428D01*
X185602047Y-129658809D01*
X185554428Y-129563571D01*
X185554428Y-129325476D01*
X185506809Y-129230238D01*
X185935380Y-128754047D02*
X185268714Y-128754047D01*
X185459190Y-128754047D02*
X185363952Y-128706428D01*
X185316333Y-128658809D01*
X185268714Y-128563571D01*
X185268714Y-128468333D01*
X185935380Y-127706428D02*
X184935380Y-127706428D01*
X185887761Y-127706428D02*
X185935380Y-127801666D01*
X185935380Y-127992142D01*
X185887761Y-128087380D01*
X185840142Y-128135000D01*
X185744904Y-128182619D01*
X185459190Y-128182619D01*
X185363952Y-128135000D01*
X185316333Y-128087380D01*
X185268714Y-127992142D01*
X185268714Y-127801666D01*
X185316333Y-127706428D01*
X184935380Y-126611190D02*
X185935380Y-126277857D01*
X184935380Y-125944523D01*
X185935380Y-125087380D02*
X185935380Y-125658809D01*
X185935380Y-125373095D02*
X184935380Y-125373095D01*
X185078238Y-125468333D01*
X185173476Y-125563571D01*
X185221095Y-125658809D01*
X185840142Y-124658809D02*
X185887761Y-124611190D01*
X185935380Y-124658809D01*
X185887761Y-124706428D01*
X185840142Y-124658809D01*
X185935380Y-124658809D01*
X184935380Y-123992142D02*
X184935380Y-123896904D01*
X184983000Y-123801666D01*
X185030619Y-123754047D01*
X185125857Y-123706428D01*
X185316333Y-123658809D01*
X185554428Y-123658809D01*
X185744904Y-123706428D01*
X185840142Y-123754047D01*
X185887761Y-123801666D01*
X185935380Y-123896904D01*
X185935380Y-123992142D01*
X185887761Y-124087380D01*
X185840142Y-124135000D01*
X185744904Y-124182619D01*
X185554428Y-124230238D01*
X185316333Y-124230238D01*
X185125857Y-124182619D01*
X185030619Y-124135000D01*
X184983000Y-124087380D01*
X184935380Y-123992142D01*
D11*
X228275000Y-118521000D02*
X228275000Y-119721000D01*
X213465000Y-112721000D02*
X213465000Y-114461000D01*
X229765000Y-112721000D02*
X213465000Y-112721000D01*
X229765000Y-114461000D02*
X229765000Y-112721000D01*
X213465000Y-118521000D02*
X213465000Y-117181000D01*
X214955000Y-118521000D02*
X213465000Y-118521000D01*
X229765000Y-118521000D02*
X229765000Y-117181000D01*
X228275000Y-118521000D02*
X229765000Y-118521000D01*
M02*
