M48
INCH
T1C0.0157
T2C0.0400
T3C0.2087
%
G90
G05
T1
X8.205Y-4.74
X8.5Y-4.57
X8.585Y-4.7805
X8.625Y-4.78
X8.6696Y-4.7804
X8.6756Y-4.635
X8.715Y-4.635
X8.7447Y-4.7769
X8.755Y-4.635
X9.025Y-4.815
T2
X7.5799Y-5.5501
X7.5819Y-4.9501
X7.6819Y-4.9501
X7.6819Y-5.5501
X7.7319Y-5.2005
X7.7319Y-5.3005
X7.7819Y-4.9501
X7.7819Y-5.5501
X7.8819Y-4.9501
X7.8819Y-5.5501
X7.9819Y-4.9501
X7.9819Y-5.5501
X8.0819Y-4.9501
X8.0819Y-5.5501
X8.1819Y-4.9501
X8.1819Y-5.5501
X8.2819Y-4.9501
X8.2819Y-5.5501
X8.3819Y-4.9501
X8.3819Y-5.5501
X8.4819Y-4.9501
X8.4819Y-5.5501
X8.5819Y-4.9501
X8.5819Y-5.5501
X8.6819Y-4.9501
X8.6819Y-5.5501
X8.7819Y-4.9501
X8.7819Y-5.5501
X8.8819Y-4.9501
X8.8819Y-5.5501
X8.9819Y-4.9501
X8.9819Y-5.5501
X9.0819Y-4.9501
X9.0819Y-5.5501
X9.1819Y-4.9501
X9.1819Y-5.5501
X9.2819Y-4.9501
X9.2819Y-5.5501
X9.3819Y-4.9501
X9.3819Y-5.5501
X9.4819Y-4.9501
X9.4819Y-5.5501
T3
X9.3967Y-4.5531
X7.2441Y-4.5531
X7.245Y-5.4911
T0
M30
