G04 #@! TF.GenerationSoftware,KiCad,Pcbnew,5.1.5*
G04 #@! TF.CreationDate,2020-04-09T00:18:25+02:00*
G04 #@! TF.ProjectId,bluepill_control_board,626c7565-7069-46c6-9c5f-636f6e74726f,rev?*
G04 #@! TF.SameCoordinates,Original*
G04 #@! TF.FileFunction,Legend,Bot*
G04 #@! TF.FilePolarity,Positive*
%FSLAX46Y46*%
G04 Gerber Fmt 4.6, Leading zero omitted, Abs format (unit mm)*
G04 Created by KiCad (PCBNEW 5.1.5) date 2020-04-09 00:18:25*
%MOMM*%
%LPD*%
G04 APERTURE LIST*
%ADD10C,0.150000*%
%ADD11C,0.304800*%
%ADD12C,0.222250*%
G04 APERTURE END LIST*
D10*
X241006380Y-131580095D02*
X241815904Y-131580095D01*
X241911142Y-131627714D01*
X241958761Y-131675333D01*
X242006380Y-131770571D01*
X242006380Y-131961047D01*
X241958761Y-132056285D01*
X241911142Y-132103904D01*
X241815904Y-132151523D01*
X241006380Y-132151523D01*
X241958761Y-132580095D02*
X242006380Y-132722952D01*
X242006380Y-132961047D01*
X241958761Y-133056285D01*
X241911142Y-133103904D01*
X241815904Y-133151523D01*
X241720666Y-133151523D01*
X241625428Y-133103904D01*
X241577809Y-133056285D01*
X241530190Y-132961047D01*
X241482571Y-132770571D01*
X241434952Y-132675333D01*
X241387333Y-132627714D01*
X241292095Y-132580095D01*
X241196857Y-132580095D01*
X241101619Y-132627714D01*
X241054000Y-132675333D01*
X241006380Y-132770571D01*
X241006380Y-133008666D01*
X241054000Y-133151523D01*
X241482571Y-133913428D02*
X241530190Y-134056285D01*
X241577809Y-134103904D01*
X241673047Y-134151523D01*
X241815904Y-134151523D01*
X241911142Y-134103904D01*
X241958761Y-134056285D01*
X242006380Y-133961047D01*
X242006380Y-133580095D01*
X241006380Y-133580095D01*
X241006380Y-133913428D01*
X241054000Y-134008666D01*
X241101619Y-134056285D01*
X241196857Y-134103904D01*
X241292095Y-134103904D01*
X241387333Y-134056285D01*
X241434952Y-134008666D01*
X241482571Y-133913428D01*
X241482571Y-133580095D01*
D11*
X190040400Y-144852400D02*
X243440400Y-144852400D01*
X243440400Y-144852400D02*
X243440400Y-121852400D01*
X243440400Y-121852400D02*
X190040400Y-121852400D01*
X190040400Y-121852400D02*
X190040400Y-144852400D01*
D12*
X223055366Y-133644500D02*
X222928366Y-133686833D01*
X222886033Y-133729166D01*
X222843700Y-133813833D01*
X222843700Y-133940833D01*
X222886033Y-134025500D01*
X222928366Y-134067833D01*
X223013033Y-134110166D01*
X223351700Y-134110166D01*
X223351700Y-133221166D01*
X223055366Y-133221166D01*
X222970700Y-133263500D01*
X222928366Y-133305833D01*
X222886033Y-133390500D01*
X222886033Y-133475166D01*
X222928366Y-133559833D01*
X222970700Y-133602166D01*
X223055366Y-133644500D01*
X223351700Y-133644500D01*
X222335700Y-134110166D02*
X222420366Y-134067833D01*
X222462700Y-133983166D01*
X222462700Y-133221166D01*
X221616033Y-133517500D02*
X221616033Y-134110166D01*
X221997033Y-133517500D02*
X221997033Y-133983166D01*
X221954700Y-134067833D01*
X221870033Y-134110166D01*
X221743033Y-134110166D01*
X221658366Y-134067833D01*
X221616033Y-134025500D01*
X220854033Y-134067833D02*
X220938700Y-134110166D01*
X221108033Y-134110166D01*
X221192700Y-134067833D01*
X221235033Y-133983166D01*
X221235033Y-133644500D01*
X221192700Y-133559833D01*
X221108033Y-133517500D01*
X220938700Y-133517500D01*
X220854033Y-133559833D01*
X220811700Y-133644500D01*
X220811700Y-133729166D01*
X221235033Y-133813833D01*
X220430700Y-134110166D02*
X220430700Y-133221166D01*
X220092033Y-133221166D01*
X220007366Y-133263500D01*
X219965033Y-133305833D01*
X219922700Y-133390500D01*
X219922700Y-133517500D01*
X219965033Y-133602166D01*
X220007366Y-133644500D01*
X220092033Y-133686833D01*
X220430700Y-133686833D01*
X219541700Y-134110166D02*
X219541700Y-133517500D01*
X219541700Y-133221166D02*
X219584033Y-133263500D01*
X219541700Y-133305833D01*
X219499366Y-133263500D01*
X219541700Y-133221166D01*
X219541700Y-133305833D01*
X218991366Y-134110166D02*
X219076033Y-134067833D01*
X219118366Y-133983166D01*
X219118366Y-133221166D01*
X218525700Y-134110166D02*
X218610366Y-134067833D01*
X218652700Y-133983166D01*
X218652700Y-133221166D01*
X218398700Y-134194833D02*
X217721366Y-134194833D01*
X217552033Y-134067833D02*
X217425033Y-134110166D01*
X217213366Y-134110166D01*
X217128700Y-134067833D01*
X217086366Y-134025500D01*
X217044033Y-133940833D01*
X217044033Y-133856166D01*
X217086366Y-133771500D01*
X217128700Y-133729166D01*
X217213366Y-133686833D01*
X217382700Y-133644500D01*
X217467366Y-133602166D01*
X217509700Y-133559833D01*
X217552033Y-133475166D01*
X217552033Y-133390500D01*
X217509700Y-133305833D01*
X217467366Y-133263500D01*
X217382700Y-133221166D01*
X217171033Y-133221166D01*
X217044033Y-133263500D01*
X216790033Y-133221166D02*
X216282033Y-133221166D01*
X216536033Y-134110166D02*
X216536033Y-133221166D01*
X215985700Y-134110166D02*
X215985700Y-133221166D01*
X215689366Y-133856166D01*
X215393033Y-133221166D01*
X215393033Y-134110166D01*
X215054366Y-133221166D02*
X214504033Y-133221166D01*
X214800366Y-133559833D01*
X214673366Y-133559833D01*
X214588700Y-133602166D01*
X214546366Y-133644500D01*
X214504033Y-133729166D01*
X214504033Y-133940833D01*
X214546366Y-134025500D01*
X214588700Y-134067833D01*
X214673366Y-134110166D01*
X214927366Y-134110166D01*
X215012033Y-134067833D01*
X215054366Y-134025500D01*
X214165366Y-133305833D02*
X214123033Y-133263500D01*
X214038366Y-133221166D01*
X213826700Y-133221166D01*
X213742033Y-133263500D01*
X213699700Y-133305833D01*
X213657366Y-133390500D01*
X213657366Y-133475166D01*
X213699700Y-133602166D01*
X214207700Y-134110166D01*
X213657366Y-134110166D01*
X212980033Y-133644500D02*
X213276366Y-133644500D01*
X213276366Y-134110166D02*
X213276366Y-133221166D01*
X212853033Y-133221166D01*
X212048700Y-134110166D02*
X212556700Y-134110166D01*
X212302700Y-134110166D02*
X212302700Y-133221166D01*
X212387366Y-133348166D01*
X212472033Y-133432833D01*
X212556700Y-133475166D01*
X211498366Y-133221166D02*
X211413700Y-133221166D01*
X211329033Y-133263500D01*
X211286700Y-133305833D01*
X211244366Y-133390500D01*
X211202033Y-133559833D01*
X211202033Y-133771500D01*
X211244366Y-133940833D01*
X211286700Y-134025500D01*
X211329033Y-134067833D01*
X211413700Y-134110166D01*
X211498366Y-134110166D01*
X211583033Y-134067833D01*
X211625366Y-134025500D01*
X211667700Y-133940833D01*
X211710033Y-133771500D01*
X211710033Y-133559833D01*
X211667700Y-133390500D01*
X211625366Y-133305833D01*
X211583033Y-133263500D01*
X211498366Y-133221166D01*
X210905700Y-133221166D02*
X210355366Y-133221166D01*
X210651700Y-133559833D01*
X210524700Y-133559833D01*
X210440033Y-133602166D01*
X210397700Y-133644500D01*
X210355366Y-133729166D01*
X210355366Y-133940833D01*
X210397700Y-134025500D01*
X210440033Y-134067833D01*
X210524700Y-134110166D01*
X210778700Y-134110166D01*
X210863366Y-134067833D01*
X210905700Y-134025500D01*
X209466366Y-134025500D02*
X209508700Y-134067833D01*
X209635700Y-134110166D01*
X209720366Y-134110166D01*
X209847366Y-134067833D01*
X209932033Y-133983166D01*
X209974366Y-133898500D01*
X210016700Y-133729166D01*
X210016700Y-133602166D01*
X209974366Y-133432833D01*
X209932033Y-133348166D01*
X209847366Y-133263500D01*
X209720366Y-133221166D01*
X209635700Y-133221166D01*
X209508700Y-133263500D01*
X209466366Y-133305833D01*
M02*
