M48
INCH
T1C0.0118
T2C0.0157
T3C0.0236
T4C0.0315
T5C0.0590
T6C0.1200
T7C0.0256
T8C0.0670
T9C0.1200
T10C0.1570
%
G90
G05
T1
X9.5583Y-2.5988
X9.7789Y-5.1313
X9.9228Y-3.4433
X1.8026Y-2.8852
X10.847Y-3.3703
X9.136Y-4.9307
X3.4463Y-4.576
X9.0967Y-4.9307
X7.991Y-3.833
X10.8864Y-3.3703
X0.1224Y-2.4732
X5.1077Y-2.5717
X0.3232Y-2.8882
X4.9098Y-2.9413
X4.4276Y-3.6352
X2.3674Y-4.0335
X6.6776Y-3.6313
X3.9079Y-2.3205
X2.6352Y-2.9417
X0.0205Y-3.1463
X7.2642Y-5.5791
X0.0598Y-3.1069
X0.4297Y-2.9417
X4.2799Y-3.8528
X3.3675Y-4.576
X0.7134Y-5.928
X9.2799Y-2.8852
X10.0797Y-3.4705
X2.6935Y-2.5496
X3.7201Y-5.5813
X1.0409Y-4.8039
X7.3429Y-5.6185
X1.6378Y-5.8659
X10.4335Y-2.0945
X4.2455Y-5.1293
X11.5634Y-3.6346
X9.0419Y-3.0913
X5.3309Y-5.6618
X7.5707Y-4.1039
X9.8614Y-2.6933
X0.7134Y-5.8886
X7.1272Y-2.9461
X10.0079Y-4.8701
X11.1146Y-2.0551
X10.0417Y-1.9429
X8.185Y-1.9299
X8.2148Y-4.8193
X6.2669Y-2.3346
X2.9374Y-3.6352
X0.7937Y-5.1295
X11.5634Y-4.3827
X5.7435Y-5.1283
X1.7163Y-2.3356
X10.3941Y-2.0551
X10.5327Y-2.3484
X-0.0557Y-4.3754
X5.3309Y-5.6224
X4.8311Y-3.0949
X0.7524Y-3.4463
X0.6736Y-3.4856
X5.3813Y-4.3803
X10.3941Y-2.0157
X10.4728Y-2.0551
X10.6179Y-4.1063
X2.5496Y-3.1008
X10.0472Y-4.9488
X10.7059Y-2.6535
X1.0409Y-4.8827
X8.7346Y-5.1293
X1.41Y-4.5921
X5.3309Y-5.5831
X2.6746Y-2.9417
X0.297Y-5.2888
X4.6965Y-2.326
X8.3193Y-3.1024
X0.713Y-3.4463
X7.7935Y-4.5959
X0.674Y-5.928
X2.0835Y-3.8557
X8.7764Y-3.8409
X5.9266Y-3.6333
X6.963Y-3.0909
X0.6077Y-4.3803
X8.4843Y-3.9721
X0.713Y-3.4069
X10.4539Y-2.3484
X9.5583Y-2.5594
X3.4922Y-4.7906
X8.4449Y-3.9721
X2.5959Y-5.5644
X5.6537Y-4.5693
X9.136Y-4.852
X10.847Y-3.4096
X3.6413Y-5.5813
X7.4197Y-3.6372
X1.4463Y-3.6333
X0.0598Y-3.1856
X4.925Y-2.7013
X7.2642Y-5.6579
X9.4795Y-2.6382
X5.9543Y-5.8776
X7.0417Y-3.0909
X5.1077Y-2.6111
X7.9596Y-4.8067
X-0.0189Y-3.1856
X4.8705Y-3.0949
X3.5014Y-5.1303
X9.0573Y-4.8913
X7.5073Y-2.3663
X3.6413Y-5.66
X2.4807Y-2.3189
X10.5785Y-4.1457
X2.6352Y-5.5644
X8.6976Y-3.8409
X6.9426Y-4.0734
X0.8539Y-4.1122
X3.52Y-4.7628
X9.1207Y-3.0913
X4.2406Y-3.8528
X1.4063Y-5.8807
X1.6376Y-2.3356
X-0.0557Y-4.336
X1.1197Y-4.8433
X1.5984Y-5.8659
X7.7539Y-4.5965
X9.0573Y-4.9307
X9.7831Y-2.0996
X6.9426Y-3.9946
X4.0407Y-2.8892
X7.3035Y-5.6185
X10.5327Y-2.3878
X0.0831Y-2.4339
X6.1882Y-2.3346
X5.4634Y-2.3232
X-0.025Y-5.5516
X0.9421Y-2.3266
X9.4795Y-2.5594
X6.2878Y-2.8833
X0.2197Y-3.8159
X2.5959Y-5.525
X3.215Y-2.322
X0.2577Y-5.3281
X7.5985Y-4.0761
X0.7752Y-4.0728
X10.4098Y-2.8833
X10.0866Y-4.9094
X8.2736Y-5.8701
X3.6413Y-5.6207
X0.7752Y-4.1516
X10.7453Y-2.6142
X0.4691Y-2.9417
X10.6665Y-2.6929
X1.6378Y-5.9053
X1.6772Y-5.8659
X6.1264Y-4.3813
X0.8539Y-4.1516
X8.1717Y-3.6333
X9.8614Y-2.6539
X2.5959Y-5.6037
X1.6274Y-4.3783
X10.8114Y-5.1283
X8.2148Y-4.8587
X9.8835Y-3.4433
X9.9008Y-5.8819
X1.0803Y-4.8039
X10.8864Y-3.4096
X4.1618Y-3.8528
X10.8077Y-3.3309
X0.0831Y-2.4732
X10.4539Y-2.3878
X4.9492Y-2.9413
X11.1146Y-2.0157
X3.8852Y-4.3813
X3.6825Y-3.6313
X2.5565Y-5.525
X2.3952Y-4.0057
X2.5565Y-5.6037
X3.9472Y-2.3205
X7.7819Y-2.8823
X5.2915Y-5.6618
X10.0797Y-3.5098
X10.0866Y-4.9488
X7.3035Y-5.5791
X0.7524Y-3.4856
X10.5785Y-4.1063
X3.6807Y-5.66
X10.4335Y-2.0157
X7.1927Y-2.375
X1.4494Y-4.5921
X10.0079Y-4.9094
X10.0797Y-3.5492
X2.6935Y-2.5102
X3.7201Y-5.6207
X10.4933Y-2.3091
X2.5102Y-3.1008
X5.7325Y-4.5693
X11.5591Y-2.8858
X0.7528Y-5.8886
X4.7358Y-2.326
X9.963Y-1.9429
X7.1665Y-2.9461
X9.3236Y-5.8791
X0.8146Y-4.0728
X9.5189Y-2.5594
X5.7312Y-4.7847
X7.586Y-2.3663
X2.0063Y-5.1293
X9.0303Y-2.0157
X11.5594Y-5.1272
X6.4915Y-5.1274
X1.0409Y-4.8433
X3.1756Y-2.322
X0.9028Y-2.3266
X10.4335Y-2.0551
X9.5189Y-2.6382
X0.0437Y-2.3945
X2.4413Y-2.3189
X0.8146Y-4.1122
X6.9426Y-4.034
X4.7917Y-3.0949
X8.3587Y-3.1024
X10.4933Y-2.3484
X9.0573Y-4.852
X7.9657Y-5.8807
X9.1224Y-4.3803
X10.7228Y-5.8854
X0.1224Y-2.3945
X7.6283Y-4.3813
X1.3707Y-4.5921
X5.3703Y-5.5831
X-0.0189Y-3.1069
X10.5392Y-4.1457
X0.8146Y-4.1516
X2.0441Y-3.8557
X10.7059Y-2.6929
X4.5825Y-4.1035
X8.9307Y-3.6331
X5.424Y-2.3232
X1.1197Y-4.8039
X7.3382Y-2.2055
X4.2012Y-3.8528
X6.9236Y-3.0909
X7.5467Y-2.3663
X7.8329Y-4.5959
X1.0555Y-2.8852
X10.8077Y-3.3703
X9.136Y-4.8913
X10.4539Y-2.3091
X3.4856Y-4.576
X8.4056Y-3.9721
X10.8864Y-3.3309
X5.6144Y-4.5693
X10.8077Y-3.4096
X3.6807Y-5.5813
X4.925Y-2.6619
X10.5392Y-4.1063
X0.5063Y-3.6352
X7.9846Y-5.1264
X0.0205Y-3.1856
X5.1766Y-3.6333
X7.114Y-2.375
X7.2642Y-5.6185
X2.3396Y-4.0614
X7.0378Y-2.8823
X5.1429Y-5.8807
X10.34Y-4.3793
X7.0024Y-3.0909
X1.5984Y-5.9053
X2.714Y-2.9417
X5.759Y-4.7569
X-0.0189Y-3.1463
X11.1146Y-2.0945
X3.1362Y-4.3793
X0.1803Y-3.8159
X9.0967Y-4.8913
X1.9654Y-3.8557
X2.6935Y-2.589
X2.6352Y-5.6037
X3.4069Y-4.576
X9.0813Y-3.0913
X5.3703Y-5.6618
X0.4713Y-5.8799
X4.8705Y-2.9413
X10.0472Y-4.8701
X10.0024Y-1.9429
X10.6665Y-2.6142
X8.2148Y-4.7799
X6.2276Y-2.3346
X4.7898Y-2.8872
X5.2915Y-5.5831
X4.9935Y-5.1293
X9.0354Y-1.9291
X7.0878Y-2.9461
X1.677Y-2.3356
X10.3941Y-2.0945
X-0.025Y-5.4728
X7.991Y-3.8724
X0.9815Y-2.3266
X9.5189Y-2.5988
X0.2591Y-3.8159
X2.6352Y-5.525
X0.7524Y-3.4069
X0.713Y-3.4856
X10.4728Y-2.0157
X9.9228Y-3.4039
X10.6008Y-3.6313
X10.0472Y-4.9094
X5.3703Y-5.6224
X10.7453Y-2.6929
X3.6807Y-5.6207
X0.7752Y-4.1122
X1.0803Y-4.8827
X10.7059Y-2.6142
X0.3904Y-2.9417
X10.6665Y-2.6535
X0.6736Y-3.4463
X1.1197Y-4.8827
X4.6103Y-4.0757
X9.8614Y-2.6146
X3.4644Y-4.8185
X2.339Y-5.8768
X9.8835Y-3.4039
X3.2543Y-2.322
X1.3313Y-4.5921
X0.0205Y-3.1069
X7.2396Y-5.1274
X10.847Y-3.3309
X0.0437Y-2.4339
X4.6343Y-4.3823
X0.6736Y-3.4069
X4.7524Y-3.0949
X2.5565Y-5.5644
X8.737Y-3.8409
X2.5535Y-2.8872
X8.5339Y-2.8872
X5.2915Y-5.6224
X9.0967Y-4.852
X2.3902Y-4.3803
X10.4728Y-2.0945
X4.925Y-2.7406
X7.3429Y-5.5791
X7.9875Y-4.7788
X0.674Y-5.8886
X9.6886Y-3.6358
X9.0697Y-2.0157
X3.7201Y-5.66
X10.5327Y-2.3091
X8.398Y-3.1024
X2.4709Y-3.1008
X11.5646Y-5.8768
X5.6931Y-4.5693
X11.0781Y-3.4394
X2.402Y-2.3189
X10.6179Y-4.1457
X0.7528Y-5.928
X4.6571Y-2.326
X4.6382Y-4.0478
X7.4169Y-2.2055
X7.3429Y-5.6579
X0.8539Y-4.0728
X5.7033Y-4.8126
X9.16Y-3.0913
X2.7553Y-5.1293
X8.9909Y-2.0157
X10.9915Y-4.6244
X8.0153Y-4.751
X1.0803Y-4.8433
X9.5583Y-2.6382
X0.0831Y-2.3945
X2.1864Y-3.6352
X10.4933Y-2.3878
X7.3776Y-2.2055
X-0.025Y-5.5122
X7.1533Y-2.375
X0.0598Y-3.1463
X7.3035Y-5.6579
X0.1224Y-2.4339
X9.4795Y-2.5988
X5.5348Y-2.8872
X-0.0557Y-4.2967
X3.9866Y-2.3205
X7.6263Y-4.0482
X8.3734Y-4.3813
X2.589Y-3.1008
X0.2183Y-5.3675
X3.3242Y-2.8852
X8.7689Y-5.8803
X5.5028Y-2.3232
X2.0047Y-3.8557
X10.7453Y-2.6535
X10.9915Y-4.5929
X1.6772Y-5.9053
X6.8774Y-4.3813
T2
X-0.1213Y-4.8354
X-0.1103Y-2.7768
X0.0181Y-3.5528
X0.1917Y-4.5004
X0.2413Y-4.9681
X0.3469Y-2.7583
X0.465Y-5.7563
X0.5339Y-3.5083
X0.6264Y-4.2563
X0.661Y-3.0075
X0.6992Y-2.8862
X0.7579Y-5.3803
X0.8154Y-5.0043
X1.0323Y-3.7559
X1.035Y-5.8799
X1.0732Y-3.6343
X1.0929Y-2.7583
X1.213Y-4.5004
X1.2602Y-4.3823
X1.402Y-5.7524
X1.4055Y-3.0075
X1.4453Y-2.8843
X1.4689Y-3.5063
X1.5839Y-5.2524
X1.6362Y-5.1303
X1.6559Y-4.2543
X1.7677Y-5.2524
X1.7764Y-3.7559
X1.8193Y-3.6343
X1.839Y-2.7602
X1.9508Y-4.5004
X1.9744Y-5.8744
X2.0083Y-4.3823
X2.0299Y-5.0043
X2.1539Y-3.0075
X2.1933Y-2.8862
X2.215Y-3.5083
X2.3402Y-5.7492
X2.3425Y-5.2524
X2.3843Y-5.1303
X2.4039Y-4.2543
X2.5331Y-3.7559
X2.5693Y-3.6343
X2.589Y-2.7602
X2.5917Y-5.252
X2.7154Y-4.5004
X2.7563Y-4.3803
X2.7799Y-5.0043
X2.8976Y-3.0075
X2.9394Y-2.8882
X2.965Y-3.5083
X3.1323Y-5.1303
X3.152Y-4.2583
X3.2776Y-3.7559
X3.3173Y-3.6343
X3.335Y-2.7583
X3.4642Y-4.5004
X3.5063Y-4.3823
X3.526Y-5.0043
X3.6492Y-3.0075
X3.6874Y-2.8862
X3.713Y-3.5063
X3.8303Y-5.252
X3.8783Y-5.1303
X3.9Y-4.2563
X4.0319Y-3.7559
X4.0654Y-3.6343
X4.0831Y-2.7602
X4.2146Y-4.5004
X4.2543Y-4.3823
X4.274Y-5.0043
X4.2772Y-5.252
X4.3965Y-3.0075
X4.4354Y-2.8862
X4.461Y-3.5063
X4.5858Y-5.252
X4.6264Y-5.1303
X4.65Y-4.2563
X4.7709Y-5.8791
X4.774Y-3.7559
X4.8134Y-3.6343
X4.8311Y-2.7602
X4.9559Y-4.5004
X5.0024Y-4.3803
X5.022Y-5.0043
X5.1299Y-3.0075
X5.1433Y-5.7559
X5.1835Y-2.8862
X5.2091Y-3.5083
X5.3287Y-5.252
X5.3744Y-5.1283
X5.398Y-4.2563
X5.5059Y-5.252
X5.5213Y-3.7559
X5.5614Y-3.6343
X5.5772Y-2.7583
X5.5823Y-5.8752
X5.7114Y-4.5004
X5.7504Y-4.3823
X5.7701Y-5.0043
X5.8941Y-3.0075
X5.9315Y-2.8862
X5.9484Y-5.7543
X5.9571Y-3.5063
X6.0854Y-5.252
X6.1224Y-5.1283
X6.1461Y-4.2563
X6.2654Y-3.7555
X6.3094Y-3.6343
X6.3272Y-2.7622
X6.4524Y-4.5004
X6.4984Y-4.3823
X6.5161Y-5.0043
X6.6063Y-5.252
X6.637Y-3.0075
X6.6795Y-2.8862
X6.7051Y-3.5083
X6.8705Y-5.1283
X6.8941Y-4.2563
X7.0147Y-3.7557
X7.0575Y-3.6343
X7.0732Y-2.7622
X7.1Y-5.4409
X7.2063Y-4.5004
X7.2465Y-4.3823
X7.2661Y-5.0024
X7.3764Y-3.0075
X7.4256Y-2.8862
X7.4531Y-3.5083
X7.5728Y-5.2496
X7.5913Y-5.8787
X7.6185Y-5.1283
X7.6421Y-4.2563
X7.7657Y-3.7559
X7.8055Y-3.6343
X7.8118Y-2.2276
X7.8209Y-1.9433
X7.8213Y-2.7622
X7.9563Y-4.5004
X7.963Y-5.7512
X7.9945Y-4.3823
X8.0142Y-5.0043
X8.0465Y-5.2496
X8.0898Y-2.174
X8.1323Y-3.0075
X8.1736Y-2.8862
X8.2012Y-3.5063
X8.2516Y-1.9433
X8.3264Y-5.2496
X8.3665Y-5.1303
X8.3902Y-4.2543
X8.3992Y-5.8768
X8.5154Y-3.7559
X8.5209Y-2.1063
X8.5445Y-2.297
X8.548Y-2.0811
X8.5535Y-2.1717
X8.5535Y-3.6343
X8.5539Y-2.2138
X8.5614Y-2.2705
X8.5713Y-2.7622
X8.5756Y-2.1035
X8.6012Y-2.0787
X8.628Y-2.1039
X8.6295Y-2.4055
X8.652Y-3.0075
X8.6524Y-2.0791
X8.6575Y-2.3854
X8.6866Y-2.4059
X8.6996Y-4.5004
X8.7189Y-2.3858
X8.7299Y-2.0776
X8.7425Y-4.3803
X8.7622Y-5.0043
X8.7638Y-2.074
X8.7713Y-5.7496
X8.7984Y-2.0728
X8.8016Y-2.0398
X8.8047Y-2.0055
X8.8465Y-2.002
X8.8803Y-3.0075
X8.9217Y-2.8862
X8.9492Y-3.5083
X8.9496Y-5.8756
X9.0201Y-4.6768
X9.1402Y-4.2563
X9.2634Y-3.7559
X9.3016Y-3.6343
X9.3193Y-2.7593
X9.324Y-5.7528
X9.3563Y-5.248
X9.399Y-5.1293
X9.5228Y-5.8791
X9.6917Y-1.9528
X9.6953Y-3.5083
X9.7957Y-5.0024
X9.9028Y-5.7508
X9.9512Y-3.0169
X9.9571Y-4.3803
X10.035Y-4.5717
X10.0449Y-2.885
X10.0634Y-2.0843
X10.1039Y-2.2181
X10.1791Y-5.2496
X10.1941Y-3.7559
X10.2366Y-3.6343
X10.3476Y-5.8819
X10.3567Y-4.2553
X10.3839Y-5.2496
X10.4325Y-5.1303
X10.4463Y-2.7583
X10.6352Y-3.5083
X10.7228Y-5.7583
X10.7622Y-2.113
X10.8181Y-2.0584
X10.8204Y-2.004
X10.8281Y-5.0033
X10.8618Y-3.0913
X10.8673Y-4.5535
X10.9165Y-2.4705
X10.9433Y-3.8457
X10.9764Y-2.5303
X11.1118Y-5.2496
X11.1776Y-2.8892
X11.1785Y-3.6343
X11.1785Y-4.3803
X11.1805Y-5.1274
X11.1945Y-5.8787
X11.5949Y-2.7449
X11.6106Y-3.4646
X11.6114Y-4.9681
X11.6228Y-5.7051
X11.6264Y-4.224
T4
X9.1528Y-1.9728
X9.5358Y-1.9831
T5
X8.4161Y-4.7774
X8.6661Y-4.6774
X7.2961Y-4.0295
X7.5461Y-3.9295
X5.052Y-4.0295
X5.302Y-3.9295
X8.9717Y-2.5339
X9.2217Y-2.4339
X5.9807Y-2.5339
X6.2307Y-2.4339
X9.4492Y-4.777
X9.6992Y-4.677
X4.115Y-3.2815
X4.365Y-3.1815
X5.8Y-4.0295
X6.05Y-3.9295
X10.0103Y-4.0291
X10.2603Y-3.9291
X0.0835Y-5.5281
X0.1772Y-5.5281
X0.3335Y-5.4281
X0.4272Y-5.4281
X1.0205Y-5.5272
X1.1146Y-5.527
X1.2705Y-5.4272
X1.3646Y-5.427
X1.9575Y-5.5272
X2.0516Y-5.527
X2.2075Y-5.4272
X2.3016Y-5.427
X4.7675Y-5.5272
X4.8608Y-5.5266
X5.0175Y-5.4272
X5.1108Y-5.4266
X5.6152Y-5.5262
X5.8644Y-5.4262
X7.4929Y-5.5262
X7.5805Y-5.5272
X7.7429Y-5.4262
X7.7705Y-5.5262
X7.8305Y-5.4272
X8.0205Y-5.4262
X8.2409Y-5.5262
X8.4909Y-5.4262
X8.5175Y-5.5272
X8.613Y-5.5262
X8.7675Y-5.4272
X8.863Y-5.4262
X8.989Y-5.5262
X9.239Y-5.4262
X9.361Y-5.5262
X9.4545Y-5.5272
X9.611Y-5.4262
X9.7045Y-5.4272
X9.737Y-5.5262
X9.987Y-5.4262
X10.298Y-5.5262
X10.3915Y-5.5272
X10.485Y-5.5262
X10.548Y-5.4262
X10.6415Y-5.4272
X10.735Y-5.4262
X7.6681Y-4.7772
X7.9181Y-4.6772
X0.1886Y-3.2819
X0.4386Y-3.1819
X0.2807Y-4.0299
X0.5307Y-3.9299
X2.4339Y-4.7776
X2.6839Y-4.6776
X10.0952Y-2.5333
X10.3452Y-2.4333
X0.0012Y-2.5343
X0.2512Y-2.4343
X7.1071Y-3.2815
X7.3571Y-3.1815
X10.4823Y-4.7764
X10.7323Y-4.6764
X5.2327Y-2.5339
X5.4827Y-2.4339
X8.2236Y-2.5339
X8.4736Y-2.4339
X1.1228Y-3.2815
X1.3728Y-3.1815
X1.6854Y-4.778
X1.9354Y-4.678
X8.0441Y-4.0295
X8.2941Y-3.9295
X7.8551Y-3.2815
X8.1051Y-3.1815
X8.7921Y-4.0291
X9.0421Y-3.9291
X7.4752Y-2.5339
X7.7252Y-2.4339
X4.4846Y-2.5339
X4.7346Y-2.4339
X1.8697Y-3.2819
X2.1197Y-3.1819
X8.6031Y-3.2819
X8.8531Y-3.1819
X3.1807Y-4.778
X3.4307Y-4.678
X5.611Y-3.2815
X5.861Y-3.1815
X2.2425Y-2.5339
X2.4925Y-2.4339
X6.9201Y-4.7772
X7.1701Y-4.6772
X3.5555Y-4.0295
X3.8055Y-3.9295
X4.6756Y-4.778
X4.9256Y-4.678
X4.3035Y-4.0295
X4.5535Y-3.9295
X1.4949Y-2.5331
X1.7449Y-2.4331
X1.3098Y-4.0295
X1.5598Y-3.9295
X0.4684Y-4.7774
X0.7184Y-4.6774
X3.737Y-2.5335
X3.987Y-2.4335
X6.172Y-4.7776
X6.422Y-4.6776
X6.3591Y-3.2815
X6.6091Y-3.1815
X2.6189Y-3.2815
X2.8689Y-3.1815
X10.2892Y-3.2823
X10.5392Y-3.1823
X11.2274Y-2.5323
X11.4774Y-2.4323
X11.2317Y-5.526
X11.4817Y-5.426
X6.728Y-2.5339
X6.978Y-2.4339
X0.7476Y-2.5339
X0.9976Y-2.4339
X6.548Y-4.0299
X6.798Y-3.9299
X11.2293Y-3.2813
X11.4793Y-3.1813
X11.2311Y-4.7764
X11.4811Y-4.6764
X5.424Y-4.7776
X5.674Y-4.6776
X3.9276Y-4.778
X4.1776Y-4.678
X2.8067Y-4.0295
X3.0567Y-3.9295
X11.2303Y-4.0293
X11.4803Y-3.9293
X4.863Y-3.2815
X5.113Y-3.1815
X3.3669Y-3.2815
X3.6169Y-3.1815
X9.3512Y-3.2819
X9.6012Y-3.1819
X2.0575Y-4.0299
X2.3075Y-3.9299
X2.989Y-2.5339
X3.239Y-2.4339
T6
X6.2646Y-5.6165
X10.836Y-3.7376
X-0.0524Y-2.0787
X11.5854Y-2.0787
X0.0319Y-3.7346
X3.8882Y-5.624
X10.9949Y-5.6191
X0.736Y-5.6201
T7
X9.8969Y-2.0866
X10.1244Y-2.0866
T8
X5.9307Y-2.6339
X6.3307Y-2.6339
X9.3992Y-4.877
X9.7992Y-4.877
X4.065Y-3.3815
X4.465Y-3.3815
X5.75Y-4.1295
X6.15Y-4.1295
X9.9603Y-4.1291
X10.3603Y-4.1291
X0.0335Y-5.6281
X0.1272Y-5.6281
X0.4335Y-5.6281
X0.5272Y-5.6281
X0.9705Y-5.6272
X1.0646Y-5.627
X1.3705Y-5.6272
X1.4646Y-5.627
X1.9075Y-5.6272
X2.0016Y-5.627
X2.3075Y-5.6272
X2.4016Y-5.627
X4.7175Y-5.6272
X4.8108Y-5.6266
X5.1175Y-5.6272
X5.2108Y-5.6266
X5.5652Y-5.6262
X5.9652Y-5.6262
X7.4429Y-5.6262
X7.5305Y-5.6272
X7.8429Y-5.6262
X8.1205Y-5.6262
X8.1909Y-5.6262
X8.4675Y-5.6272
X8.563Y-5.6262
X8.5909Y-5.6262
X8.8675Y-5.6272
X8.939Y-5.6262
X8.963Y-5.6262
X9.311Y-5.6262
X9.339Y-5.6262
X9.4045Y-5.6272
X9.687Y-5.6262
X9.711Y-5.6262
X9.8045Y-5.6272
X10.087Y-5.6262
X10.248Y-5.6262
X10.3415Y-5.6272
X10.7415Y-5.6272
X10.835Y-5.6262
X7.6181Y-4.8772
X8.0181Y-4.8772
X0.1386Y-3.3819
X0.5386Y-3.3819
X0.2307Y-4.1299
X0.6307Y-4.1299
X2.3839Y-4.8776
X2.7839Y-4.8776
X10.0452Y-2.6333
X10.4452Y-2.6333
X-0.0488Y-2.6343
X0.3512Y-2.6343
X7.0571Y-3.3815
X7.4571Y-3.3815
X10.4323Y-4.8764
X10.8323Y-4.8764
X5.1827Y-2.6339
X5.5827Y-2.6339
X8.1736Y-2.6339
X8.5736Y-2.6339
X1.0728Y-3.3815
X1.4728Y-3.3815
X1.6354Y-4.878
X2.0354Y-4.878
X7.9941Y-4.1295
X8.3941Y-4.1295
X7.8051Y-3.3815
X8.2051Y-3.3815
X8.7421Y-4.1291
X9.1421Y-4.1291
X7.4252Y-2.6339
X7.8252Y-2.6339
X4.4346Y-2.6339
X4.8346Y-2.6339
X1.8197Y-3.3819
X2.2197Y-3.3819
X8.5531Y-3.3819
X8.9531Y-3.3819
X3.1307Y-4.878
X3.5307Y-4.878
X5.561Y-3.3815
X5.961Y-3.3815
X2.1925Y-2.6339
X2.5925Y-2.6339
X6.8701Y-4.8772
X7.2701Y-4.8772
X3.5055Y-4.1295
X3.9055Y-4.1295
X4.6256Y-4.878
X5.0256Y-4.878
X4.2535Y-4.1295
X4.6535Y-4.1295
X1.4449Y-2.6331
X1.8449Y-2.6331
X1.2598Y-4.1295
X1.6598Y-4.1295
X0.4184Y-4.8774
X0.8184Y-4.8774
X3.687Y-2.6335
X4.087Y-2.6335
X6.122Y-4.8776
X6.522Y-4.8776
X6.3091Y-3.3815
X6.7091Y-3.3815
X2.5689Y-3.3815
X2.9689Y-3.3815
X10.2392Y-3.3823
X10.6392Y-3.3823
X11.1774Y-2.6323
X11.5774Y-2.6323
X11.1817Y-5.626
X11.5817Y-5.626
X6.678Y-2.6339
X7.078Y-2.6339
X0.6976Y-2.6339
X1.0976Y-2.6339
X6.498Y-4.1299
X6.898Y-4.1299
X11.1793Y-3.3813
X11.5793Y-3.3813
X11.1811Y-4.8764
X11.5811Y-4.8764
X5.374Y-4.8776
X5.774Y-4.8776
X3.8776Y-4.878
X4.2776Y-4.878
X2.7567Y-4.1295
X3.1567Y-4.1295
X11.1803Y-4.1293
X11.5803Y-4.1293
X4.813Y-3.3815
X5.213Y-3.3815
X3.3169Y-3.3815
X3.7169Y-3.3815
X9.3012Y-3.3819
X9.7012Y-3.3819
X2.0075Y-4.1299
X2.4075Y-4.1299
X2.939Y-2.6339
X3.339Y-2.6339
X8.3661Y-4.8774
X8.7661Y-4.8774
X7.2461Y-4.1295
X7.6461Y-4.1295
X5.002Y-4.1295
X5.402Y-4.1295
X8.9217Y-2.6339
X9.3217Y-2.6339
T9
X9.6903Y-3.8541
X10.6303Y-3.8541
X2.9475Y-5.9022
X3.1402Y-5.901
X6.8875Y-5.9022
X7.073Y-5.9016
X9.7752Y-2.3583
X10.7152Y-2.3583
X0.1484Y-4.6024
X1.0884Y-4.6024
T10
X4.0776Y-4.878
X2.9567Y-4.1295
X11.3803Y-4.1293
X5.013Y-3.3815
X3.5169Y-3.3815
X9.5012Y-3.3819
X2.2075Y-4.1299
X3.139Y-2.6339
X8.5661Y-4.8774
X7.4461Y-4.1295
X5.202Y-4.1295
X9.1217Y-2.6339
X6.1307Y-2.6339
X9.5992Y-4.877
X4.265Y-3.3815
X5.95Y-4.1295
X9.6903Y-4.4541
X10.1603Y-4.1291
X10.6303Y-4.4541
X0.2335Y-5.6281
X0.3272Y-5.6281
X1.1705Y-5.6272
X1.2646Y-5.627
X2.1075Y-5.6272
X2.2016Y-5.627
X2.9475Y-5.3022
X3.1402Y-5.3012
X4.9175Y-5.6272
X5.0108Y-5.6266
X5.7652Y-5.6262
X6.8875Y-5.3022
X7.073Y-5.3016
X7.6429Y-5.6262
X7.7305Y-5.6272
X7.9205Y-5.6262
X8.3909Y-5.6262
X8.6675Y-5.6272
X8.763Y-5.6262
X9.139Y-5.6262
X9.511Y-5.6262
X9.6045Y-5.6272
X9.887Y-5.6262
X10.448Y-5.6262
X10.5415Y-5.6272
X10.635Y-5.6262
X7.8181Y-4.8772
X0.3386Y-3.3819
X0.4307Y-4.1299
X2.5839Y-4.8776
X9.7752Y-2.9583
X10.2452Y-2.6333
X10.7152Y-2.9583
X0.1512Y-2.6343
X7.2571Y-3.3815
X10.6323Y-4.8764
X5.3827Y-2.6339
X8.3736Y-2.6339
X1.2728Y-3.3815
X1.8354Y-4.878
X8.1941Y-4.1295
X8.0051Y-3.3815
X8.9421Y-4.1291
X7.6252Y-2.6339
X4.6346Y-2.6339
X2.0197Y-3.3819
X8.7531Y-3.3819
X3.3307Y-4.878
X5.761Y-3.3815
X2.3925Y-2.6339
X7.0701Y-4.8772
X3.7055Y-4.1295
X4.8256Y-4.878
X4.4535Y-4.1295
X1.6449Y-2.6331
X1.4598Y-4.1295
X0.1484Y-5.2024
X0.6184Y-4.8774
X1.0884Y-5.2024
X3.887Y-2.6335
X6.322Y-4.8776
X6.5091Y-3.3815
X2.7689Y-3.3815
X10.4392Y-3.3823
X11.3774Y-2.6323
X11.3817Y-5.626
X6.878Y-2.6339
X0.8976Y-2.6339
X6.698Y-4.1299
X11.3793Y-3.3813
X11.3811Y-4.8764
X5.574Y-4.8776
T3
G00X9.8406Y-1.9311
M15
G01X9.8406Y-1.9547
M16
G05
G00X9.8406Y-2.0858
M15
G01X9.8406Y-2.1291
M16
G05
G00X10.1807Y-1.9311
M15
G01X10.1807Y-1.9547
M16
G05
G00X10.1807Y-2.0858
M15
G01X10.1807Y-2.1291
M16
G05
T0
M30
