G04 #@! TF.GenerationSoftware,KiCad,Pcbnew,5.1.5*
G04 #@! TF.CreationDate,2020-04-09T00:31:28+02:00*
G04 #@! TF.ProjectId,FullKeyboardV1,46756c6c-4b65-4796-926f-61726456312e,rev?*
G04 #@! TF.SameCoordinates,Original*
G04 #@! TF.FileFunction,Profile,NP*
%FSLAX46Y46*%
G04 Gerber Fmt 4.6, Leading zero omitted, Abs format (unit mm)*
G04 Created by KiCad (PCBNEW 5.1.5) date 2020-04-09 00:31:28*
%MOMM*%
%LPD*%
G04 APERTURE LIST*
%ADD10C,0.150000*%
G04 APERTURE END LIST*
D10*
X299275390Y-149549610D02*
G75*
G02X296075000Y-152750000I-3200390J0D01*
G01*
X296074610Y-47824610D02*
G75*
G02X299275000Y-51025000I0J-3200390D01*
G01*
X-3125000Y-152750000D02*
G75*
G02X-6325390Y-149549610I0J3200390D01*
G01*
X-6325390Y-51025000D02*
G75*
G02X-3125000Y-47824610I3200390J0D01*
G01*
X296075000Y-47824610D02*
X-3125000Y-47824610D01*
X299275390Y-149549610D02*
X299275390Y-51025000D01*
X-3125000Y-152750000D02*
X296075000Y-152750000D01*
X-6325390Y-149549610D02*
X-6325390Y-51025000D01*
X53900000Y-88200000D02*
X53900000Y-93300000D01*
X48600000Y-88200000D02*
X48600000Y-93300000D01*
X53900000Y-93300000D02*
X48600000Y-93300000D01*
X48600000Y-88200000D02*
X53900000Y-88200000D01*
X96720000Y-107190000D02*
X96720000Y-112290000D01*
X91420000Y-107190000D02*
X91420000Y-112290000D01*
X96720000Y-112290000D02*
X91420000Y-112290000D01*
X91420000Y-107190000D02*
X96720000Y-107190000D01*
X123225000Y-145265000D02*
X128525000Y-145265000D01*
X128525000Y-150365000D02*
X123225000Y-150365000D01*
X123225000Y-145265000D02*
X123225000Y-150365000D01*
X128525000Y-145265000D02*
X128525000Y-150365000D01*
X143710000Y-145205000D02*
X149010000Y-145205000D01*
X149010000Y-150305000D02*
X143710000Y-150305000D01*
X143710000Y-145205000D02*
X143710000Y-150305000D01*
X149010000Y-145205000D02*
X149010000Y-150305000D01*
X4480000Y-145280000D02*
X4480000Y-150380000D01*
X4480000Y-145280000D02*
X9780000Y-145280000D01*
X9780000Y-150380000D02*
X4480000Y-150380000D01*
X9780000Y-145280000D02*
X9780000Y-150380000D01*
X52170000Y-145200000D02*
X57470000Y-145200000D01*
X57470000Y-150300000D02*
X52170000Y-150300000D01*
X52170000Y-145200000D02*
X52170000Y-150300000D01*
X57470000Y-145200000D02*
X57470000Y-150300000D01*
X28295000Y-145225000D02*
X28295000Y-150325000D01*
X33595000Y-150325000D02*
X28295000Y-150325000D01*
X28295000Y-145225000D02*
X33595000Y-145225000D01*
X33595000Y-145225000D02*
X33595000Y-150325000D01*
X264955000Y-145380000D02*
X264955000Y-150480000D01*
X270255000Y-145380000D02*
X270255000Y-150480000D01*
X270255000Y-150480000D02*
X264955000Y-150480000D01*
X264955000Y-145380000D02*
X270255000Y-145380000D01*
X249380000Y-145230000D02*
X249380000Y-150330000D01*
X249380000Y-150330000D02*
X244080000Y-150330000D01*
X244080000Y-145230000D02*
X249380000Y-145230000D01*
X244080000Y-145230000D02*
X244080000Y-150330000D01*
X215455000Y-145205000D02*
X215455000Y-150305000D01*
X215455000Y-145205000D02*
X220755000Y-145205000D01*
X220755000Y-150305000D02*
X215455000Y-150305000D01*
X220755000Y-145205000D02*
X220755000Y-150305000D01*
X229430000Y-145205000D02*
X229430000Y-150305000D01*
X229430000Y-145205000D02*
X234730000Y-145205000D01*
X234730000Y-150305000D02*
X229430000Y-150305000D01*
X234730000Y-145205000D02*
X234730000Y-150305000D01*
X200130000Y-150330000D02*
X194830000Y-150330000D01*
X194830000Y-145230000D02*
X200130000Y-145230000D01*
X200130000Y-145230000D02*
X200130000Y-150330000D01*
X194830000Y-145230000D02*
X194830000Y-150330000D01*
X260672000Y-107180000D02*
X260672000Y-112280000D01*
X255372000Y-107180000D02*
X255372000Y-112280000D01*
X260672000Y-112280000D02*
X255372000Y-112280000D01*
X255372000Y-107180000D02*
X260672000Y-107180000D01*
X148930000Y-88190000D02*
X148930000Y-93290000D01*
X143630000Y-88190000D02*
X143630000Y-93290000D01*
X148930000Y-93290000D02*
X143630000Y-93290000D01*
X143630000Y-88190000D02*
X148930000Y-88190000D01*
X291695000Y-145200000D02*
X291695000Y-150300000D01*
X286395000Y-145200000D02*
X286395000Y-150300000D01*
X291695000Y-150300000D02*
X286395000Y-150300000D01*
X286395000Y-145200000D02*
X291695000Y-145200000D01*
X291680000Y-126160000D02*
X291680000Y-131260000D01*
X286380000Y-126160000D02*
X286380000Y-131260000D01*
X291680000Y-131260000D02*
X286380000Y-131260000D01*
X286380000Y-126160000D02*
X291680000Y-126160000D01*
X291660000Y-107185000D02*
X291660000Y-112285000D01*
X286360000Y-107185000D02*
X286360000Y-112285000D01*
X291660000Y-112285000D02*
X286360000Y-112285000D01*
X286360000Y-107185000D02*
X291660000Y-107185000D01*
X291635000Y-88185000D02*
X291635000Y-93285000D01*
X286335000Y-88185000D02*
X286335000Y-93285000D01*
X291635000Y-93285000D02*
X286335000Y-93285000D01*
X286335000Y-88185000D02*
X291635000Y-88185000D01*
X291585000Y-69160000D02*
X291585000Y-74260000D01*
X286285000Y-69160000D02*
X286285000Y-74260000D01*
X291585000Y-74260000D02*
X286285000Y-74260000D01*
X286285000Y-69160000D02*
X291585000Y-69160000D01*
X267755000Y-88210000D02*
X267755000Y-93310000D01*
X262455000Y-88210000D02*
X262455000Y-93310000D01*
X267755000Y-93310000D02*
X262455000Y-93310000D01*
X262455000Y-88210000D02*
X267755000Y-88210000D01*
X246420000Y-126175000D02*
X246420000Y-131275000D01*
X241120000Y-126175000D02*
X241120000Y-131275000D01*
X246420000Y-131275000D02*
X241120000Y-131275000D01*
X241120000Y-126175000D02*
X246420000Y-126175000D01*
X272660000Y-126160000D02*
X272660000Y-131260000D01*
X267360000Y-126160000D02*
X267360000Y-131260000D01*
X272660000Y-131260000D02*
X267360000Y-131260000D01*
X267360000Y-126160000D02*
X272660000Y-126160000D01*
X243930000Y-88200000D02*
X243930000Y-93300000D01*
X238630000Y-88200000D02*
X238630000Y-93300000D01*
X243930000Y-93300000D02*
X238630000Y-93300000D01*
X238630000Y-88200000D02*
X243930000Y-88200000D01*
X234290000Y-69200000D02*
X234290000Y-74300000D01*
X228990000Y-69200000D02*
X228990000Y-74300000D01*
X234290000Y-74300000D02*
X228990000Y-74300000D01*
X228990000Y-69200000D02*
X234290000Y-69200000D01*
X220180000Y-126185000D02*
X220180000Y-131285000D01*
X214880000Y-126185000D02*
X214880000Y-131285000D01*
X220180000Y-131285000D02*
X214880000Y-131285000D01*
X214880000Y-126185000D02*
X220180000Y-126185000D01*
X229730000Y-107180000D02*
X229730000Y-112280000D01*
X224430000Y-107180000D02*
X224430000Y-112280000D01*
X229730000Y-112280000D02*
X224430000Y-112280000D01*
X224430000Y-107180000D02*
X229730000Y-107180000D01*
X224930000Y-88200000D02*
X224930000Y-93300000D01*
X219630000Y-88200000D02*
X219630000Y-93300000D01*
X224930000Y-93300000D02*
X219630000Y-93300000D01*
X219630000Y-88200000D02*
X224930000Y-88200000D01*
X201180000Y-126180000D02*
X201180000Y-131280000D01*
X195880000Y-126180000D02*
X195880000Y-131280000D01*
X201180000Y-131280000D02*
X195880000Y-131280000D01*
X195880000Y-126180000D02*
X201180000Y-126180000D01*
X210730000Y-107190000D02*
X210730000Y-112290000D01*
X205430000Y-107190000D02*
X205430000Y-112290000D01*
X210730000Y-112290000D02*
X205430000Y-112290000D01*
X205430000Y-107190000D02*
X210730000Y-107190000D01*
X205930000Y-88190000D02*
X205930000Y-93290000D01*
X200630000Y-88190000D02*
X200630000Y-93290000D01*
X205930000Y-93290000D02*
X200630000Y-93290000D01*
X200630000Y-88190000D02*
X205930000Y-88190000D01*
X196280000Y-69200000D02*
X196280000Y-74300000D01*
X190980000Y-69200000D02*
X190980000Y-74300000D01*
X196280000Y-74300000D02*
X190980000Y-74300000D01*
X190980000Y-69200000D02*
X196280000Y-69200000D01*
X182180000Y-126180000D02*
X182180000Y-131280000D01*
X176880000Y-126180000D02*
X176880000Y-131280000D01*
X182180000Y-131280000D02*
X176880000Y-131280000D01*
X176880000Y-126180000D02*
X182180000Y-126180000D01*
X191730000Y-107190000D02*
X191730000Y-112290000D01*
X186430000Y-107190000D02*
X186430000Y-112290000D01*
X191730000Y-112290000D02*
X186430000Y-112290000D01*
X186430000Y-107190000D02*
X191730000Y-107190000D01*
X186930000Y-88190000D02*
X186930000Y-93290000D01*
X181630000Y-88190000D02*
X181630000Y-93290000D01*
X186930000Y-93290000D02*
X181630000Y-93290000D01*
X181630000Y-88190000D02*
X186930000Y-88190000D01*
X177300000Y-69200000D02*
X177300000Y-74300000D01*
X172000000Y-69200000D02*
X172000000Y-74300000D01*
X177300000Y-74300000D02*
X172000000Y-74300000D01*
X172000000Y-69200000D02*
X177300000Y-69200000D01*
X163180000Y-126190000D02*
X163180000Y-131290000D01*
X157880000Y-126190000D02*
X157880000Y-131290000D01*
X163180000Y-131290000D02*
X157880000Y-131290000D01*
X157880000Y-126190000D02*
X163180000Y-126190000D01*
X172730000Y-107200000D02*
X172730000Y-112300000D01*
X167430000Y-107200000D02*
X167430000Y-112300000D01*
X172730000Y-112300000D02*
X167430000Y-112300000D01*
X167430000Y-107200000D02*
X172730000Y-107200000D01*
X167930000Y-88190000D02*
X167930000Y-93290000D01*
X162630000Y-88190000D02*
X162630000Y-93290000D01*
X167930000Y-93290000D02*
X162630000Y-93290000D01*
X162630000Y-88190000D02*
X167930000Y-88190000D01*
X158320000Y-69200000D02*
X158320000Y-74300000D01*
X153020000Y-69200000D02*
X153020000Y-74300000D01*
X158320000Y-74300000D02*
X153020000Y-74300000D01*
X153020000Y-69200000D02*
X158320000Y-69200000D01*
X144180000Y-126190000D02*
X144180000Y-131290000D01*
X138880000Y-126190000D02*
X138880000Y-131290000D01*
X144180000Y-131290000D02*
X138880000Y-131290000D01*
X138880000Y-126190000D02*
X144180000Y-126190000D01*
X153730000Y-107190000D02*
X153730000Y-112290000D01*
X148430000Y-107190000D02*
X148430000Y-112290000D01*
X153730000Y-112290000D02*
X148430000Y-112290000D01*
X148430000Y-107190000D02*
X153730000Y-107190000D01*
X139320000Y-69200000D02*
X139320000Y-74300000D01*
X134020000Y-69200000D02*
X134020000Y-74300000D01*
X139320000Y-74300000D02*
X134020000Y-74300000D01*
X134020000Y-69200000D02*
X139320000Y-69200000D01*
X125170000Y-126200000D02*
X125170000Y-131300000D01*
X119870000Y-126200000D02*
X119870000Y-131300000D01*
X125170000Y-131300000D02*
X119870000Y-131300000D01*
X119870000Y-126200000D02*
X125170000Y-126200000D01*
X134730000Y-107190000D02*
X134730000Y-112290000D01*
X129430000Y-107190000D02*
X129430000Y-112290000D01*
X134730000Y-112290000D02*
X129430000Y-112290000D01*
X129430000Y-107190000D02*
X134730000Y-107190000D01*
X129930000Y-88190000D02*
X129930000Y-93290000D01*
X124630000Y-88190000D02*
X124630000Y-93290000D01*
X129930000Y-93290000D02*
X124630000Y-93290000D01*
X124630000Y-88190000D02*
X129930000Y-88190000D01*
X120320000Y-69200000D02*
X120320000Y-74300000D01*
X115020000Y-69200000D02*
X115020000Y-74300000D01*
X120320000Y-74300000D02*
X115020000Y-74300000D01*
X115020000Y-69200000D02*
X120320000Y-69200000D01*
X106170000Y-126200000D02*
X106170000Y-131300000D01*
X100870000Y-126200000D02*
X100870000Y-131300000D01*
X106170000Y-131300000D02*
X100870000Y-131300000D01*
X100870000Y-126200000D02*
X106170000Y-126200000D01*
X115720000Y-107190000D02*
X115720000Y-112290000D01*
X110420000Y-107190000D02*
X110420000Y-112290000D01*
X115720000Y-112290000D02*
X110420000Y-112290000D01*
X110420000Y-107190000D02*
X115720000Y-107190000D01*
X110930000Y-88190000D02*
X110930000Y-93290000D01*
X105630000Y-88190000D02*
X105630000Y-93290000D01*
X110930000Y-93290000D02*
X105630000Y-93290000D01*
X105630000Y-88190000D02*
X110930000Y-88190000D01*
X101330000Y-69190000D02*
X101330000Y-74290000D01*
X96030000Y-69190000D02*
X96030000Y-74290000D01*
X101330000Y-74290000D02*
X96030000Y-74290000D01*
X96030000Y-69190000D02*
X101330000Y-69190000D01*
X87200000Y-126200000D02*
X87200000Y-131300000D01*
X81900000Y-126200000D02*
X81900000Y-131300000D01*
X87200000Y-131300000D02*
X81900000Y-131300000D01*
X81900000Y-126200000D02*
X87200000Y-126200000D01*
X91930000Y-88190000D02*
X91930000Y-93290000D01*
X86630000Y-88190000D02*
X86630000Y-93290000D01*
X91930000Y-93290000D02*
X86630000Y-93290000D01*
X86630000Y-88190000D02*
X91930000Y-88190000D01*
X68230000Y-126190000D02*
X68230000Y-131290000D01*
X62930000Y-126190000D02*
X62930000Y-131290000D01*
X68230000Y-131290000D02*
X62930000Y-131290000D01*
X62930000Y-126190000D02*
X68230000Y-126190000D01*
X77700000Y-107190000D02*
X77700000Y-112290000D01*
X72400000Y-107190000D02*
X72400000Y-112290000D01*
X77700000Y-112290000D02*
X72400000Y-112290000D01*
X72400000Y-107190000D02*
X77700000Y-107190000D01*
X72930000Y-88190000D02*
X72930000Y-93290000D01*
X67630000Y-88190000D02*
X67630000Y-93290000D01*
X72930000Y-93290000D02*
X67630000Y-93290000D01*
X67630000Y-88190000D02*
X72930000Y-88190000D01*
X63370000Y-69200000D02*
X63370000Y-74300000D01*
X58070000Y-69200000D02*
X58070000Y-74300000D01*
X63370000Y-74300000D02*
X58070000Y-74300000D01*
X58070000Y-69200000D02*
X63370000Y-69200000D01*
X58670000Y-107200000D02*
X58670000Y-112300000D01*
X53370000Y-107200000D02*
X53370000Y-112300000D01*
X58670000Y-112300000D02*
X53370000Y-112300000D01*
X53370000Y-107200000D02*
X58670000Y-107200000D01*
X44380000Y-69180000D02*
X44380000Y-74280000D01*
X39080000Y-69180000D02*
X39080000Y-74280000D01*
X44380000Y-74280000D02*
X39080000Y-74280000D01*
X39080000Y-69180000D02*
X44380000Y-69180000D01*
X39680000Y-107190000D02*
X39680000Y-112290000D01*
X34380000Y-107190000D02*
X34380000Y-112290000D01*
X39680000Y-112290000D02*
X34380000Y-112290000D01*
X34380000Y-107190000D02*
X39680000Y-107190000D01*
X34930000Y-88190000D02*
X34930000Y-93290000D01*
X29630000Y-88190000D02*
X29630000Y-93290000D01*
X34930000Y-93290000D02*
X29630000Y-93290000D01*
X29630000Y-88190000D02*
X34930000Y-88190000D01*
X25400000Y-69200000D02*
X25400000Y-74300000D01*
X20100000Y-69200000D02*
X20100000Y-74300000D01*
X25400000Y-74300000D02*
X20100000Y-74300000D01*
X20100000Y-69200000D02*
X25400000Y-69200000D01*
X18308000Y-126185000D02*
X18308000Y-131285000D01*
X13008000Y-126185000D02*
X13008000Y-131285000D01*
X18308000Y-131285000D02*
X13008000Y-131285000D01*
X13008000Y-126185000D02*
X18308000Y-126185000D01*
X13540000Y-107200000D02*
X13540000Y-112300000D01*
X8240000Y-107200000D02*
X8240000Y-112300000D01*
X13540000Y-112300000D02*
X8240000Y-112300000D01*
X8240000Y-107200000D02*
X13540000Y-107200000D01*
X11200000Y-88200000D02*
X11200000Y-93300000D01*
X5900000Y-88200000D02*
X5900000Y-93300000D01*
X11200000Y-93300000D02*
X5900000Y-93300000D01*
X5900000Y-88200000D02*
X11200000Y-88200000D01*
X6440000Y-69210000D02*
X6440000Y-74310000D01*
X1140000Y-69210000D02*
X1140000Y-74310000D01*
X6440000Y-74310000D02*
X1140000Y-74310000D01*
X1140000Y-69210000D02*
X6440000Y-69210000D01*
X262828000Y-69185000D02*
X262828000Y-74285000D01*
X257528000Y-69185000D02*
X257528000Y-74285000D01*
X262828000Y-74285000D02*
X257528000Y-74285000D01*
X257528000Y-69185000D02*
X262828000Y-69185000D01*
X215290000Y-69200000D02*
X215290000Y-74300000D01*
X209990000Y-69200000D02*
X209990000Y-74300000D01*
X215290000Y-74300000D02*
X209990000Y-74300000D01*
X209990000Y-69200000D02*
X215290000Y-69200000D01*
X82330000Y-69200000D02*
X82330000Y-74300000D01*
X77030000Y-69200000D02*
X77030000Y-74300000D01*
X82330000Y-74300000D02*
X77030000Y-74300000D01*
X77030000Y-69200000D02*
X82330000Y-69200000D01*
X49220000Y-126200000D02*
X49220000Y-131300000D01*
X43920000Y-126200000D02*
X43920000Y-131300000D01*
X49220000Y-131300000D02*
X43920000Y-131300000D01*
X43920000Y-126200000D02*
X49220000Y-126200000D01*
M02*
