G04 #@! TF.GenerationSoftware,KiCad,Pcbnew,5.1.5*
G04 #@! TF.CreationDate,2020-04-09T00:31:28+02:00*
G04 #@! TF.ProjectId,FullKeyboardV1,46756c6c-4b65-4796-926f-61726456312e,rev?*
G04 #@! TF.SameCoordinates,Original*
G04 #@! TF.FileFunction,Legend,Bot*
G04 #@! TF.FilePolarity,Positive*
%FSLAX46Y46*%
G04 Gerber Fmt 4.6, Leading zero omitted, Abs format (unit mm)*
G04 Created by KiCad (PCBNEW 5.1.5) date 2020-04-09 00:31:28*
%MOMM*%
%LPD*%
G04 APERTURE LIST*
%ADD10C,0.120000*%
%ADD11C,0.150000*%
G04 APERTURE END LIST*
D10*
X273545000Y-54745000D02*
X270095000Y-54745000D01*
X273545000Y-54745000D02*
X275495000Y-54745000D01*
X273545000Y-49625000D02*
X271595000Y-49625000D01*
X273545000Y-49625000D02*
X275495000Y-49625000D01*
X261902779Y-53360000D02*
X261577221Y-53360000D01*
X261902779Y-52340000D02*
X261577221Y-52340000D01*
X261892779Y-55000000D02*
X261567221Y-55000000D01*
X261892779Y-53980000D02*
X261567221Y-53980000D01*
X234382779Y-49340000D02*
X234057221Y-49340000D01*
X234382779Y-48320000D02*
X234057221Y-48320000D01*
X234037221Y-49940000D02*
X234362779Y-49940000D01*
X234037221Y-50960000D02*
X234362779Y-50960000D01*
X285700000Y-51545000D02*
X288810000Y-51545000D01*
X280620000Y-51545000D02*
X284180000Y-51545000D01*
X283160000Y-54205000D02*
X286720000Y-54205000D01*
X288240000Y-54205000D02*
X288810000Y-54205000D01*
X278530000Y-51545000D02*
X279100000Y-51545000D01*
X279100000Y-51545000D02*
X279100000Y-50025000D01*
X278530000Y-54205000D02*
X281640000Y-54205000D01*
X288810000Y-51545000D02*
X288810000Y-54205000D01*
X278530000Y-51545000D02*
X278530000Y-54205000D01*
X231130000Y-49752779D02*
X231130000Y-49427221D01*
X232150000Y-49752779D02*
X232150000Y-49427221D01*
X234670000Y-53912779D02*
X234670000Y-53587221D01*
X235690000Y-53912779D02*
X235690000Y-53587221D01*
X225740522Y-145549273D02*
X225970727Y-145779478D01*
X225019273Y-146270522D02*
X225249478Y-146500727D01*
X287077843Y-138031371D02*
X289835559Y-135273655D01*
X285663629Y-136617157D02*
X288421345Y-133859441D01*
X287077843Y-138031371D02*
X285663629Y-136617157D01*
X281094273Y-147304478D02*
X281324478Y-147074273D01*
X281815522Y-148025727D02*
X282045727Y-147795522D01*
D11*
X199100000Y-50195000D02*
X199100000Y-48595000D01*
X207525000Y-50195000D02*
X207525000Y-55945000D01*
X198875000Y-50195000D02*
X198875000Y-55945000D01*
X207525000Y-50195000D02*
X207225000Y-50195000D01*
X207525000Y-55945000D02*
X207225000Y-55945000D01*
X198875000Y-55945000D02*
X199175000Y-55945000D01*
X198875000Y-50195000D02*
X199100000Y-50195000D01*
D10*
X249570000Y-46500000D02*
X258970000Y-46500000D01*
X258970000Y-52300000D02*
X258970000Y-50300000D01*
X258970000Y-48400000D02*
X258970000Y-46500000D01*
X249570000Y-52300000D02*
X249570000Y-50300000D01*
X249570000Y-48400000D02*
X249570000Y-46500000D01*
X264651371Y-136917157D02*
X261893655Y-134159441D01*
X263237157Y-138331371D02*
X260479441Y-135573655D01*
X264651371Y-136917157D02*
X263237157Y-138331371D01*
X286235000Y-119460000D02*
X286235000Y-115560000D01*
X284235000Y-119460000D02*
X284235000Y-115560000D01*
X286235000Y-119460000D02*
X284235000Y-119460000D01*
X286260000Y-100485000D02*
X286260000Y-96585000D01*
X284260000Y-100485000D02*
X284260000Y-96585000D01*
X286260000Y-100485000D02*
X284260000Y-100485000D01*
X286185000Y-81535000D02*
X286185000Y-77635000D01*
X284185000Y-81535000D02*
X284185000Y-77635000D01*
X286185000Y-81535000D02*
X284185000Y-81535000D01*
X286160000Y-62635000D02*
X286160000Y-58735000D01*
X284160000Y-62635000D02*
X284160000Y-58735000D01*
X286160000Y-62635000D02*
X284160000Y-62635000D01*
X240334823Y-137375609D02*
X237577107Y-134617893D01*
X238920609Y-138789823D02*
X236162893Y-136032107D01*
X240334823Y-137375609D02*
X238920609Y-138789823D01*
X255310000Y-100260000D02*
X255310000Y-96360000D01*
X253310000Y-100260000D02*
X253310000Y-96360000D01*
X255310000Y-100260000D02*
X253310000Y-100260000D01*
X258160000Y-82360000D02*
X254260000Y-82360000D01*
X258160000Y-84360000D02*
X254260000Y-84360000D01*
X258160000Y-82360000D02*
X258160000Y-84360000D01*
X254090000Y-63340000D02*
X250190000Y-63340000D01*
X254090000Y-65340000D02*
X250190000Y-65340000D01*
X254090000Y-63340000D02*
X254090000Y-65340000D01*
X229918097Y-136783883D02*
X227160381Y-134026167D01*
X228503883Y-138198097D02*
X225746167Y-135440381D01*
X229918097Y-136783883D02*
X228503883Y-138198097D01*
X241060000Y-119360000D02*
X241060000Y-115460000D01*
X239060000Y-119360000D02*
X239060000Y-115460000D01*
X241060000Y-119360000D02*
X239060000Y-119360000D01*
X262748097Y-121043883D02*
X259990381Y-118286167D01*
X261333883Y-122458097D02*
X258576167Y-119700381D01*
X262748097Y-121043883D02*
X261333883Y-122458097D01*
X234590000Y-82370000D02*
X230690000Y-82370000D01*
X234590000Y-84370000D02*
X230690000Y-84370000D01*
X234590000Y-82370000D02*
X234590000Y-84370000D01*
X225343883Y-60411903D02*
X222586167Y-63169619D01*
X226758097Y-61826117D02*
X224000381Y-64583833D01*
X225343883Y-60411903D02*
X226758097Y-61826117D01*
X210568097Y-136958883D02*
X207810381Y-134201167D01*
X209153883Y-138373097D02*
X206396167Y-135615381D01*
X210568097Y-136958883D02*
X209153883Y-138373097D01*
X214770000Y-119630000D02*
X214770000Y-115730000D01*
X212770000Y-119630000D02*
X212770000Y-115730000D01*
X214770000Y-119630000D02*
X212770000Y-119630000D01*
X219337763Y-101168023D02*
X216580047Y-103925739D01*
X220751977Y-102582237D02*
X217994261Y-105339953D01*
X219337763Y-101168023D02*
X220751977Y-102582237D01*
X215550000Y-82890000D02*
X211650000Y-82890000D01*
X215550000Y-84890000D02*
X211650000Y-84890000D01*
X215550000Y-82890000D02*
X215550000Y-84890000D01*
X206293883Y-60361903D02*
X203536167Y-63119619D01*
X207708097Y-61776117D02*
X204950381Y-64533833D01*
X206293883Y-60361903D02*
X207708097Y-61776117D01*
X191693097Y-137108883D02*
X188935381Y-134351167D01*
X190278883Y-138523097D02*
X187521167Y-135765381D01*
X191693097Y-137108883D02*
X190278883Y-138523097D01*
X195770000Y-119670000D02*
X195770000Y-115770000D01*
X193770000Y-119670000D02*
X193770000Y-115770000D01*
X195770000Y-119670000D02*
X193770000Y-119670000D01*
X201355000Y-101790000D02*
X197455000Y-101790000D01*
X201355000Y-103790000D02*
X197455000Y-103790000D01*
X201355000Y-101790000D02*
X201355000Y-103790000D01*
X196600000Y-82830000D02*
X192700000Y-82830000D01*
X196600000Y-84830000D02*
X192700000Y-84830000D01*
X196600000Y-82830000D02*
X196600000Y-84830000D01*
X187393883Y-60461903D02*
X184636167Y-63219619D01*
X188808097Y-61876117D02*
X186050381Y-64633833D01*
X187393883Y-60461903D02*
X188808097Y-61876117D01*
X176760000Y-119680000D02*
X176760000Y-115780000D01*
X174760000Y-119680000D02*
X174760000Y-115780000D01*
X176760000Y-119680000D02*
X174760000Y-119680000D01*
X182450000Y-101290000D02*
X178550000Y-101290000D01*
X182450000Y-103290000D02*
X178550000Y-103290000D01*
X182450000Y-101290000D02*
X182450000Y-103290000D01*
X177540000Y-82850000D02*
X173640000Y-82850000D01*
X177540000Y-84850000D02*
X173640000Y-84850000D01*
X177540000Y-82850000D02*
X177540000Y-84850000D01*
X168343883Y-60411903D02*
X165586167Y-63169619D01*
X169758097Y-61826117D02*
X167000381Y-64583833D01*
X168343883Y-60411903D02*
X169758097Y-61826117D01*
X157800000Y-119650000D02*
X157800000Y-115750000D01*
X155800000Y-119650000D02*
X155800000Y-115750000D01*
X157800000Y-119650000D02*
X155800000Y-119650000D01*
X163390000Y-101370000D02*
X159490000Y-101370000D01*
X163390000Y-103370000D02*
X159490000Y-103370000D01*
X163390000Y-101370000D02*
X163390000Y-103370000D01*
X158545000Y-82250000D02*
X154645000Y-82250000D01*
X158545000Y-84250000D02*
X154645000Y-84250000D01*
X158545000Y-82250000D02*
X158545000Y-84250000D01*
X149393883Y-60461903D02*
X146636167Y-63219619D01*
X150808097Y-61876117D02*
X148050381Y-64633833D01*
X149393883Y-60461903D02*
X150808097Y-61876117D01*
X138760000Y-119660000D02*
X138760000Y-115760000D01*
X136760000Y-119660000D02*
X136760000Y-115760000D01*
X138760000Y-119660000D02*
X136760000Y-119660000D01*
X144380000Y-101250000D02*
X140480000Y-101250000D01*
X144380000Y-103250000D02*
X140480000Y-103250000D01*
X144380000Y-101250000D02*
X144380000Y-103250000D01*
X139545000Y-82200000D02*
X135645000Y-82200000D01*
X139545000Y-84200000D02*
X135645000Y-84200000D01*
X139545000Y-82200000D02*
X139545000Y-84200000D01*
X130393883Y-60461903D02*
X127636167Y-63219619D01*
X131808097Y-61876117D02*
X129050381Y-64633833D01*
X130393883Y-60461903D02*
X131808097Y-61876117D01*
X117568097Y-139203883D02*
X114810381Y-136446167D01*
X116153883Y-140618097D02*
X113396167Y-137860381D01*
X117568097Y-139203883D02*
X116153883Y-140618097D01*
X119740000Y-119625000D02*
X119740000Y-115725000D01*
X117740000Y-119625000D02*
X117740000Y-115725000D01*
X119740000Y-119625000D02*
X117740000Y-119625000D01*
X125380000Y-101360000D02*
X121480000Y-101360000D01*
X125380000Y-103360000D02*
X121480000Y-103360000D01*
X125380000Y-101360000D02*
X125380000Y-103360000D01*
X120535000Y-82130000D02*
X116635000Y-82130000D01*
X120535000Y-84130000D02*
X116635000Y-84130000D01*
X120535000Y-82130000D02*
X120535000Y-84130000D01*
X111350003Y-60455783D02*
X108592287Y-63213499D01*
X112764217Y-61869997D02*
X110006501Y-64627713D01*
X111350003Y-60455783D02*
X112764217Y-61869997D01*
X100780000Y-119640000D02*
X100780000Y-115740000D01*
X98780000Y-119640000D02*
X98780000Y-115740000D01*
X100780000Y-119640000D02*
X98780000Y-119640000D01*
X106360000Y-101350000D02*
X102460000Y-101350000D01*
X106360000Y-103350000D02*
X102460000Y-103350000D01*
X106360000Y-101350000D02*
X106360000Y-103350000D01*
X101545000Y-82190000D02*
X97645000Y-82190000D01*
X101545000Y-84190000D02*
X97645000Y-84190000D01*
X101545000Y-82190000D02*
X101545000Y-84190000D01*
X92343883Y-60411903D02*
X89586167Y-63169619D01*
X93758097Y-61826117D02*
X91000381Y-64583833D01*
X92343883Y-60411903D02*
X93758097Y-61826117D01*
X81790000Y-119710000D02*
X81790000Y-115810000D01*
X79790000Y-119710000D02*
X79790000Y-115810000D01*
X81790000Y-119710000D02*
X79790000Y-119710000D01*
X87340000Y-101400000D02*
X83440000Y-101400000D01*
X87340000Y-103400000D02*
X83440000Y-103400000D01*
X87340000Y-101400000D02*
X87340000Y-103400000D01*
X82520000Y-82250000D02*
X78620000Y-82250000D01*
X82520000Y-84250000D02*
X78620000Y-84250000D01*
X82520000Y-82250000D02*
X82520000Y-84250000D01*
X73343883Y-60461903D02*
X70586167Y-63219619D01*
X74758097Y-61876117D02*
X72000381Y-64633833D01*
X73343883Y-60461903D02*
X74758097Y-61876117D01*
X62820000Y-119710000D02*
X62820000Y-115810000D01*
X60820000Y-119710000D02*
X60820000Y-115810000D01*
X62820000Y-119710000D02*
X60820000Y-119710000D01*
X68350000Y-101360000D02*
X64450000Y-101360000D01*
X68350000Y-103360000D02*
X64450000Y-103360000D01*
X68350000Y-101360000D02*
X68350000Y-103360000D01*
X63480000Y-82280000D02*
X59580000Y-82280000D01*
X63480000Y-84280000D02*
X59580000Y-84280000D01*
X63480000Y-82280000D02*
X63480000Y-84280000D01*
X54393883Y-60411903D02*
X51636167Y-63169619D01*
X55808097Y-61826117D02*
X53050381Y-64583833D01*
X54393883Y-60411903D02*
X55808097Y-61826117D01*
X51777843Y-137731371D02*
X54535559Y-134973655D01*
X50363629Y-136317157D02*
X53121345Y-133559441D01*
X51777843Y-137731371D02*
X50363629Y-136317157D01*
X43820000Y-119650000D02*
X43820000Y-115750000D01*
X41820000Y-119650000D02*
X41820000Y-115750000D01*
X43820000Y-119650000D02*
X41820000Y-119650000D01*
X49350000Y-101370000D02*
X45450000Y-101370000D01*
X49350000Y-103370000D02*
X45450000Y-103370000D01*
X49350000Y-101370000D02*
X49350000Y-103370000D01*
X44610000Y-82360000D02*
X40710000Y-82360000D01*
X44610000Y-84360000D02*
X40710000Y-84360000D01*
X44610000Y-82360000D02*
X44610000Y-84360000D01*
X35437763Y-60368023D02*
X32680047Y-63125739D01*
X36851977Y-61782237D02*
X34094261Y-64539953D01*
X35437763Y-60368023D02*
X36851977Y-61782237D01*
X23220000Y-138850000D02*
X23220000Y-134950000D01*
X21220000Y-138850000D02*
X21220000Y-134950000D01*
X23220000Y-138850000D02*
X21220000Y-138850000D01*
X30375000Y-101350000D02*
X26475000Y-101350000D01*
X30375000Y-103350000D02*
X26475000Y-103350000D01*
X30375000Y-101350000D02*
X30375000Y-103350000D01*
X24593883Y-82211903D02*
X21836167Y-84969619D01*
X26008097Y-83626117D02*
X23250381Y-86383833D01*
X24593883Y-82211903D02*
X26008097Y-83626117D01*
X16387763Y-60418023D02*
X13630047Y-63175739D01*
X17801977Y-61832237D02*
X15044261Y-64589953D01*
X16387763Y-60418023D02*
X17801977Y-61832237D01*
X3508097Y-136843883D02*
X750381Y-134086167D01*
X2093883Y-138258097D02*
X-663833Y-135500381D01*
X3508097Y-136843883D02*
X2093883Y-138258097D01*
X9260000Y-120360000D02*
X5360000Y-120360000D01*
X9260000Y-122360000D02*
X5360000Y-122360000D01*
X9260000Y-120360000D02*
X9260000Y-122360000D01*
X-930000Y-101735000D02*
X-930000Y-105635000D01*
X1070000Y-101735000D02*
X1070000Y-105635000D01*
X-930000Y-101735000D02*
X1070000Y-101735000D01*
X1875000Y-82180000D02*
X-2025000Y-82180000D01*
X1875000Y-84180000D02*
X-2025000Y-84180000D01*
X1875000Y-82180000D02*
X1875000Y-84180000D01*
X-2456117Y-60461903D02*
X-5213833Y-63219619D01*
X-1041903Y-61876117D02*
X-3799619Y-64633833D01*
X-2456117Y-60461903D02*
X-1041903Y-61876117D01*
X281658675Y-125957426D02*
X281888880Y-126187631D01*
X280937426Y-126678675D02*
X281167631Y-126908880D01*
X282680522Y-106459273D02*
X282910727Y-106689478D01*
X281959273Y-107180522D02*
X282189478Y-107410727D01*
X282655522Y-87484273D02*
X282885727Y-87714478D01*
X281934273Y-88205522D02*
X282164478Y-88435727D01*
X280165522Y-68544273D02*
X280395727Y-68774478D01*
X279444273Y-69265522D02*
X279674478Y-69495727D01*
X263655522Y-125459273D02*
X263885727Y-125689478D01*
X262934273Y-126180522D02*
X263164478Y-126410727D01*
X257531120Y-146647631D02*
X257761325Y-146417426D01*
X258252369Y-147368880D02*
X258482574Y-147138675D01*
X258725192Y-87503943D02*
X258955397Y-87734148D01*
X258003943Y-88225192D02*
X258234148Y-88455397D01*
X253875192Y-68403943D02*
X254105397Y-68634148D01*
X253153943Y-69125192D02*
X253384148Y-69355397D01*
X251625192Y-106403943D02*
X251855397Y-106634148D01*
X250903943Y-107125192D02*
X251134148Y-107355397D01*
X237405522Y-125459273D02*
X237635727Y-125689478D01*
X236684273Y-126180522D02*
X236914478Y-126410727D01*
X240008675Y-145317426D02*
X240238880Y-145547631D01*
X239287426Y-146038675D02*
X239517631Y-146268880D01*
X234955522Y-87534273D02*
X235185727Y-87764478D01*
X234234273Y-88255522D02*
X234464478Y-88485727D01*
X225375192Y-68503943D02*
X225605397Y-68734148D01*
X224653943Y-69225192D02*
X224884148Y-69455397D01*
X220775192Y-106453943D02*
X221005397Y-106684148D01*
X220053943Y-107175192D02*
X220284148Y-107405397D01*
X215955522Y-87484273D02*
X216185727Y-87714478D01*
X215234273Y-88205522D02*
X215464478Y-88435727D01*
X206355522Y-68484273D02*
X206585727Y-68714478D01*
X205634273Y-69205522D02*
X205864478Y-69435727D01*
X210754273Y-146604478D02*
X210984478Y-146374273D01*
X211475522Y-147325727D02*
X211705727Y-147095522D01*
X211325192Y-125503943D02*
X211555397Y-125734148D01*
X210603943Y-126225192D02*
X210834148Y-126455397D01*
X201765522Y-106504273D02*
X201995727Y-106734478D01*
X201044273Y-107225522D02*
X201274478Y-107455727D01*
X197005522Y-87484273D02*
X197235727Y-87714478D01*
X196284273Y-88205522D02*
X196514478Y-88435727D01*
X187325192Y-68503943D02*
X187555397Y-68734148D01*
X186603943Y-69225192D02*
X186834148Y-69455397D01*
X189387426Y-146731325D02*
X189617631Y-146501120D01*
X190108675Y-147452574D02*
X190338880Y-147222369D01*
X192275192Y-125453943D02*
X192505397Y-125684148D01*
X191553943Y-126175192D02*
X191784148Y-126405397D01*
X182805522Y-106484273D02*
X183035727Y-106714478D01*
X182084273Y-107205522D02*
X182314478Y-107435727D01*
X177975192Y-87453943D02*
X178205397Y-87684148D01*
X177253943Y-88175192D02*
X177484148Y-88405397D01*
X168305522Y-68534273D02*
X168535727Y-68764478D01*
X167584273Y-69255522D02*
X167814478Y-69485727D01*
X173205522Y-125484273D02*
X173435727Y-125714478D01*
X172484273Y-126205522D02*
X172714478Y-126435727D01*
X163755522Y-106484273D02*
X163985727Y-106714478D01*
X163034273Y-107205522D02*
X163264478Y-107435727D01*
X158925192Y-87453943D02*
X159155397Y-87684148D01*
X158203943Y-88175192D02*
X158434148Y-88405397D01*
X149355522Y-68534273D02*
X149585727Y-68764478D01*
X148634273Y-69255522D02*
X148864478Y-69485727D01*
X139597369Y-144981120D02*
X139827574Y-145211325D01*
X138876120Y-145702369D02*
X139106325Y-145932574D01*
X154205522Y-125484273D02*
X154435727Y-125714478D01*
X153484273Y-126205522D02*
X153714478Y-126435727D01*
X144805522Y-106484273D02*
X145035727Y-106714478D01*
X144084273Y-107205522D02*
X144314478Y-107435727D01*
X139955522Y-87484273D02*
X140185727Y-87714478D01*
X139234273Y-88205522D02*
X139464478Y-88435727D01*
X130355522Y-68484273D02*
X130585727Y-68714478D01*
X129634273Y-69205522D02*
X129864478Y-69435727D01*
X135205522Y-125484273D02*
X135435727Y-125714478D01*
X134484273Y-126205522D02*
X134714478Y-126435727D01*
X125755522Y-106484273D02*
X125985727Y-106714478D01*
X125034273Y-107205522D02*
X125264478Y-107435727D01*
X120955522Y-87484273D02*
X121185727Y-87714478D01*
X120234273Y-88205522D02*
X120464478Y-88435727D01*
X111375192Y-68503943D02*
X111605397Y-68734148D01*
X110653943Y-69225192D02*
X110884148Y-69455397D01*
X117591120Y-146567631D02*
X117821325Y-146337426D01*
X118312369Y-147288880D02*
X118542574Y-147058675D01*
X116205522Y-125484273D02*
X116435727Y-125714478D01*
X115484273Y-126205522D02*
X115714478Y-126435727D01*
X106755522Y-106484273D02*
X106985727Y-106714478D01*
X106034273Y-107205522D02*
X106264478Y-107435727D01*
X101975192Y-87503943D02*
X102205397Y-87734148D01*
X101253943Y-88225192D02*
X101484148Y-88455397D01*
X92375192Y-68453943D02*
X92605397Y-68684148D01*
X91653943Y-69175192D02*
X91884148Y-69405397D01*
X97255522Y-125484273D02*
X97485727Y-125714478D01*
X96534273Y-126205522D02*
X96764478Y-126435727D01*
X87775192Y-106453943D02*
X88005397Y-106684148D01*
X87053943Y-107175192D02*
X87284148Y-107405397D01*
X82975192Y-87503943D02*
X83205397Y-87734148D01*
X82253943Y-88225192D02*
X82484148Y-88455397D01*
X73375192Y-68503943D02*
X73605397Y-68734148D01*
X72653943Y-69225192D02*
X72884148Y-69455397D01*
X78205522Y-125534273D02*
X78435727Y-125764478D01*
X77484273Y-126255522D02*
X77714478Y-126485727D01*
X68755522Y-106484273D02*
X68985727Y-106714478D01*
X68034273Y-107205522D02*
X68264478Y-107435727D01*
X63975192Y-87503943D02*
X64205397Y-87734148D01*
X63253943Y-88225192D02*
X63484148Y-88455397D01*
X54405522Y-68484273D02*
X54635727Y-68714478D01*
X53684273Y-69205522D02*
X53914478Y-69435727D01*
X44588675Y-144467426D02*
X44818880Y-144697631D01*
X43867426Y-145188675D02*
X44097631Y-145418880D01*
X59255522Y-125484273D02*
X59485727Y-125714478D01*
X58534273Y-126205522D02*
X58764478Y-126435727D01*
X49725192Y-106484273D02*
X49955397Y-106714478D01*
X49003943Y-107205522D02*
X49234148Y-107435727D01*
X44955522Y-87534273D02*
X45185727Y-87764478D01*
X44234273Y-88255522D02*
X44464478Y-88485727D01*
X35455522Y-68484273D02*
X35685727Y-68714478D01*
X34734273Y-69205522D02*
X34964478Y-69435727D01*
X21107426Y-146421325D02*
X21337631Y-146191120D01*
X21828675Y-147142574D02*
X22058880Y-146912369D01*
X40305522Y-125484273D02*
X40535727Y-125714478D01*
X39584273Y-126205522D02*
X39814478Y-126435727D01*
X30705522Y-106484273D02*
X30935727Y-106714478D01*
X29984273Y-107205522D02*
X30214478Y-107435727D01*
X25955522Y-87484273D02*
X26185727Y-87714478D01*
X25234273Y-88205522D02*
X25464478Y-88435727D01*
X16455522Y-68484273D02*
X16685727Y-68714478D01*
X15734273Y-69205522D02*
X15964478Y-69435727D01*
X-1068880Y-145807631D02*
X-838675Y-145577426D01*
X-347631Y-146528880D02*
X-117426Y-146298675D01*
X9405522Y-125484273D02*
X9635727Y-125714478D01*
X8684273Y-126205522D02*
X8914478Y-126435727D01*
X4605522Y-106484273D02*
X4835727Y-106714478D01*
X3884273Y-107205522D02*
X4114478Y-107435727D01*
X2305522Y-87484273D02*
X2535727Y-87714478D01*
X1584273Y-88205522D02*
X1814478Y-88435727D01*
X-2544478Y-68484273D02*
X-2314273Y-68714478D01*
X-3265727Y-69205522D02*
X-3035522Y-69435727D01*
X225410000Y-50000000D02*
X225410000Y-48800000D01*
X210600000Y-55800000D02*
X210600000Y-54060000D01*
X226900000Y-55800000D02*
X210600000Y-55800000D01*
X226900000Y-54060000D02*
X226900000Y-55800000D01*
X210600000Y-50000000D02*
X210600000Y-51340000D01*
X212090000Y-50000000D02*
X210600000Y-50000000D01*
X226900000Y-50000000D02*
X226900000Y-51340000D01*
X225410000Y-50000000D02*
X226900000Y-50000000D01*
X268020000Y-52485000D02*
X267520000Y-52485000D01*
X268020000Y-54765000D02*
X267520000Y-54765000D01*
X244945000Y-48615000D02*
X238935000Y-48615000D01*
X242695000Y-55435000D02*
X238935000Y-55435000D01*
X238935000Y-48615000D02*
X238935000Y-49875000D01*
X238935000Y-55435000D02*
X238935000Y-54175000D01*
X196087221Y-56060000D02*
X196412779Y-56060000D01*
X196087221Y-57080000D02*
X196412779Y-57080000D01*
D11*
X274306904Y-55037380D02*
X274306904Y-55846904D01*
X274259285Y-55942142D01*
X274211666Y-55989761D01*
X274116428Y-56037380D01*
X273925952Y-56037380D01*
X273830714Y-55989761D01*
X273783095Y-55942142D01*
X273735476Y-55846904D01*
X273735476Y-55037380D01*
X272735476Y-56037380D02*
X273306904Y-56037380D01*
X273021190Y-56037380D02*
X273021190Y-55037380D01*
X273116428Y-55180238D01*
X273211666Y-55275476D01*
X273306904Y-55323095D01*
X262382857Y-51872380D02*
X262716190Y-51396190D01*
X262954285Y-51872380D02*
X262954285Y-50872380D01*
X262573333Y-50872380D01*
X262478095Y-50920000D01*
X262430476Y-50967619D01*
X262382857Y-51062857D01*
X262382857Y-51205714D01*
X262430476Y-51300952D01*
X262478095Y-51348571D01*
X262573333Y-51396190D01*
X262954285Y-51396190D01*
X261430476Y-51872380D02*
X262001904Y-51872380D01*
X261716190Y-51872380D02*
X261716190Y-50872380D01*
X261811428Y-51015238D01*
X261906666Y-51110476D01*
X262001904Y-51158095D01*
X261049523Y-50967619D02*
X261001904Y-50920000D01*
X260906666Y-50872380D01*
X260668571Y-50872380D01*
X260573333Y-50920000D01*
X260525714Y-50967619D01*
X260478095Y-51062857D01*
X260478095Y-51158095D01*
X260525714Y-51300952D01*
X261097142Y-51872380D01*
X260478095Y-51872380D01*
X262372857Y-53512380D02*
X262706190Y-53036190D01*
X262944285Y-53512380D02*
X262944285Y-52512380D01*
X262563333Y-52512380D01*
X262468095Y-52560000D01*
X262420476Y-52607619D01*
X262372857Y-52702857D01*
X262372857Y-52845714D01*
X262420476Y-52940952D01*
X262468095Y-52988571D01*
X262563333Y-53036190D01*
X262944285Y-53036190D01*
X261420476Y-53512380D02*
X261991904Y-53512380D01*
X261706190Y-53512380D02*
X261706190Y-52512380D01*
X261801428Y-52655238D01*
X261896666Y-52750476D01*
X261991904Y-52798095D01*
X260468095Y-53512380D02*
X261039523Y-53512380D01*
X260753809Y-53512380D02*
X260753809Y-52512380D01*
X260849047Y-52655238D01*
X260944285Y-52750476D01*
X261039523Y-52798095D01*
X234436666Y-50682380D02*
X234770000Y-50206190D01*
X235008095Y-50682380D02*
X235008095Y-49682380D01*
X234627142Y-49682380D01*
X234531904Y-49730000D01*
X234484285Y-49777619D01*
X234436666Y-49872857D01*
X234436666Y-50015714D01*
X234484285Y-50110952D01*
X234531904Y-50158571D01*
X234627142Y-50206190D01*
X235008095Y-50206190D01*
X234103333Y-49682380D02*
X233436666Y-49682380D01*
X233865238Y-50682380D01*
X234391666Y-49352380D02*
X234725000Y-48876190D01*
X234963095Y-49352380D02*
X234963095Y-48352380D01*
X234582142Y-48352380D01*
X234486904Y-48400000D01*
X234439285Y-48447619D01*
X234391666Y-48542857D01*
X234391666Y-48685714D01*
X234439285Y-48780952D01*
X234486904Y-48828571D01*
X234582142Y-48876190D01*
X234963095Y-48876190D01*
X233534523Y-48352380D02*
X233725000Y-48352380D01*
X233820238Y-48400000D01*
X233867857Y-48447619D01*
X233963095Y-48590476D01*
X234010714Y-48780952D01*
X234010714Y-49161904D01*
X233963095Y-49257142D01*
X233915476Y-49304761D01*
X233820238Y-49352380D01*
X233629761Y-49352380D01*
X233534523Y-49304761D01*
X233486904Y-49257142D01*
X233439285Y-49161904D01*
X233439285Y-48923809D01*
X233486904Y-48828571D01*
X233534523Y-48780952D01*
X233629761Y-48733333D01*
X233820238Y-48733333D01*
X233915476Y-48780952D01*
X233963095Y-48828571D01*
X234010714Y-48923809D01*
X277982380Y-51708333D02*
X277982380Y-51232142D01*
X276982380Y-51232142D01*
X277887142Y-52613095D02*
X277934761Y-52565476D01*
X277982380Y-52422619D01*
X277982380Y-52327380D01*
X277934761Y-52184523D01*
X277839523Y-52089285D01*
X277744285Y-52041666D01*
X277553809Y-51994047D01*
X277410952Y-51994047D01*
X277220476Y-52041666D01*
X277125238Y-52089285D01*
X277030000Y-52184523D01*
X276982380Y-52327380D01*
X276982380Y-52422619D01*
X277030000Y-52565476D01*
X277077619Y-52613095D01*
X277982380Y-53041666D02*
X276982380Y-53041666D01*
X276982380Y-53279761D01*
X277030000Y-53422619D01*
X277125238Y-53517857D01*
X277220476Y-53565476D01*
X277410952Y-53613095D01*
X277553809Y-53613095D01*
X277744285Y-53565476D01*
X277839523Y-53517857D01*
X277934761Y-53422619D01*
X277982380Y-53279761D01*
X277982380Y-53041666D01*
X277077619Y-53994047D02*
X277030000Y-54041666D01*
X276982380Y-54136904D01*
X276982380Y-54375000D01*
X277030000Y-54470238D01*
X277077619Y-54517857D01*
X277172857Y-54565476D01*
X277268095Y-54565476D01*
X277410952Y-54517857D01*
X277982380Y-53946428D01*
X277982380Y-54565476D01*
X233427142Y-48947142D02*
X233474761Y-48899523D01*
X233522380Y-48756666D01*
X233522380Y-48661428D01*
X233474761Y-48518571D01*
X233379523Y-48423333D01*
X233284285Y-48375714D01*
X233093809Y-48328095D01*
X232950952Y-48328095D01*
X232760476Y-48375714D01*
X232665238Y-48423333D01*
X232570000Y-48518571D01*
X232522380Y-48661428D01*
X232522380Y-48756666D01*
X232570000Y-48899523D01*
X232617619Y-48947142D01*
X232522380Y-49804285D02*
X232522380Y-49613809D01*
X232570000Y-49518571D01*
X232617619Y-49470952D01*
X232760476Y-49375714D01*
X232950952Y-49328095D01*
X233331904Y-49328095D01*
X233427142Y-49375714D01*
X233474761Y-49423333D01*
X233522380Y-49518571D01*
X233522380Y-49709047D01*
X233474761Y-49804285D01*
X233427142Y-49851904D01*
X233331904Y-49899523D01*
X233093809Y-49899523D01*
X232998571Y-49851904D01*
X232950952Y-49804285D01*
X232903333Y-49709047D01*
X232903333Y-49518571D01*
X232950952Y-49423333D01*
X232998571Y-49375714D01*
X233093809Y-49328095D01*
X232522380Y-50232857D02*
X232522380Y-50899523D01*
X233522380Y-50470952D01*
X236967142Y-53107142D02*
X237014761Y-53059523D01*
X237062380Y-52916666D01*
X237062380Y-52821428D01*
X237014761Y-52678571D01*
X236919523Y-52583333D01*
X236824285Y-52535714D01*
X236633809Y-52488095D01*
X236490952Y-52488095D01*
X236300476Y-52535714D01*
X236205238Y-52583333D01*
X236110000Y-52678571D01*
X236062380Y-52821428D01*
X236062380Y-52916666D01*
X236110000Y-53059523D01*
X236157619Y-53107142D01*
X236062380Y-53964285D02*
X236062380Y-53773809D01*
X236110000Y-53678571D01*
X236157619Y-53630952D01*
X236300476Y-53535714D01*
X236490952Y-53488095D01*
X236871904Y-53488095D01*
X236967142Y-53535714D01*
X237014761Y-53583333D01*
X237062380Y-53678571D01*
X237062380Y-53869047D01*
X237014761Y-53964285D01*
X236967142Y-54011904D01*
X236871904Y-54059523D01*
X236633809Y-54059523D01*
X236538571Y-54011904D01*
X236490952Y-53964285D01*
X236443333Y-53869047D01*
X236443333Y-53678571D01*
X236490952Y-53583333D01*
X236538571Y-53535714D01*
X236633809Y-53488095D01*
X236062380Y-54916666D02*
X236062380Y-54726190D01*
X236110000Y-54630952D01*
X236157619Y-54583333D01*
X236300476Y-54488095D01*
X236490952Y-54440476D01*
X236871904Y-54440476D01*
X236967142Y-54488095D01*
X237014761Y-54535714D01*
X237062380Y-54630952D01*
X237062380Y-54821428D01*
X237014761Y-54916666D01*
X236967142Y-54964285D01*
X236871904Y-55011904D01*
X236633809Y-55011904D01*
X236538571Y-54964285D01*
X236490952Y-54916666D01*
X236443333Y-54821428D01*
X236443333Y-54630952D01*
X236490952Y-54535714D01*
X236538571Y-54488095D01*
X236633809Y-54440476D01*
X224685867Y-147743269D02*
X224685867Y-147810613D01*
X224753211Y-147945300D01*
X224820554Y-148012643D01*
X224955241Y-148079987D01*
X225089928Y-148079987D01*
X225190943Y-148046315D01*
X225359302Y-147945300D01*
X225460317Y-147844285D01*
X225561333Y-147675926D01*
X225595004Y-147574911D01*
X225595004Y-147440224D01*
X225527661Y-147305537D01*
X225460317Y-147238193D01*
X225325630Y-147170850D01*
X225258287Y-147170850D01*
X225089928Y-146867804D02*
X224618524Y-146396399D01*
X224214462Y-147406552D01*
X224416493Y-146194369D02*
X223978760Y-145756636D01*
X223945088Y-146261712D01*
X223844073Y-146160697D01*
X223743058Y-146127025D01*
X223675714Y-146127025D01*
X223574699Y-146160697D01*
X223406340Y-146329056D01*
X223372669Y-146430071D01*
X223372669Y-146497414D01*
X223406340Y-146598430D01*
X223608371Y-146800460D01*
X223709386Y-146834132D01*
X223776730Y-146834132D01*
X283288269Y-148359132D02*
X283355613Y-148359132D01*
X283490300Y-148291788D01*
X283557643Y-148224445D01*
X283624987Y-148089758D01*
X283624987Y-147955071D01*
X283591315Y-147854056D01*
X283490300Y-147685697D01*
X283389285Y-147584682D01*
X283220926Y-147483666D01*
X283119911Y-147449995D01*
X282985224Y-147449995D01*
X282850537Y-147517338D01*
X282783193Y-147584682D01*
X282715850Y-147719369D01*
X282715850Y-147786712D01*
X282446475Y-148056086D02*
X282379132Y-148056086D01*
X282278117Y-148089758D01*
X282109758Y-148258117D01*
X282076086Y-148359132D01*
X282076086Y-148426475D01*
X282109758Y-148527491D01*
X282177101Y-148594834D01*
X282311788Y-148662178D01*
X283119911Y-148662178D01*
X282682178Y-149099911D01*
X281604682Y-149234598D02*
X282076086Y-149706002D01*
X281503666Y-148796865D02*
X282177101Y-149133582D01*
X281739369Y-149571315D01*
X200331904Y-58042380D02*
X200331904Y-58851904D01*
X200284285Y-58947142D01*
X200236666Y-58994761D01*
X200141428Y-59042380D01*
X199950952Y-59042380D01*
X199855714Y-58994761D01*
X199808095Y-58947142D01*
X199760476Y-58851904D01*
X199760476Y-58042380D01*
X199379523Y-58042380D02*
X198760476Y-58042380D01*
X199093809Y-58423333D01*
X198950952Y-58423333D01*
X198855714Y-58470952D01*
X198808095Y-58518571D01*
X198760476Y-58613809D01*
X198760476Y-58851904D01*
X198808095Y-58947142D01*
X198855714Y-58994761D01*
X198950952Y-59042380D01*
X199236666Y-59042380D01*
X199331904Y-58994761D01*
X199379523Y-58947142D01*
X254603333Y-55497380D02*
X254603333Y-56211666D01*
X254650952Y-56354523D01*
X254746190Y-56449761D01*
X254889047Y-56497380D01*
X254984285Y-56497380D01*
X254174761Y-55592619D02*
X254127142Y-55545000D01*
X254031904Y-55497380D01*
X253793809Y-55497380D01*
X253698571Y-55545000D01*
X253650952Y-55592619D01*
X253603333Y-55687857D01*
X253603333Y-55783095D01*
X253650952Y-55925952D01*
X254222380Y-56497380D01*
X253603333Y-56497380D01*
X280604020Y-128151422D02*
X280604020Y-128218766D01*
X280671364Y-128353453D01*
X280738707Y-128420796D01*
X280873394Y-128488140D01*
X281008081Y-128488140D01*
X281109096Y-128454468D01*
X281277455Y-128353453D01*
X281378470Y-128252438D01*
X281479486Y-128084079D01*
X281513157Y-127983064D01*
X281513157Y-127848377D01*
X281445814Y-127713690D01*
X281378470Y-127646346D01*
X281243783Y-127579003D01*
X281176440Y-127579003D01*
X281008081Y-127275957D02*
X280536677Y-126804552D01*
X280132615Y-127814705D01*
X280233631Y-126636193D02*
X280233631Y-126568850D01*
X280199959Y-126467835D01*
X280031600Y-126299476D01*
X279930585Y-126265804D01*
X279863241Y-126265804D01*
X279762226Y-126299476D01*
X279694883Y-126366819D01*
X279627539Y-126501506D01*
X279627539Y-127309628D01*
X279189806Y-126871896D01*
X281625867Y-108653269D02*
X281625867Y-108720613D01*
X281693211Y-108855300D01*
X281760554Y-108922643D01*
X281895241Y-108989987D01*
X282029928Y-108989987D01*
X282130943Y-108956315D01*
X282299302Y-108855300D01*
X282400317Y-108754285D01*
X282501333Y-108585926D01*
X282535004Y-108484911D01*
X282535004Y-108350224D01*
X282467661Y-108215537D01*
X282400317Y-108148193D01*
X282265630Y-108080850D01*
X282198287Y-108080850D01*
X282029928Y-107777804D02*
X281558524Y-107306399D01*
X281154462Y-108316552D01*
X280211653Y-107373743D02*
X280615714Y-107777804D01*
X280413684Y-107575773D02*
X281120791Y-106868666D01*
X281087119Y-107037025D01*
X281087119Y-107171712D01*
X281120791Y-107272727D01*
X281600867Y-89678269D02*
X281600867Y-89745613D01*
X281668211Y-89880300D01*
X281735554Y-89947643D01*
X281870241Y-90014987D01*
X282004928Y-90014987D01*
X282105943Y-89981315D01*
X282274302Y-89880300D01*
X282375317Y-89779285D01*
X282476333Y-89610926D01*
X282510004Y-89509911D01*
X282510004Y-89375224D01*
X282442661Y-89240537D01*
X282375317Y-89173193D01*
X282240630Y-89105850D01*
X282173287Y-89105850D01*
X282004928Y-88802804D02*
X281533524Y-88331399D01*
X281129462Y-89341552D01*
X281129462Y-87927338D02*
X281062119Y-87859995D01*
X280961104Y-87826323D01*
X280893760Y-87826323D01*
X280792745Y-87859995D01*
X280624386Y-87961010D01*
X280456027Y-88129369D01*
X280355012Y-88297727D01*
X280321340Y-88398743D01*
X280321340Y-88466086D01*
X280355012Y-88567101D01*
X280422356Y-88634445D01*
X280523371Y-88668117D01*
X280590714Y-88668117D01*
X280691730Y-88634445D01*
X280860088Y-88533430D01*
X281028447Y-88365071D01*
X281129462Y-88196712D01*
X281163134Y-88095697D01*
X281163134Y-88028353D01*
X281129462Y-87927338D01*
X279110867Y-70738269D02*
X279110867Y-70805613D01*
X279178211Y-70940300D01*
X279245554Y-71007643D01*
X279380241Y-71074987D01*
X279514928Y-71074987D01*
X279615943Y-71041315D01*
X279784302Y-70940300D01*
X279885317Y-70839285D01*
X279986333Y-70670926D01*
X280020004Y-70569911D01*
X280020004Y-70435224D01*
X279952661Y-70300537D01*
X279885317Y-70233193D01*
X279750630Y-70165850D01*
X279683287Y-70165850D01*
X279144539Y-69492414D02*
X279279226Y-69627101D01*
X279312898Y-69728117D01*
X279312898Y-69795460D01*
X279279226Y-69963819D01*
X279178211Y-70132178D01*
X278908837Y-70401552D01*
X278807821Y-70435224D01*
X278740478Y-70435224D01*
X278639462Y-70401552D01*
X278504775Y-70266865D01*
X278471104Y-70165850D01*
X278471104Y-70098506D01*
X278504775Y-69997491D01*
X278673134Y-69829132D01*
X278774149Y-69795460D01*
X278841493Y-69795460D01*
X278942508Y-69829132D01*
X279077195Y-69963819D01*
X279110867Y-70064834D01*
X279110867Y-70132178D01*
X279077195Y-70233193D01*
X278033371Y-69795460D02*
X277898684Y-69660773D01*
X277865012Y-69559758D01*
X277865012Y-69492414D01*
X277898684Y-69324056D01*
X277999699Y-69155697D01*
X278269073Y-68886323D01*
X278370088Y-68852651D01*
X278437432Y-68852651D01*
X278538447Y-68886323D01*
X278673134Y-69021010D01*
X278706806Y-69122025D01*
X278706806Y-69189369D01*
X278673134Y-69290384D01*
X278504775Y-69458743D01*
X278403760Y-69492414D01*
X278336417Y-69492414D01*
X278235401Y-69458743D01*
X278100714Y-69324056D01*
X278067043Y-69223040D01*
X278067043Y-69155697D01*
X278100714Y-69054682D01*
X262600867Y-127653269D02*
X262600867Y-127720613D01*
X262668211Y-127855300D01*
X262735554Y-127922643D01*
X262870241Y-127989987D01*
X263004928Y-127989987D01*
X263105943Y-127956315D01*
X263274302Y-127855300D01*
X263375317Y-127754285D01*
X263476333Y-127585926D01*
X263510004Y-127484911D01*
X263510004Y-127350224D01*
X263442661Y-127215537D01*
X263375317Y-127148193D01*
X263240630Y-127080850D01*
X263173287Y-127080850D01*
X262634539Y-126407414D02*
X262769226Y-126542101D01*
X262802898Y-126643117D01*
X262802898Y-126710460D01*
X262769226Y-126878819D01*
X262668211Y-127047178D01*
X262398837Y-127316552D01*
X262297821Y-127350224D01*
X262230478Y-127350224D01*
X262129462Y-127316552D01*
X261994775Y-127181865D01*
X261961104Y-127080850D01*
X261961104Y-127013506D01*
X261994775Y-126912491D01*
X262163134Y-126744132D01*
X262264149Y-126710460D01*
X262331493Y-126710460D01*
X262432508Y-126744132D01*
X262567195Y-126878819D01*
X262600867Y-126979834D01*
X262600867Y-127047178D01*
X262567195Y-127148193D01*
X261860088Y-126239056D02*
X261961104Y-126272727D01*
X262028447Y-126272727D01*
X262129462Y-126239056D01*
X262163134Y-126205384D01*
X262196806Y-126104369D01*
X262196806Y-126037025D01*
X262163134Y-125936010D01*
X262028447Y-125801323D01*
X261927432Y-125767651D01*
X261860088Y-125767651D01*
X261759073Y-125801323D01*
X261725401Y-125834995D01*
X261691730Y-125936010D01*
X261691730Y-126003353D01*
X261725401Y-126104369D01*
X261860088Y-126239056D01*
X261893760Y-126340071D01*
X261893760Y-126407414D01*
X261860088Y-126508430D01*
X261725401Y-126643117D01*
X261624386Y-126676788D01*
X261557043Y-126676788D01*
X261456027Y-126643117D01*
X261321340Y-126508430D01*
X261287669Y-126407414D01*
X261287669Y-126340071D01*
X261321340Y-126239056D01*
X261456027Y-126104369D01*
X261557043Y-126070697D01*
X261624386Y-126070697D01*
X261725401Y-126104369D01*
X259725116Y-147702285D02*
X259792460Y-147702285D01*
X259927147Y-147634941D01*
X259994490Y-147567598D01*
X260061834Y-147432911D01*
X260061834Y-147298224D01*
X260028162Y-147197209D01*
X259927147Y-147028850D01*
X259826132Y-146927835D01*
X259657773Y-146826819D01*
X259556758Y-146793148D01*
X259422071Y-146793148D01*
X259287384Y-146860491D01*
X259220040Y-146927835D01*
X259152697Y-147062522D01*
X259152697Y-147129865D01*
X258479261Y-147668613D02*
X258613948Y-147533926D01*
X258714964Y-147500254D01*
X258782307Y-147500254D01*
X258950666Y-147533926D01*
X259119025Y-147634941D01*
X259388399Y-147904316D01*
X259422071Y-148005331D01*
X259422071Y-148072674D01*
X259388399Y-148173690D01*
X259253712Y-148308377D01*
X259152697Y-148342048D01*
X259085353Y-148342048D01*
X258984338Y-148308377D01*
X258815979Y-148140018D01*
X258782307Y-148039003D01*
X258782307Y-147971659D01*
X258815979Y-147870644D01*
X258950666Y-147735957D01*
X259051681Y-147702285D01*
X259119025Y-147702285D01*
X259220040Y-147735957D01*
X257772155Y-148375720D02*
X258108872Y-148039003D01*
X258479261Y-148342048D01*
X258411918Y-148342048D01*
X258310903Y-148375720D01*
X258142544Y-148544079D01*
X258108872Y-148645094D01*
X258108872Y-148712438D01*
X258142544Y-148813453D01*
X258310903Y-148981812D01*
X258411918Y-149015483D01*
X258479261Y-149015483D01*
X258580277Y-148981812D01*
X258748635Y-148813453D01*
X258782307Y-148712438D01*
X258782307Y-148645094D01*
X257670537Y-89697939D02*
X257670537Y-89765283D01*
X257737881Y-89899970D01*
X257805224Y-89967313D01*
X257939911Y-90034657D01*
X258074598Y-90034657D01*
X258175613Y-90000985D01*
X258343972Y-89899970D01*
X258444987Y-89798955D01*
X258546003Y-89630596D01*
X258579674Y-89529581D01*
X258579674Y-89394894D01*
X258512331Y-89260207D01*
X258444987Y-89192863D01*
X258310300Y-89125520D01*
X258242957Y-89125520D01*
X257704209Y-88452084D02*
X257838896Y-88586771D01*
X257872568Y-88687787D01*
X257872568Y-88755130D01*
X257838896Y-88923489D01*
X257737881Y-89091848D01*
X257468507Y-89361222D01*
X257367491Y-89394894D01*
X257300148Y-89394894D01*
X257199132Y-89361222D01*
X257064445Y-89226535D01*
X257030774Y-89125520D01*
X257030774Y-89058176D01*
X257064445Y-88957161D01*
X257232804Y-88788802D01*
X257333819Y-88755130D01*
X257401163Y-88755130D01*
X257502178Y-88788802D01*
X257636865Y-88923489D01*
X257670537Y-89024504D01*
X257670537Y-89091848D01*
X257636865Y-89192863D01*
X256795071Y-88014352D02*
X256323667Y-88485756D01*
X257232804Y-87913336D02*
X256896087Y-88586771D01*
X256458354Y-88149039D01*
X252820537Y-70597939D02*
X252820537Y-70665283D01*
X252887881Y-70799970D01*
X252955224Y-70867313D01*
X253089911Y-70934657D01*
X253224598Y-70934657D01*
X253325613Y-70900985D01*
X253493972Y-70799970D01*
X253594987Y-70698955D01*
X253696003Y-70530596D01*
X253729674Y-70429581D01*
X253729674Y-70294894D01*
X253662331Y-70160207D01*
X253594987Y-70092863D01*
X253460300Y-70025520D01*
X253392957Y-70025520D01*
X252854209Y-69352084D02*
X252988896Y-69486771D01*
X253022568Y-69587787D01*
X253022568Y-69655130D01*
X252988896Y-69823489D01*
X252887881Y-69991848D01*
X252618507Y-70261222D01*
X252517491Y-70294894D01*
X252450148Y-70294894D01*
X252349132Y-70261222D01*
X252214445Y-70126535D01*
X252180774Y-70025520D01*
X252180774Y-69958176D01*
X252214445Y-69857161D01*
X252382804Y-69688802D01*
X252483819Y-69655130D01*
X252551163Y-69655130D01*
X252652178Y-69688802D01*
X252786865Y-69823489D01*
X252820537Y-69924504D01*
X252820537Y-69991848D01*
X252786865Y-70092863D01*
X252551163Y-69049039D02*
X252113430Y-68611306D01*
X252079758Y-69116382D01*
X251978743Y-69015367D01*
X251877728Y-68981695D01*
X251810384Y-68981695D01*
X251709369Y-69015367D01*
X251541010Y-69183726D01*
X251507339Y-69284741D01*
X251507339Y-69352084D01*
X251541010Y-69453100D01*
X251743041Y-69655130D01*
X251844056Y-69688802D01*
X251911400Y-69688802D01*
X250570537Y-108597939D02*
X250570537Y-108665283D01*
X250637881Y-108799970D01*
X250705224Y-108867313D01*
X250839911Y-108934657D01*
X250974598Y-108934657D01*
X251075613Y-108900985D01*
X251243972Y-108799970D01*
X251344987Y-108698955D01*
X251446003Y-108530596D01*
X251479674Y-108429581D01*
X251479674Y-108294894D01*
X251412331Y-108160207D01*
X251344987Y-108092863D01*
X251210300Y-108025520D01*
X251142957Y-108025520D01*
X250604209Y-107352084D02*
X250738896Y-107486771D01*
X250772568Y-107587787D01*
X250772568Y-107655130D01*
X250738896Y-107823489D01*
X250637881Y-107991848D01*
X250368507Y-108261222D01*
X250267491Y-108294894D01*
X250200148Y-108294894D01*
X250099132Y-108261222D01*
X249964445Y-108126535D01*
X249930774Y-108025520D01*
X249930774Y-107958176D01*
X249964445Y-107857161D01*
X250132804Y-107688802D01*
X250233819Y-107655130D01*
X250301163Y-107655130D01*
X250402178Y-107688802D01*
X250536865Y-107823489D01*
X250570537Y-107924504D01*
X250570537Y-107991848D01*
X250536865Y-108092863D01*
X250200148Y-107082710D02*
X250200148Y-107015367D01*
X250166476Y-106914352D01*
X249998117Y-106745993D01*
X249897102Y-106712321D01*
X249829758Y-106712321D01*
X249728743Y-106745993D01*
X249661400Y-106813336D01*
X249594056Y-106948023D01*
X249594056Y-107756145D01*
X249156323Y-107318413D01*
X236350867Y-127653269D02*
X236350867Y-127720613D01*
X236418211Y-127855300D01*
X236485554Y-127922643D01*
X236620241Y-127989987D01*
X236754928Y-127989987D01*
X236855943Y-127956315D01*
X237024302Y-127855300D01*
X237125317Y-127754285D01*
X237226333Y-127585926D01*
X237260004Y-127484911D01*
X237260004Y-127350224D01*
X237192661Y-127215537D01*
X237125317Y-127148193D01*
X236990630Y-127080850D01*
X236923287Y-127080850D01*
X236384539Y-126407414D02*
X236519226Y-126542101D01*
X236552898Y-126643117D01*
X236552898Y-126710460D01*
X236519226Y-126878819D01*
X236418211Y-127047178D01*
X236148837Y-127316552D01*
X236047821Y-127350224D01*
X235980478Y-127350224D01*
X235879462Y-127316552D01*
X235744775Y-127181865D01*
X235711104Y-127080850D01*
X235711104Y-127013506D01*
X235744775Y-126912491D01*
X235913134Y-126744132D01*
X236014149Y-126710460D01*
X236081493Y-126710460D01*
X236182508Y-126744132D01*
X236317195Y-126878819D01*
X236350867Y-126979834D01*
X236350867Y-127047178D01*
X236317195Y-127148193D01*
X234936653Y-126373743D02*
X235340714Y-126777804D01*
X235138684Y-126575773D02*
X235845791Y-125868666D01*
X235812119Y-126037025D01*
X235812119Y-126171712D01*
X235845791Y-126272727D01*
X238954020Y-147511422D02*
X238954020Y-147578766D01*
X239021364Y-147713453D01*
X239088707Y-147780796D01*
X239223394Y-147848140D01*
X239358081Y-147848140D01*
X239459096Y-147814468D01*
X239627455Y-147713453D01*
X239728470Y-147612438D01*
X239829486Y-147444079D01*
X239863157Y-147343064D01*
X239863157Y-147208377D01*
X239795814Y-147073690D01*
X239728470Y-147006346D01*
X239593783Y-146939003D01*
X239526440Y-146939003D01*
X238987692Y-146265567D02*
X239122379Y-146400254D01*
X239156051Y-146501270D01*
X239156051Y-146568613D01*
X239122379Y-146736972D01*
X239021364Y-146905331D01*
X238751989Y-147174705D01*
X238650974Y-147208377D01*
X238583631Y-147208377D01*
X238482615Y-147174705D01*
X238347928Y-147040018D01*
X238314257Y-146939003D01*
X238314257Y-146871659D01*
X238347928Y-146770644D01*
X238516287Y-146602285D01*
X238617302Y-146568613D01*
X238684646Y-146568613D01*
X238785661Y-146602285D01*
X238920348Y-146736972D01*
X238954020Y-146837987D01*
X238954020Y-146905331D01*
X238920348Y-147006346D01*
X238482615Y-145760491D02*
X238415272Y-145693148D01*
X238314257Y-145659476D01*
X238246913Y-145659476D01*
X238145898Y-145693148D01*
X237977539Y-145794163D01*
X237809180Y-145962522D01*
X237708165Y-146130880D01*
X237674493Y-146231896D01*
X237674493Y-146299239D01*
X237708165Y-146400254D01*
X237775509Y-146467598D01*
X237876524Y-146501270D01*
X237943867Y-146501270D01*
X238044883Y-146467598D01*
X238213241Y-146366583D01*
X238381600Y-146198224D01*
X238482615Y-146029865D01*
X238516287Y-145928850D01*
X238516287Y-145861506D01*
X238482615Y-145760491D01*
X233900867Y-89728269D02*
X233900867Y-89795613D01*
X233968211Y-89930300D01*
X234035554Y-89997643D01*
X234170241Y-90064987D01*
X234304928Y-90064987D01*
X234405943Y-90031315D01*
X234574302Y-89930300D01*
X234675317Y-89829285D01*
X234776333Y-89660926D01*
X234810004Y-89559911D01*
X234810004Y-89425224D01*
X234742661Y-89290537D01*
X234675317Y-89223193D01*
X234540630Y-89155850D01*
X234473287Y-89155850D01*
X233900867Y-88448743D02*
X234237585Y-88785460D01*
X233934539Y-89155850D01*
X233934539Y-89088506D01*
X233900867Y-88987491D01*
X233732508Y-88819132D01*
X233631493Y-88785460D01*
X233564149Y-88785460D01*
X233463134Y-88819132D01*
X233294775Y-88987491D01*
X233261104Y-89088506D01*
X233261104Y-89155850D01*
X233294775Y-89256865D01*
X233463134Y-89425224D01*
X233564149Y-89458895D01*
X233631493Y-89458895D01*
X232823371Y-88785460D02*
X232688684Y-88650773D01*
X232655012Y-88549758D01*
X232655012Y-88482414D01*
X232688684Y-88314056D01*
X232789699Y-88145697D01*
X233059073Y-87876323D01*
X233160088Y-87842651D01*
X233227432Y-87842651D01*
X233328447Y-87876323D01*
X233463134Y-88011010D01*
X233496806Y-88112025D01*
X233496806Y-88179369D01*
X233463134Y-88280384D01*
X233294775Y-88448743D01*
X233193760Y-88482414D01*
X233126417Y-88482414D01*
X233025401Y-88448743D01*
X232890714Y-88314056D01*
X232857043Y-88213040D01*
X232857043Y-88145697D01*
X232890714Y-88044682D01*
X224320537Y-70697939D02*
X224320537Y-70765283D01*
X224387881Y-70899970D01*
X224455224Y-70967313D01*
X224589911Y-71034657D01*
X224724598Y-71034657D01*
X224825613Y-71000985D01*
X224993972Y-70899970D01*
X225094987Y-70798955D01*
X225196003Y-70630596D01*
X225229674Y-70529581D01*
X225229674Y-70394894D01*
X225162331Y-70260207D01*
X225094987Y-70192863D01*
X224960300Y-70125520D01*
X224892957Y-70125520D01*
X224320537Y-69418413D02*
X224657255Y-69755130D01*
X224354209Y-70125520D01*
X224354209Y-70058176D01*
X224320537Y-69957161D01*
X224152178Y-69788802D01*
X224051163Y-69755130D01*
X223983819Y-69755130D01*
X223882804Y-69788802D01*
X223714445Y-69957161D01*
X223680774Y-70058176D01*
X223680774Y-70125520D01*
X223714445Y-70226535D01*
X223882804Y-70394894D01*
X223983819Y-70428565D01*
X224051163Y-70428565D01*
X223579758Y-69283726D02*
X223680774Y-69317397D01*
X223748117Y-69317397D01*
X223849132Y-69283726D01*
X223882804Y-69250054D01*
X223916476Y-69149039D01*
X223916476Y-69081695D01*
X223882804Y-68980680D01*
X223748117Y-68845993D01*
X223647102Y-68812321D01*
X223579758Y-68812321D01*
X223478743Y-68845993D01*
X223445071Y-68879665D01*
X223411400Y-68980680D01*
X223411400Y-69048023D01*
X223445071Y-69149039D01*
X223579758Y-69283726D01*
X223613430Y-69384741D01*
X223613430Y-69452084D01*
X223579758Y-69553100D01*
X223445071Y-69687787D01*
X223344056Y-69721458D01*
X223276713Y-69721458D01*
X223175697Y-69687787D01*
X223041010Y-69553100D01*
X223007339Y-69452084D01*
X223007339Y-69384741D01*
X223041010Y-69283726D01*
X223175697Y-69149039D01*
X223276713Y-69115367D01*
X223344056Y-69115367D01*
X223445071Y-69149039D01*
X219720537Y-108647939D02*
X219720537Y-108715283D01*
X219787881Y-108849970D01*
X219855224Y-108917313D01*
X219989911Y-108984657D01*
X220124598Y-108984657D01*
X220225613Y-108950985D01*
X220393972Y-108849970D01*
X220494987Y-108748955D01*
X220596003Y-108580596D01*
X220629674Y-108479581D01*
X220629674Y-108344894D01*
X220562331Y-108210207D01*
X220494987Y-108142863D01*
X220360300Y-108075520D01*
X220292957Y-108075520D01*
X219720537Y-107368413D02*
X220057255Y-107705130D01*
X219754209Y-108075520D01*
X219754209Y-108008176D01*
X219720537Y-107907161D01*
X219552178Y-107738802D01*
X219451163Y-107705130D01*
X219383819Y-107705130D01*
X219282804Y-107738802D01*
X219114445Y-107907161D01*
X219080774Y-108008176D01*
X219080774Y-108075520D01*
X219114445Y-108176535D01*
X219282804Y-108344894D01*
X219383819Y-108378565D01*
X219451163Y-108378565D01*
X219451163Y-107099039D02*
X218979758Y-106627634D01*
X218575697Y-107637787D01*
X214900867Y-89678269D02*
X214900867Y-89745613D01*
X214968211Y-89880300D01*
X215035554Y-89947643D01*
X215170241Y-90014987D01*
X215304928Y-90014987D01*
X215405943Y-89981315D01*
X215574302Y-89880300D01*
X215675317Y-89779285D01*
X215776333Y-89610926D01*
X215810004Y-89509911D01*
X215810004Y-89375224D01*
X215742661Y-89240537D01*
X215675317Y-89173193D01*
X215540630Y-89105850D01*
X215473287Y-89105850D01*
X214900867Y-88398743D02*
X215237585Y-88735460D01*
X214934539Y-89105850D01*
X214934539Y-89038506D01*
X214900867Y-88937491D01*
X214732508Y-88769132D01*
X214631493Y-88735460D01*
X214564149Y-88735460D01*
X214463134Y-88769132D01*
X214294775Y-88937491D01*
X214261104Y-89038506D01*
X214261104Y-89105850D01*
X214294775Y-89206865D01*
X214463134Y-89375224D01*
X214564149Y-89408895D01*
X214631493Y-89408895D01*
X214261104Y-87758979D02*
X214395791Y-87893666D01*
X214429462Y-87994682D01*
X214429462Y-88062025D01*
X214395791Y-88230384D01*
X214294775Y-88398743D01*
X214025401Y-88668117D01*
X213924386Y-88701788D01*
X213857043Y-88701788D01*
X213756027Y-88668117D01*
X213621340Y-88533430D01*
X213587669Y-88432414D01*
X213587669Y-88365071D01*
X213621340Y-88264056D01*
X213789699Y-88095697D01*
X213890714Y-88062025D01*
X213958058Y-88062025D01*
X214059073Y-88095697D01*
X214193760Y-88230384D01*
X214227432Y-88331399D01*
X214227432Y-88398743D01*
X214193760Y-88499758D01*
X205300867Y-70678269D02*
X205300867Y-70745613D01*
X205368211Y-70880300D01*
X205435554Y-70947643D01*
X205570241Y-71014987D01*
X205704928Y-71014987D01*
X205805943Y-70981315D01*
X205974302Y-70880300D01*
X206075317Y-70779285D01*
X206176333Y-70610926D01*
X206210004Y-70509911D01*
X206210004Y-70375224D01*
X206142661Y-70240537D01*
X206075317Y-70173193D01*
X205940630Y-70105850D01*
X205873287Y-70105850D01*
X205300867Y-69398743D02*
X205637585Y-69735460D01*
X205334539Y-70105850D01*
X205334539Y-70038506D01*
X205300867Y-69937491D01*
X205132508Y-69769132D01*
X205031493Y-69735460D01*
X204964149Y-69735460D01*
X204863134Y-69769132D01*
X204694775Y-69937491D01*
X204661104Y-70038506D01*
X204661104Y-70105850D01*
X204694775Y-70206865D01*
X204863134Y-70375224D01*
X204964149Y-70408895D01*
X205031493Y-70408895D01*
X204627432Y-68725308D02*
X204964149Y-69062025D01*
X204661104Y-69432414D01*
X204661104Y-69365071D01*
X204627432Y-69264056D01*
X204459073Y-69095697D01*
X204358058Y-69062025D01*
X204290714Y-69062025D01*
X204189699Y-69095697D01*
X204021340Y-69264056D01*
X203987669Y-69365071D01*
X203987669Y-69432414D01*
X204021340Y-69533430D01*
X204189699Y-69701788D01*
X204290714Y-69735460D01*
X204358058Y-69735460D01*
X212948269Y-147659132D02*
X213015613Y-147659132D01*
X213150300Y-147591788D01*
X213217643Y-147524445D01*
X213284987Y-147389758D01*
X213284987Y-147255071D01*
X213251315Y-147154056D01*
X213150300Y-146985697D01*
X213049285Y-146884682D01*
X212880926Y-146783666D01*
X212779911Y-146749995D01*
X212645224Y-146749995D01*
X212510537Y-146817338D01*
X212443193Y-146884682D01*
X212375850Y-147019369D01*
X212375850Y-147086712D01*
X211668743Y-147659132D02*
X212005460Y-147322414D01*
X212375850Y-147625460D01*
X212308506Y-147625460D01*
X212207491Y-147659132D01*
X212039132Y-147827491D01*
X212005460Y-147928506D01*
X212005460Y-147995850D01*
X212039132Y-148096865D01*
X212207491Y-148265224D01*
X212308506Y-148298895D01*
X212375850Y-148298895D01*
X212476865Y-148265224D01*
X212645224Y-148096865D01*
X212678895Y-147995850D01*
X212678895Y-147928506D01*
X211264682Y-148534598D02*
X211736086Y-149006002D01*
X211163666Y-148096865D02*
X211837101Y-148433582D01*
X211399369Y-148871315D01*
X210270537Y-127697939D02*
X210270537Y-127765283D01*
X210337881Y-127899970D01*
X210405224Y-127967313D01*
X210539911Y-128034657D01*
X210674598Y-128034657D01*
X210775613Y-128000985D01*
X210943972Y-127899970D01*
X211044987Y-127798955D01*
X211146003Y-127630596D01*
X211179674Y-127529581D01*
X211179674Y-127394894D01*
X211112331Y-127260207D01*
X211044987Y-127192863D01*
X210910300Y-127125520D01*
X210842957Y-127125520D01*
X210270537Y-126418413D02*
X210607255Y-126755130D01*
X210304209Y-127125520D01*
X210304209Y-127058176D01*
X210270537Y-126957161D01*
X210102178Y-126788802D01*
X210001163Y-126755130D01*
X209933819Y-126755130D01*
X209832804Y-126788802D01*
X209664445Y-126957161D01*
X209630774Y-127058176D01*
X209630774Y-127125520D01*
X209664445Y-127226535D01*
X209832804Y-127394894D01*
X209933819Y-127428565D01*
X210001163Y-127428565D01*
X210001163Y-126149039D02*
X209563430Y-125711306D01*
X209529758Y-126216382D01*
X209428743Y-126115367D01*
X209327728Y-126081695D01*
X209260384Y-126081695D01*
X209159369Y-126115367D01*
X208991010Y-126283726D01*
X208957339Y-126384741D01*
X208957339Y-126452084D01*
X208991010Y-126553100D01*
X209193041Y-126755130D01*
X209294056Y-126788802D01*
X209361400Y-126788802D01*
X200710867Y-108698269D02*
X200710867Y-108765613D01*
X200778211Y-108900300D01*
X200845554Y-108967643D01*
X200980241Y-109034987D01*
X201114928Y-109034987D01*
X201215943Y-109001315D01*
X201384302Y-108900300D01*
X201485317Y-108799285D01*
X201586333Y-108630926D01*
X201620004Y-108529911D01*
X201620004Y-108395224D01*
X201552661Y-108260537D01*
X201485317Y-108193193D01*
X201350630Y-108125850D01*
X201283287Y-108125850D01*
X200710867Y-107418743D02*
X201047585Y-107755460D01*
X200744539Y-108125850D01*
X200744539Y-108058506D01*
X200710867Y-107957491D01*
X200542508Y-107789132D01*
X200441493Y-107755460D01*
X200374149Y-107755460D01*
X200273134Y-107789132D01*
X200104775Y-107957491D01*
X200071104Y-108058506D01*
X200071104Y-108125850D01*
X200104775Y-108226865D01*
X200273134Y-108395224D01*
X200374149Y-108428895D01*
X200441493Y-108428895D01*
X200340478Y-107183040D02*
X200340478Y-107115697D01*
X200306806Y-107014682D01*
X200138447Y-106846323D01*
X200037432Y-106812651D01*
X199970088Y-106812651D01*
X199869073Y-106846323D01*
X199801730Y-106913666D01*
X199734386Y-107048353D01*
X199734386Y-107856475D01*
X199296653Y-107418743D01*
X195950867Y-89678269D02*
X195950867Y-89745613D01*
X196018211Y-89880300D01*
X196085554Y-89947643D01*
X196220241Y-90014987D01*
X196354928Y-90014987D01*
X196455943Y-89981315D01*
X196624302Y-89880300D01*
X196725317Y-89779285D01*
X196826333Y-89610926D01*
X196860004Y-89509911D01*
X196860004Y-89375224D01*
X196792661Y-89240537D01*
X196725317Y-89173193D01*
X196590630Y-89105850D01*
X196523287Y-89105850D01*
X195950867Y-88398743D02*
X196287585Y-88735460D01*
X195984539Y-89105850D01*
X195984539Y-89038506D01*
X195950867Y-88937491D01*
X195782508Y-88769132D01*
X195681493Y-88735460D01*
X195614149Y-88735460D01*
X195513134Y-88769132D01*
X195344775Y-88937491D01*
X195311104Y-89038506D01*
X195311104Y-89105850D01*
X195344775Y-89206865D01*
X195513134Y-89375224D01*
X195614149Y-89408895D01*
X195681493Y-89408895D01*
X194536653Y-88398743D02*
X194940714Y-88802804D01*
X194738684Y-88600773D02*
X195445791Y-87893666D01*
X195412119Y-88062025D01*
X195412119Y-88196712D01*
X195445791Y-88297727D01*
X186270537Y-70697939D02*
X186270537Y-70765283D01*
X186337881Y-70899970D01*
X186405224Y-70967313D01*
X186539911Y-71034657D01*
X186674598Y-71034657D01*
X186775613Y-71000985D01*
X186943972Y-70899970D01*
X187044987Y-70798955D01*
X187146003Y-70630596D01*
X187179674Y-70529581D01*
X187179674Y-70394894D01*
X187112331Y-70260207D01*
X187044987Y-70192863D01*
X186910300Y-70125520D01*
X186842957Y-70125520D01*
X186270537Y-69418413D02*
X186607255Y-69755130D01*
X186304209Y-70125520D01*
X186304209Y-70058176D01*
X186270537Y-69957161D01*
X186102178Y-69788802D01*
X186001163Y-69755130D01*
X185933819Y-69755130D01*
X185832804Y-69788802D01*
X185664445Y-69957161D01*
X185630774Y-70058176D01*
X185630774Y-70125520D01*
X185664445Y-70226535D01*
X185832804Y-70394894D01*
X185933819Y-70428565D01*
X186001163Y-70428565D01*
X185799132Y-68947008D02*
X185731789Y-68879665D01*
X185630774Y-68845993D01*
X185563430Y-68845993D01*
X185462415Y-68879665D01*
X185294056Y-68980680D01*
X185125697Y-69149039D01*
X185024682Y-69317397D01*
X184991010Y-69418413D01*
X184991010Y-69485756D01*
X185024682Y-69586771D01*
X185092026Y-69654115D01*
X185193041Y-69687787D01*
X185260384Y-69687787D01*
X185361400Y-69654115D01*
X185529758Y-69553100D01*
X185698117Y-69384741D01*
X185799132Y-69216382D01*
X185832804Y-69115367D01*
X185832804Y-69048023D01*
X185799132Y-68947008D01*
X191581422Y-147785979D02*
X191648766Y-147785979D01*
X191783453Y-147718635D01*
X191850796Y-147651292D01*
X191918140Y-147516605D01*
X191918140Y-147381918D01*
X191884468Y-147280903D01*
X191783453Y-147112544D01*
X191682438Y-147011529D01*
X191514079Y-146910513D01*
X191413064Y-146876842D01*
X191278377Y-146876842D01*
X191143690Y-146944185D01*
X191076346Y-147011529D01*
X191009003Y-147146216D01*
X191009003Y-147213559D01*
X190571270Y-147988010D02*
X191042674Y-148459414D01*
X190470254Y-147550277D02*
X191143690Y-147886994D01*
X190705957Y-148324727D01*
X190638613Y-148863475D02*
X190503926Y-148998162D01*
X190402911Y-149031834D01*
X190335567Y-149031834D01*
X190167209Y-148998162D01*
X189998850Y-148897147D01*
X189729476Y-148627773D01*
X189695804Y-148526758D01*
X189695804Y-148459414D01*
X189729476Y-148358399D01*
X189864163Y-148223712D01*
X189965178Y-148190040D01*
X190032522Y-148190040D01*
X190133537Y-148223712D01*
X190301896Y-148392071D01*
X190335567Y-148493086D01*
X190335567Y-148560429D01*
X190301896Y-148661445D01*
X190167209Y-148796132D01*
X190066193Y-148829803D01*
X189998850Y-148829803D01*
X189897835Y-148796132D01*
X191220537Y-127647939D02*
X191220537Y-127715283D01*
X191287881Y-127849970D01*
X191355224Y-127917313D01*
X191489911Y-127984657D01*
X191624598Y-127984657D01*
X191725613Y-127950985D01*
X191893972Y-127849970D01*
X191994987Y-127748955D01*
X192096003Y-127580596D01*
X192129674Y-127479581D01*
X192129674Y-127344894D01*
X192062331Y-127210207D01*
X191994987Y-127142863D01*
X191860300Y-127075520D01*
X191792957Y-127075520D01*
X191018507Y-126637787D02*
X190547102Y-127109191D01*
X191456239Y-126536771D02*
X191119522Y-127210207D01*
X190681789Y-126772474D01*
X190479758Y-126233726D02*
X190580774Y-126267397D01*
X190648117Y-126267397D01*
X190749132Y-126233726D01*
X190782804Y-126200054D01*
X190816476Y-126099039D01*
X190816476Y-126031695D01*
X190782804Y-125930680D01*
X190648117Y-125795993D01*
X190547102Y-125762321D01*
X190479758Y-125762321D01*
X190378743Y-125795993D01*
X190345071Y-125829665D01*
X190311400Y-125930680D01*
X190311400Y-125998023D01*
X190345071Y-126099039D01*
X190479758Y-126233726D01*
X190513430Y-126334741D01*
X190513430Y-126402084D01*
X190479758Y-126503100D01*
X190345071Y-126637787D01*
X190244056Y-126671458D01*
X190176713Y-126671458D01*
X190075697Y-126637787D01*
X189941010Y-126503100D01*
X189907339Y-126402084D01*
X189907339Y-126334741D01*
X189941010Y-126233726D01*
X190075697Y-126099039D01*
X190176713Y-126065367D01*
X190244056Y-126065367D01*
X190345071Y-126099039D01*
X181750867Y-108678269D02*
X181750867Y-108745613D01*
X181818211Y-108880300D01*
X181885554Y-108947643D01*
X182020241Y-109014987D01*
X182154928Y-109014987D01*
X182255943Y-108981315D01*
X182424302Y-108880300D01*
X182525317Y-108779285D01*
X182626333Y-108610926D01*
X182660004Y-108509911D01*
X182660004Y-108375224D01*
X182592661Y-108240537D01*
X182525317Y-108173193D01*
X182390630Y-108105850D01*
X182323287Y-108105850D01*
X181548837Y-107668117D02*
X181077432Y-108139521D01*
X181986569Y-107567101D02*
X181649852Y-108240537D01*
X181212119Y-107802804D01*
X181481493Y-107129369D02*
X181010088Y-106657964D01*
X180606027Y-107668117D01*
X176920537Y-89647939D02*
X176920537Y-89715283D01*
X176987881Y-89849970D01*
X177055224Y-89917313D01*
X177189911Y-89984657D01*
X177324598Y-89984657D01*
X177425613Y-89950985D01*
X177593972Y-89849970D01*
X177694987Y-89748955D01*
X177796003Y-89580596D01*
X177829674Y-89479581D01*
X177829674Y-89344894D01*
X177762331Y-89210207D01*
X177694987Y-89142863D01*
X177560300Y-89075520D01*
X177492957Y-89075520D01*
X176718507Y-88637787D02*
X176247102Y-89109191D01*
X177156239Y-88536771D02*
X176819522Y-89210207D01*
X176381789Y-88772474D01*
X176280774Y-87728649D02*
X176415461Y-87863336D01*
X176449132Y-87964352D01*
X176449132Y-88031695D01*
X176415461Y-88200054D01*
X176314445Y-88368413D01*
X176045071Y-88637787D01*
X175944056Y-88671458D01*
X175876713Y-88671458D01*
X175775697Y-88637787D01*
X175641010Y-88503100D01*
X175607339Y-88402084D01*
X175607339Y-88334741D01*
X175641010Y-88233726D01*
X175809369Y-88065367D01*
X175910384Y-88031695D01*
X175977728Y-88031695D01*
X176078743Y-88065367D01*
X176213430Y-88200054D01*
X176247102Y-88301069D01*
X176247102Y-88368413D01*
X176213430Y-88469428D01*
X167250867Y-70728269D02*
X167250867Y-70795613D01*
X167318211Y-70930300D01*
X167385554Y-70997643D01*
X167520241Y-71064987D01*
X167654928Y-71064987D01*
X167755943Y-71031315D01*
X167924302Y-70930300D01*
X168025317Y-70829285D01*
X168126333Y-70660926D01*
X168160004Y-70559911D01*
X168160004Y-70425224D01*
X168092661Y-70290537D01*
X168025317Y-70223193D01*
X167890630Y-70155850D01*
X167823287Y-70155850D01*
X167048837Y-69718117D02*
X166577432Y-70189521D01*
X167486569Y-69617101D02*
X167149852Y-70290537D01*
X166712119Y-69852804D01*
X166577432Y-68775308D02*
X166914149Y-69112025D01*
X166611104Y-69482414D01*
X166611104Y-69415071D01*
X166577432Y-69314056D01*
X166409073Y-69145697D01*
X166308058Y-69112025D01*
X166240714Y-69112025D01*
X166139699Y-69145697D01*
X165971340Y-69314056D01*
X165937669Y-69415071D01*
X165937669Y-69482414D01*
X165971340Y-69583430D01*
X166139699Y-69751788D01*
X166240714Y-69785460D01*
X166308058Y-69785460D01*
X172150867Y-127678269D02*
X172150867Y-127745613D01*
X172218211Y-127880300D01*
X172285554Y-127947643D01*
X172420241Y-128014987D01*
X172554928Y-128014987D01*
X172655943Y-127981315D01*
X172824302Y-127880300D01*
X172925317Y-127779285D01*
X173026333Y-127610926D01*
X173060004Y-127509911D01*
X173060004Y-127375224D01*
X172992661Y-127240537D01*
X172925317Y-127173193D01*
X172790630Y-127105850D01*
X172723287Y-127105850D01*
X171948837Y-126668117D02*
X171477432Y-127139521D01*
X172386569Y-126567101D02*
X172049852Y-127240537D01*
X171612119Y-126802804D01*
X171275401Y-125994682D02*
X170803997Y-126466086D01*
X171713134Y-125893666D02*
X171376417Y-126567101D01*
X170938684Y-126129369D01*
X162700867Y-108678269D02*
X162700867Y-108745613D01*
X162768211Y-108880300D01*
X162835554Y-108947643D01*
X162970241Y-109014987D01*
X163104928Y-109014987D01*
X163205943Y-108981315D01*
X163374302Y-108880300D01*
X163475317Y-108779285D01*
X163576333Y-108610926D01*
X163610004Y-108509911D01*
X163610004Y-108375224D01*
X163542661Y-108240537D01*
X163475317Y-108173193D01*
X163340630Y-108105850D01*
X163273287Y-108105850D01*
X162498837Y-107668117D02*
X162027432Y-108139521D01*
X162936569Y-107567101D02*
X162599852Y-108240537D01*
X162162119Y-107802804D01*
X162431493Y-107129369D02*
X161993760Y-106691636D01*
X161960088Y-107196712D01*
X161859073Y-107095697D01*
X161758058Y-107062025D01*
X161690714Y-107062025D01*
X161589699Y-107095697D01*
X161421340Y-107264056D01*
X161387669Y-107365071D01*
X161387669Y-107432414D01*
X161421340Y-107533430D01*
X161623371Y-107735460D01*
X161724386Y-107769132D01*
X161791730Y-107769132D01*
X157870537Y-89647939D02*
X157870537Y-89715283D01*
X157937881Y-89849970D01*
X158005224Y-89917313D01*
X158139911Y-89984657D01*
X158274598Y-89984657D01*
X158375613Y-89950985D01*
X158543972Y-89849970D01*
X158644987Y-89748955D01*
X158746003Y-89580596D01*
X158779674Y-89479581D01*
X158779674Y-89344894D01*
X158712331Y-89210207D01*
X158644987Y-89142863D01*
X158510300Y-89075520D01*
X158442957Y-89075520D01*
X157668507Y-88637787D02*
X157197102Y-89109191D01*
X158106239Y-88536771D02*
X157769522Y-89210207D01*
X157331789Y-88772474D01*
X157500148Y-88132710D02*
X157500148Y-88065367D01*
X157466476Y-87964352D01*
X157298117Y-87795993D01*
X157197102Y-87762321D01*
X157129758Y-87762321D01*
X157028743Y-87795993D01*
X156961400Y-87863336D01*
X156894056Y-87998023D01*
X156894056Y-88806145D01*
X156456323Y-88368413D01*
X148300867Y-70728269D02*
X148300867Y-70795613D01*
X148368211Y-70930300D01*
X148435554Y-70997643D01*
X148570241Y-71064987D01*
X148704928Y-71064987D01*
X148805943Y-71031315D01*
X148974302Y-70930300D01*
X149075317Y-70829285D01*
X149176333Y-70660926D01*
X149210004Y-70559911D01*
X149210004Y-70425224D01*
X149142661Y-70290537D01*
X149075317Y-70223193D01*
X148940630Y-70155850D01*
X148873287Y-70155850D01*
X148098837Y-69718117D02*
X147627432Y-70189521D01*
X148536569Y-69617101D02*
X148199852Y-70290537D01*
X147762119Y-69852804D01*
X146886653Y-69448743D02*
X147290714Y-69852804D01*
X147088684Y-69650773D02*
X147795791Y-68943666D01*
X147762119Y-69112025D01*
X147762119Y-69246712D01*
X147795791Y-69347727D01*
X138542714Y-147175116D02*
X138542714Y-147242460D01*
X138610058Y-147377147D01*
X138677401Y-147444490D01*
X138812088Y-147511834D01*
X138946775Y-147511834D01*
X139047790Y-147478162D01*
X139216149Y-147377147D01*
X139317164Y-147276132D01*
X139418180Y-147107773D01*
X139451851Y-147006758D01*
X139451851Y-146872071D01*
X139384508Y-146737384D01*
X139317164Y-146670040D01*
X139182477Y-146602697D01*
X139115134Y-146602697D01*
X138340683Y-146164964D02*
X137869279Y-146636368D01*
X138778416Y-146063948D02*
X138441699Y-146737384D01*
X138003966Y-146299651D01*
X138071309Y-145424185D02*
X138003966Y-145356842D01*
X137902951Y-145323170D01*
X137835607Y-145323170D01*
X137734592Y-145356842D01*
X137566233Y-145457857D01*
X137397874Y-145626216D01*
X137296859Y-145794574D01*
X137263187Y-145895590D01*
X137263187Y-145962933D01*
X137296859Y-146063948D01*
X137364203Y-146131292D01*
X137465218Y-146164964D01*
X137532561Y-146164964D01*
X137633577Y-146131292D01*
X137801935Y-146030277D01*
X137970294Y-145861918D01*
X138071309Y-145693559D01*
X138104981Y-145592544D01*
X138104981Y-145525200D01*
X138071309Y-145424185D01*
X153150867Y-127678269D02*
X153150867Y-127745613D01*
X153218211Y-127880300D01*
X153285554Y-127947643D01*
X153420241Y-128014987D01*
X153554928Y-128014987D01*
X153655943Y-127981315D01*
X153824302Y-127880300D01*
X153925317Y-127779285D01*
X154026333Y-127610926D01*
X154060004Y-127509911D01*
X154060004Y-127375224D01*
X153992661Y-127240537D01*
X153925317Y-127173193D01*
X153790630Y-127105850D01*
X153723287Y-127105850D01*
X153554928Y-126802804D02*
X153117195Y-126365071D01*
X153083524Y-126870147D01*
X152982508Y-126769132D01*
X152881493Y-126735460D01*
X152814149Y-126735460D01*
X152713134Y-126769132D01*
X152544775Y-126937491D01*
X152511104Y-127038506D01*
X152511104Y-127105850D01*
X152544775Y-127206865D01*
X152746806Y-127408895D01*
X152847821Y-127442567D01*
X152915165Y-127442567D01*
X152073371Y-126735460D02*
X151938684Y-126600773D01*
X151905012Y-126499758D01*
X151905012Y-126432414D01*
X151938684Y-126264056D01*
X152039699Y-126095697D01*
X152309073Y-125826323D01*
X152410088Y-125792651D01*
X152477432Y-125792651D01*
X152578447Y-125826323D01*
X152713134Y-125961010D01*
X152746806Y-126062025D01*
X152746806Y-126129369D01*
X152713134Y-126230384D01*
X152544775Y-126398743D01*
X152443760Y-126432414D01*
X152376417Y-126432414D01*
X152275401Y-126398743D01*
X152140714Y-126264056D01*
X152107043Y-126163040D01*
X152107043Y-126095697D01*
X152140714Y-125994682D01*
X143750867Y-108678269D02*
X143750867Y-108745613D01*
X143818211Y-108880300D01*
X143885554Y-108947643D01*
X144020241Y-109014987D01*
X144154928Y-109014987D01*
X144255943Y-108981315D01*
X144424302Y-108880300D01*
X144525317Y-108779285D01*
X144626333Y-108610926D01*
X144660004Y-108509911D01*
X144660004Y-108375224D01*
X144592661Y-108240537D01*
X144525317Y-108173193D01*
X144390630Y-108105850D01*
X144323287Y-108105850D01*
X144154928Y-107802804D02*
X143717195Y-107365071D01*
X143683524Y-107870147D01*
X143582508Y-107769132D01*
X143481493Y-107735460D01*
X143414149Y-107735460D01*
X143313134Y-107769132D01*
X143144775Y-107937491D01*
X143111104Y-108038506D01*
X143111104Y-108105850D01*
X143144775Y-108206865D01*
X143346806Y-108408895D01*
X143447821Y-108442567D01*
X143515165Y-108442567D01*
X143010088Y-107264056D02*
X143111104Y-107297727D01*
X143178447Y-107297727D01*
X143279462Y-107264056D01*
X143313134Y-107230384D01*
X143346806Y-107129369D01*
X143346806Y-107062025D01*
X143313134Y-106961010D01*
X143178447Y-106826323D01*
X143077432Y-106792651D01*
X143010088Y-106792651D01*
X142909073Y-106826323D01*
X142875401Y-106859995D01*
X142841730Y-106961010D01*
X142841730Y-107028353D01*
X142875401Y-107129369D01*
X143010088Y-107264056D01*
X143043760Y-107365071D01*
X143043760Y-107432414D01*
X143010088Y-107533430D01*
X142875401Y-107668117D01*
X142774386Y-107701788D01*
X142707043Y-107701788D01*
X142606027Y-107668117D01*
X142471340Y-107533430D01*
X142437669Y-107432414D01*
X142437669Y-107365071D01*
X142471340Y-107264056D01*
X142606027Y-107129369D01*
X142707043Y-107095697D01*
X142774386Y-107095697D01*
X142875401Y-107129369D01*
X138900867Y-89678269D02*
X138900867Y-89745613D01*
X138968211Y-89880300D01*
X139035554Y-89947643D01*
X139170241Y-90014987D01*
X139304928Y-90014987D01*
X139405943Y-89981315D01*
X139574302Y-89880300D01*
X139675317Y-89779285D01*
X139776333Y-89610926D01*
X139810004Y-89509911D01*
X139810004Y-89375224D01*
X139742661Y-89240537D01*
X139675317Y-89173193D01*
X139540630Y-89105850D01*
X139473287Y-89105850D01*
X139304928Y-88802804D02*
X138867195Y-88365071D01*
X138833524Y-88870147D01*
X138732508Y-88769132D01*
X138631493Y-88735460D01*
X138564149Y-88735460D01*
X138463134Y-88769132D01*
X138294775Y-88937491D01*
X138261104Y-89038506D01*
X138261104Y-89105850D01*
X138294775Y-89206865D01*
X138496806Y-89408895D01*
X138597821Y-89442567D01*
X138665165Y-89442567D01*
X138631493Y-88129369D02*
X138160088Y-87657964D01*
X137756027Y-88668117D01*
X129300867Y-70678269D02*
X129300867Y-70745613D01*
X129368211Y-70880300D01*
X129435554Y-70947643D01*
X129570241Y-71014987D01*
X129704928Y-71014987D01*
X129805943Y-70981315D01*
X129974302Y-70880300D01*
X130075317Y-70779285D01*
X130176333Y-70610926D01*
X130210004Y-70509911D01*
X130210004Y-70375224D01*
X130142661Y-70240537D01*
X130075317Y-70173193D01*
X129940630Y-70105850D01*
X129873287Y-70105850D01*
X129704928Y-69802804D02*
X129267195Y-69365071D01*
X129233524Y-69870147D01*
X129132508Y-69769132D01*
X129031493Y-69735460D01*
X128964149Y-69735460D01*
X128863134Y-69769132D01*
X128694775Y-69937491D01*
X128661104Y-70038506D01*
X128661104Y-70105850D01*
X128694775Y-70206865D01*
X128896806Y-70408895D01*
X128997821Y-70442567D01*
X129065165Y-70442567D01*
X128661104Y-68758979D02*
X128795791Y-68893666D01*
X128829462Y-68994682D01*
X128829462Y-69062025D01*
X128795791Y-69230384D01*
X128694775Y-69398743D01*
X128425401Y-69668117D01*
X128324386Y-69701788D01*
X128257043Y-69701788D01*
X128156027Y-69668117D01*
X128021340Y-69533430D01*
X127987669Y-69432414D01*
X127987669Y-69365071D01*
X128021340Y-69264056D01*
X128189699Y-69095697D01*
X128290714Y-69062025D01*
X128358058Y-69062025D01*
X128459073Y-69095697D01*
X128593760Y-69230384D01*
X128627432Y-69331399D01*
X128627432Y-69398743D01*
X128593760Y-69499758D01*
X134150867Y-127678269D02*
X134150867Y-127745613D01*
X134218211Y-127880300D01*
X134285554Y-127947643D01*
X134420241Y-128014987D01*
X134554928Y-128014987D01*
X134655943Y-127981315D01*
X134824302Y-127880300D01*
X134925317Y-127779285D01*
X135026333Y-127610926D01*
X135060004Y-127509911D01*
X135060004Y-127375224D01*
X134992661Y-127240537D01*
X134925317Y-127173193D01*
X134790630Y-127105850D01*
X134723287Y-127105850D01*
X134554928Y-126802804D02*
X134117195Y-126365071D01*
X134083524Y-126870147D01*
X133982508Y-126769132D01*
X133881493Y-126735460D01*
X133814149Y-126735460D01*
X133713134Y-126769132D01*
X133544775Y-126937491D01*
X133511104Y-127038506D01*
X133511104Y-127105850D01*
X133544775Y-127206865D01*
X133746806Y-127408895D01*
X133847821Y-127442567D01*
X133915165Y-127442567D01*
X133477432Y-125725308D02*
X133814149Y-126062025D01*
X133511104Y-126432414D01*
X133511104Y-126365071D01*
X133477432Y-126264056D01*
X133309073Y-126095697D01*
X133208058Y-126062025D01*
X133140714Y-126062025D01*
X133039699Y-126095697D01*
X132871340Y-126264056D01*
X132837669Y-126365071D01*
X132837669Y-126432414D01*
X132871340Y-126533430D01*
X133039699Y-126701788D01*
X133140714Y-126735460D01*
X133208058Y-126735460D01*
X124700867Y-108678269D02*
X124700867Y-108745613D01*
X124768211Y-108880300D01*
X124835554Y-108947643D01*
X124970241Y-109014987D01*
X125104928Y-109014987D01*
X125205943Y-108981315D01*
X125374302Y-108880300D01*
X125475317Y-108779285D01*
X125576333Y-108610926D01*
X125610004Y-108509911D01*
X125610004Y-108375224D01*
X125542661Y-108240537D01*
X125475317Y-108173193D01*
X125340630Y-108105850D01*
X125273287Y-108105850D01*
X125104928Y-107802804D02*
X124667195Y-107365071D01*
X124633524Y-107870147D01*
X124532508Y-107769132D01*
X124431493Y-107735460D01*
X124364149Y-107735460D01*
X124263134Y-107769132D01*
X124094775Y-107937491D01*
X124061104Y-108038506D01*
X124061104Y-108105850D01*
X124094775Y-108206865D01*
X124296806Y-108408895D01*
X124397821Y-108442567D01*
X124465165Y-108442567D01*
X123825401Y-106994682D02*
X123353997Y-107466086D01*
X124263134Y-106893666D02*
X123926417Y-107567101D01*
X123488684Y-107129369D01*
X119900867Y-89678269D02*
X119900867Y-89745613D01*
X119968211Y-89880300D01*
X120035554Y-89947643D01*
X120170241Y-90014987D01*
X120304928Y-90014987D01*
X120405943Y-89981315D01*
X120574302Y-89880300D01*
X120675317Y-89779285D01*
X120776333Y-89610926D01*
X120810004Y-89509911D01*
X120810004Y-89375224D01*
X120742661Y-89240537D01*
X120675317Y-89173193D01*
X120540630Y-89105850D01*
X120473287Y-89105850D01*
X120304928Y-88802804D02*
X119867195Y-88365071D01*
X119833524Y-88870147D01*
X119732508Y-88769132D01*
X119631493Y-88735460D01*
X119564149Y-88735460D01*
X119463134Y-88769132D01*
X119294775Y-88937491D01*
X119261104Y-89038506D01*
X119261104Y-89105850D01*
X119294775Y-89206865D01*
X119496806Y-89408895D01*
X119597821Y-89442567D01*
X119665165Y-89442567D01*
X119631493Y-88129369D02*
X119193760Y-87691636D01*
X119160088Y-88196712D01*
X119059073Y-88095697D01*
X118958058Y-88062025D01*
X118890714Y-88062025D01*
X118789699Y-88095697D01*
X118621340Y-88264056D01*
X118587669Y-88365071D01*
X118587669Y-88432414D01*
X118621340Y-88533430D01*
X118823371Y-88735460D01*
X118924386Y-88769132D01*
X118991730Y-88769132D01*
X110320537Y-70697939D02*
X110320537Y-70765283D01*
X110387881Y-70899970D01*
X110455224Y-70967313D01*
X110589911Y-71034657D01*
X110724598Y-71034657D01*
X110825613Y-71000985D01*
X110993972Y-70899970D01*
X111094987Y-70798955D01*
X111196003Y-70630596D01*
X111229674Y-70529581D01*
X111229674Y-70394894D01*
X111162331Y-70260207D01*
X111094987Y-70192863D01*
X110960300Y-70125520D01*
X110892957Y-70125520D01*
X110724598Y-69822474D02*
X110286865Y-69384741D01*
X110253194Y-69889817D01*
X110152178Y-69788802D01*
X110051163Y-69755130D01*
X109983819Y-69755130D01*
X109882804Y-69788802D01*
X109714445Y-69957161D01*
X109680774Y-70058176D01*
X109680774Y-70125520D01*
X109714445Y-70226535D01*
X109916476Y-70428565D01*
X110017491Y-70462237D01*
X110084835Y-70462237D01*
X109950148Y-69182710D02*
X109950148Y-69115367D01*
X109916476Y-69014352D01*
X109748117Y-68845993D01*
X109647102Y-68812321D01*
X109579758Y-68812321D01*
X109478743Y-68845993D01*
X109411400Y-68913336D01*
X109344056Y-69048023D01*
X109344056Y-69856145D01*
X108906323Y-69418413D01*
X119785116Y-147622285D02*
X119852460Y-147622285D01*
X119987147Y-147554941D01*
X120054490Y-147487598D01*
X120121834Y-147352911D01*
X120121834Y-147218224D01*
X120088162Y-147117209D01*
X119987147Y-146948850D01*
X119886132Y-146847835D01*
X119717773Y-146746819D01*
X119616758Y-146713148D01*
X119482071Y-146713148D01*
X119347384Y-146780491D01*
X119280040Y-146847835D01*
X119212697Y-146982522D01*
X119212697Y-147049865D01*
X118909651Y-147218224D02*
X118471918Y-147655957D01*
X118976994Y-147689628D01*
X118875979Y-147790644D01*
X118842307Y-147891659D01*
X118842307Y-147959003D01*
X118875979Y-148060018D01*
X119044338Y-148228377D01*
X119145353Y-148262048D01*
X119212697Y-148262048D01*
X119313712Y-148228377D01*
X119515742Y-148026346D01*
X119549414Y-147925331D01*
X119549414Y-147857987D01*
X118505590Y-149036499D02*
X118909651Y-148632438D01*
X118707620Y-148834468D02*
X118000513Y-148127361D01*
X118168872Y-148161033D01*
X118303559Y-148161033D01*
X118404574Y-148127361D01*
X115150867Y-127678269D02*
X115150867Y-127745613D01*
X115218211Y-127880300D01*
X115285554Y-127947643D01*
X115420241Y-128014987D01*
X115554928Y-128014987D01*
X115655943Y-127981315D01*
X115824302Y-127880300D01*
X115925317Y-127779285D01*
X116026333Y-127610926D01*
X116060004Y-127509911D01*
X116060004Y-127375224D01*
X115992661Y-127240537D01*
X115925317Y-127173193D01*
X115790630Y-127105850D01*
X115723287Y-127105850D01*
X115554928Y-126802804D02*
X115117195Y-126365071D01*
X115083524Y-126870147D01*
X114982508Y-126769132D01*
X114881493Y-126735460D01*
X114814149Y-126735460D01*
X114713134Y-126769132D01*
X114544775Y-126937491D01*
X114511104Y-127038506D01*
X114511104Y-127105850D01*
X114544775Y-127206865D01*
X114746806Y-127408895D01*
X114847821Y-127442567D01*
X114915165Y-127442567D01*
X114679462Y-125927338D02*
X114612119Y-125859995D01*
X114511104Y-125826323D01*
X114443760Y-125826323D01*
X114342745Y-125859995D01*
X114174386Y-125961010D01*
X114006027Y-126129369D01*
X113905012Y-126297727D01*
X113871340Y-126398743D01*
X113871340Y-126466086D01*
X113905012Y-126567101D01*
X113972356Y-126634445D01*
X114073371Y-126668117D01*
X114140714Y-126668117D01*
X114241730Y-126634445D01*
X114410088Y-126533430D01*
X114578447Y-126365071D01*
X114679462Y-126196712D01*
X114713134Y-126095697D01*
X114713134Y-126028353D01*
X114679462Y-125927338D01*
X105700867Y-108678269D02*
X105700867Y-108745613D01*
X105768211Y-108880300D01*
X105835554Y-108947643D01*
X105970241Y-109014987D01*
X106104928Y-109014987D01*
X106205943Y-108981315D01*
X106374302Y-108880300D01*
X106475317Y-108779285D01*
X106576333Y-108610926D01*
X106610004Y-108509911D01*
X106610004Y-108375224D01*
X106542661Y-108240537D01*
X106475317Y-108173193D01*
X106340630Y-108105850D01*
X106273287Y-108105850D01*
X106003913Y-107836475D02*
X106003913Y-107769132D01*
X105970241Y-107668117D01*
X105801882Y-107499758D01*
X105700867Y-107466086D01*
X105633524Y-107466086D01*
X105532508Y-107499758D01*
X105465165Y-107567101D01*
X105397821Y-107701788D01*
X105397821Y-108509911D01*
X104960088Y-108072178D01*
X104623371Y-107735460D02*
X104488684Y-107600773D01*
X104455012Y-107499758D01*
X104455012Y-107432414D01*
X104488684Y-107264056D01*
X104589699Y-107095697D01*
X104859073Y-106826323D01*
X104960088Y-106792651D01*
X105027432Y-106792651D01*
X105128447Y-106826323D01*
X105263134Y-106961010D01*
X105296806Y-107062025D01*
X105296806Y-107129369D01*
X105263134Y-107230384D01*
X105094775Y-107398743D01*
X104993760Y-107432414D01*
X104926417Y-107432414D01*
X104825401Y-107398743D01*
X104690714Y-107264056D01*
X104657043Y-107163040D01*
X104657043Y-107095697D01*
X104690714Y-106994682D01*
X100920537Y-89697939D02*
X100920537Y-89765283D01*
X100987881Y-89899970D01*
X101055224Y-89967313D01*
X101189911Y-90034657D01*
X101324598Y-90034657D01*
X101425613Y-90000985D01*
X101593972Y-89899970D01*
X101694987Y-89798955D01*
X101796003Y-89630596D01*
X101829674Y-89529581D01*
X101829674Y-89394894D01*
X101762331Y-89260207D01*
X101694987Y-89192863D01*
X101560300Y-89125520D01*
X101492957Y-89125520D01*
X101223583Y-88856145D02*
X101223583Y-88788802D01*
X101189911Y-88687787D01*
X101021552Y-88519428D01*
X100920537Y-88485756D01*
X100853194Y-88485756D01*
X100752178Y-88519428D01*
X100684835Y-88586771D01*
X100617491Y-88721458D01*
X100617491Y-89529581D01*
X100179758Y-89091848D01*
X100179758Y-88283726D02*
X100280774Y-88317397D01*
X100348117Y-88317397D01*
X100449132Y-88283726D01*
X100482804Y-88250054D01*
X100516476Y-88149039D01*
X100516476Y-88081695D01*
X100482804Y-87980680D01*
X100348117Y-87845993D01*
X100247102Y-87812321D01*
X100179758Y-87812321D01*
X100078743Y-87845993D01*
X100045071Y-87879665D01*
X100011400Y-87980680D01*
X100011400Y-88048023D01*
X100045071Y-88149039D01*
X100179758Y-88283726D01*
X100213430Y-88384741D01*
X100213430Y-88452084D01*
X100179758Y-88553100D01*
X100045071Y-88687787D01*
X99944056Y-88721458D01*
X99876713Y-88721458D01*
X99775697Y-88687787D01*
X99641010Y-88553100D01*
X99607339Y-88452084D01*
X99607339Y-88384741D01*
X99641010Y-88283726D01*
X99775697Y-88149039D01*
X99876713Y-88115367D01*
X99944056Y-88115367D01*
X100045071Y-88149039D01*
X91320537Y-70647939D02*
X91320537Y-70715283D01*
X91387881Y-70849970D01*
X91455224Y-70917313D01*
X91589911Y-70984657D01*
X91724598Y-70984657D01*
X91825613Y-70950985D01*
X91993972Y-70849970D01*
X92094987Y-70748955D01*
X92196003Y-70580596D01*
X92229674Y-70479581D01*
X92229674Y-70344894D01*
X92162331Y-70210207D01*
X92094987Y-70142863D01*
X91960300Y-70075520D01*
X91892957Y-70075520D01*
X91623583Y-69806145D02*
X91623583Y-69738802D01*
X91589911Y-69637787D01*
X91421552Y-69469428D01*
X91320537Y-69435756D01*
X91253194Y-69435756D01*
X91152178Y-69469428D01*
X91084835Y-69536771D01*
X91017491Y-69671458D01*
X91017491Y-70479581D01*
X90579758Y-70041848D01*
X91051163Y-69099039D02*
X90579758Y-68627634D01*
X90175697Y-69637787D01*
X96200867Y-127678269D02*
X96200867Y-127745613D01*
X96268211Y-127880300D01*
X96335554Y-127947643D01*
X96470241Y-128014987D01*
X96604928Y-128014987D01*
X96705943Y-127981315D01*
X96874302Y-127880300D01*
X96975317Y-127779285D01*
X97076333Y-127610926D01*
X97110004Y-127509911D01*
X97110004Y-127375224D01*
X97042661Y-127240537D01*
X96975317Y-127173193D01*
X96840630Y-127105850D01*
X96773287Y-127105850D01*
X96503913Y-126836475D02*
X96503913Y-126769132D01*
X96470241Y-126668117D01*
X96301882Y-126499758D01*
X96200867Y-126466086D01*
X96133524Y-126466086D01*
X96032508Y-126499758D01*
X95965165Y-126567101D01*
X95897821Y-126701788D01*
X95897821Y-127509911D01*
X95460088Y-127072178D01*
X95561104Y-125758979D02*
X95695791Y-125893666D01*
X95729462Y-125994682D01*
X95729462Y-126062025D01*
X95695791Y-126230384D01*
X95594775Y-126398743D01*
X95325401Y-126668117D01*
X95224386Y-126701788D01*
X95157043Y-126701788D01*
X95056027Y-126668117D01*
X94921340Y-126533430D01*
X94887669Y-126432414D01*
X94887669Y-126365071D01*
X94921340Y-126264056D01*
X95089699Y-126095697D01*
X95190714Y-126062025D01*
X95258058Y-126062025D01*
X95359073Y-126095697D01*
X95493760Y-126230384D01*
X95527432Y-126331399D01*
X95527432Y-126398743D01*
X95493760Y-126499758D01*
X86720537Y-108647939D02*
X86720537Y-108715283D01*
X86787881Y-108849970D01*
X86855224Y-108917313D01*
X86989911Y-108984657D01*
X87124598Y-108984657D01*
X87225613Y-108950985D01*
X87393972Y-108849970D01*
X87494987Y-108748955D01*
X87596003Y-108580596D01*
X87629674Y-108479581D01*
X87629674Y-108344894D01*
X87562331Y-108210207D01*
X87494987Y-108142863D01*
X87360300Y-108075520D01*
X87292957Y-108075520D01*
X87023583Y-107806145D02*
X87023583Y-107738802D01*
X86989911Y-107637787D01*
X86821552Y-107469428D01*
X86720537Y-107435756D01*
X86653194Y-107435756D01*
X86552178Y-107469428D01*
X86484835Y-107536771D01*
X86417491Y-107671458D01*
X86417491Y-108479581D01*
X85979758Y-108041848D01*
X86047102Y-106694978D02*
X86383819Y-107031695D01*
X86080774Y-107402084D01*
X86080774Y-107334741D01*
X86047102Y-107233726D01*
X85878743Y-107065367D01*
X85777728Y-107031695D01*
X85710384Y-107031695D01*
X85609369Y-107065367D01*
X85441010Y-107233726D01*
X85407339Y-107334741D01*
X85407339Y-107402084D01*
X85441010Y-107503100D01*
X85609369Y-107671458D01*
X85710384Y-107705130D01*
X85777728Y-107705130D01*
X81920537Y-89697939D02*
X81920537Y-89765283D01*
X81987881Y-89899970D01*
X82055224Y-89967313D01*
X82189911Y-90034657D01*
X82324598Y-90034657D01*
X82425613Y-90000985D01*
X82593972Y-89899970D01*
X82694987Y-89798955D01*
X82796003Y-89630596D01*
X82829674Y-89529581D01*
X82829674Y-89394894D01*
X82762331Y-89260207D01*
X82694987Y-89192863D01*
X82560300Y-89125520D01*
X82492957Y-89125520D01*
X82223583Y-88856145D02*
X82223583Y-88788802D01*
X82189911Y-88687787D01*
X82021552Y-88519428D01*
X81920537Y-88485756D01*
X81853194Y-88485756D01*
X81752178Y-88519428D01*
X81684835Y-88586771D01*
X81617491Y-88721458D01*
X81617491Y-89529581D01*
X81179758Y-89091848D01*
X81651163Y-88149039D02*
X81213430Y-87711306D01*
X81179758Y-88216382D01*
X81078743Y-88115367D01*
X80977728Y-88081695D01*
X80910384Y-88081695D01*
X80809369Y-88115367D01*
X80641010Y-88283726D01*
X80607339Y-88384741D01*
X80607339Y-88452084D01*
X80641010Y-88553100D01*
X80843041Y-88755130D01*
X80944056Y-88788802D01*
X81011400Y-88788802D01*
X72320537Y-70697939D02*
X72320537Y-70765283D01*
X72387881Y-70899970D01*
X72455224Y-70967313D01*
X72589911Y-71034657D01*
X72724598Y-71034657D01*
X72825613Y-71000985D01*
X72993972Y-70899970D01*
X73094987Y-70798955D01*
X73196003Y-70630596D01*
X73229674Y-70529581D01*
X73229674Y-70394894D01*
X73162331Y-70260207D01*
X73094987Y-70192863D01*
X72960300Y-70125520D01*
X72892957Y-70125520D01*
X72623583Y-69856145D02*
X72623583Y-69788802D01*
X72589911Y-69687787D01*
X72421552Y-69519428D01*
X72320537Y-69485756D01*
X72253194Y-69485756D01*
X72152178Y-69519428D01*
X72084835Y-69586771D01*
X72017491Y-69721458D01*
X72017491Y-70529581D01*
X71579758Y-70091848D01*
X71950148Y-69182710D02*
X71950148Y-69115367D01*
X71916476Y-69014352D01*
X71748117Y-68845993D01*
X71647102Y-68812321D01*
X71579758Y-68812321D01*
X71478743Y-68845993D01*
X71411400Y-68913336D01*
X71344056Y-69048023D01*
X71344056Y-69856145D01*
X70906323Y-69418413D01*
X77150867Y-127728269D02*
X77150867Y-127795613D01*
X77218211Y-127930300D01*
X77285554Y-127997643D01*
X77420241Y-128064987D01*
X77554928Y-128064987D01*
X77655943Y-128031315D01*
X77824302Y-127930300D01*
X77925317Y-127829285D01*
X78026333Y-127660926D01*
X78060004Y-127559911D01*
X78060004Y-127425224D01*
X77992661Y-127290537D01*
X77925317Y-127223193D01*
X77790630Y-127155850D01*
X77723287Y-127155850D01*
X77453913Y-126886475D02*
X77453913Y-126819132D01*
X77420241Y-126718117D01*
X77251882Y-126549758D01*
X77150867Y-126516086D01*
X77083524Y-126516086D01*
X76982508Y-126549758D01*
X76915165Y-126617101D01*
X76847821Y-126751788D01*
X76847821Y-127559911D01*
X76410088Y-127122178D01*
X75736653Y-126448743D02*
X76140714Y-126852804D01*
X75938684Y-126650773D02*
X76645791Y-125943666D01*
X76612119Y-126112025D01*
X76612119Y-126246712D01*
X76645791Y-126347727D01*
X67700867Y-108678269D02*
X67700867Y-108745613D01*
X67768211Y-108880300D01*
X67835554Y-108947643D01*
X67970241Y-109014987D01*
X68104928Y-109014987D01*
X68205943Y-108981315D01*
X68374302Y-108880300D01*
X68475317Y-108779285D01*
X68576333Y-108610926D01*
X68610004Y-108509911D01*
X68610004Y-108375224D01*
X68542661Y-108240537D01*
X68475317Y-108173193D01*
X68340630Y-108105850D01*
X68273287Y-108105850D01*
X68003913Y-107836475D02*
X68003913Y-107769132D01*
X67970241Y-107668117D01*
X67801882Y-107499758D01*
X67700867Y-107466086D01*
X67633524Y-107466086D01*
X67532508Y-107499758D01*
X67465165Y-107567101D01*
X67397821Y-107701788D01*
X67397821Y-108509911D01*
X66960088Y-108072178D01*
X67229462Y-106927338D02*
X67162119Y-106859995D01*
X67061104Y-106826323D01*
X66993760Y-106826323D01*
X66892745Y-106859995D01*
X66724386Y-106961010D01*
X66556027Y-107129369D01*
X66455012Y-107297727D01*
X66421340Y-107398743D01*
X66421340Y-107466086D01*
X66455012Y-107567101D01*
X66522356Y-107634445D01*
X66623371Y-107668117D01*
X66690714Y-107668117D01*
X66791730Y-107634445D01*
X66960088Y-107533430D01*
X67128447Y-107365071D01*
X67229462Y-107196712D01*
X67263134Y-107095697D01*
X67263134Y-107028353D01*
X67229462Y-106927338D01*
X62920537Y-89697939D02*
X62920537Y-89765283D01*
X62987881Y-89899970D01*
X63055224Y-89967313D01*
X63189911Y-90034657D01*
X63324598Y-90034657D01*
X63425613Y-90000985D01*
X63593972Y-89899970D01*
X63694987Y-89798955D01*
X63796003Y-89630596D01*
X63829674Y-89529581D01*
X63829674Y-89394894D01*
X63762331Y-89260207D01*
X63694987Y-89192863D01*
X63560300Y-89125520D01*
X63492957Y-89125520D01*
X62179758Y-89091848D02*
X62583819Y-89495909D01*
X62381789Y-89293878D02*
X63088896Y-88586771D01*
X63055224Y-88755130D01*
X63055224Y-88889817D01*
X63088896Y-88990833D01*
X61843041Y-88755130D02*
X61708354Y-88620443D01*
X61674682Y-88519428D01*
X61674682Y-88452084D01*
X61708354Y-88283726D01*
X61809369Y-88115367D01*
X62078743Y-87845993D01*
X62179758Y-87812321D01*
X62247102Y-87812321D01*
X62348117Y-87845993D01*
X62482804Y-87980680D01*
X62516476Y-88081695D01*
X62516476Y-88149039D01*
X62482804Y-88250054D01*
X62314445Y-88418413D01*
X62213430Y-88452084D01*
X62146087Y-88452084D01*
X62045071Y-88418413D01*
X61910384Y-88283726D01*
X61876713Y-88182710D01*
X61876713Y-88115367D01*
X61910384Y-88014352D01*
X53350867Y-70678269D02*
X53350867Y-70745613D01*
X53418211Y-70880300D01*
X53485554Y-70947643D01*
X53620241Y-71014987D01*
X53754928Y-71014987D01*
X53855943Y-70981315D01*
X54024302Y-70880300D01*
X54125317Y-70779285D01*
X54226333Y-70610926D01*
X54260004Y-70509911D01*
X54260004Y-70375224D01*
X54192661Y-70240537D01*
X54125317Y-70173193D01*
X53990630Y-70105850D01*
X53923287Y-70105850D01*
X52610088Y-70072178D02*
X53014149Y-70476239D01*
X52812119Y-70274208D02*
X53519226Y-69567101D01*
X53485554Y-69735460D01*
X53485554Y-69870147D01*
X53519226Y-69971163D01*
X52610088Y-69264056D02*
X52711104Y-69297727D01*
X52778447Y-69297727D01*
X52879462Y-69264056D01*
X52913134Y-69230384D01*
X52946806Y-69129369D01*
X52946806Y-69062025D01*
X52913134Y-68961010D01*
X52778447Y-68826323D01*
X52677432Y-68792651D01*
X52610088Y-68792651D01*
X52509073Y-68826323D01*
X52475401Y-68859995D01*
X52441730Y-68961010D01*
X52441730Y-69028353D01*
X52475401Y-69129369D01*
X52610088Y-69264056D01*
X52643760Y-69365071D01*
X52643760Y-69432414D01*
X52610088Y-69533430D01*
X52475401Y-69668117D01*
X52374386Y-69701788D01*
X52307043Y-69701788D01*
X52206027Y-69668117D01*
X52071340Y-69533430D01*
X52037669Y-69432414D01*
X52037669Y-69365071D01*
X52071340Y-69264056D01*
X52206027Y-69129369D01*
X52307043Y-69095697D01*
X52374386Y-69095697D01*
X52475401Y-69129369D01*
X43534020Y-146661422D02*
X43534020Y-146728766D01*
X43601364Y-146863453D01*
X43668707Y-146930796D01*
X43803394Y-146998140D01*
X43938081Y-146998140D01*
X44039096Y-146964468D01*
X44207455Y-146863453D01*
X44308470Y-146762438D01*
X44409486Y-146594079D01*
X44443157Y-146493064D01*
X44443157Y-146358377D01*
X44375814Y-146223690D01*
X44308470Y-146156346D01*
X44173783Y-146089003D01*
X44106440Y-146089003D01*
X42793241Y-146055331D02*
X43197302Y-146459392D01*
X42995272Y-146257361D02*
X43702379Y-145550254D01*
X43668707Y-145718613D01*
X43668707Y-145853300D01*
X43702379Y-145954316D01*
X43264646Y-145112522D02*
X42793241Y-144641117D01*
X42389180Y-145651270D01*
X58200867Y-127678269D02*
X58200867Y-127745613D01*
X58268211Y-127880300D01*
X58335554Y-127947643D01*
X58470241Y-128014987D01*
X58604928Y-128014987D01*
X58705943Y-127981315D01*
X58874302Y-127880300D01*
X58975317Y-127779285D01*
X59076333Y-127610926D01*
X59110004Y-127509911D01*
X59110004Y-127375224D01*
X59042661Y-127240537D01*
X58975317Y-127173193D01*
X58840630Y-127105850D01*
X58773287Y-127105850D01*
X57460088Y-127072178D02*
X57864149Y-127476239D01*
X57662119Y-127274208D02*
X58369226Y-126567101D01*
X58335554Y-126735460D01*
X58335554Y-126870147D01*
X58369226Y-126971163D01*
X57561104Y-125758979D02*
X57695791Y-125893666D01*
X57729462Y-125994682D01*
X57729462Y-126062025D01*
X57695791Y-126230384D01*
X57594775Y-126398743D01*
X57325401Y-126668117D01*
X57224386Y-126701788D01*
X57157043Y-126701788D01*
X57056027Y-126668117D01*
X56921340Y-126533430D01*
X56887669Y-126432414D01*
X56887669Y-126365071D01*
X56921340Y-126264056D01*
X57089699Y-126095697D01*
X57190714Y-126062025D01*
X57258058Y-126062025D01*
X57359073Y-126095697D01*
X57493760Y-126230384D01*
X57527432Y-126331399D01*
X57527432Y-126398743D01*
X57493760Y-126499758D01*
X48670537Y-108678269D02*
X48670537Y-108745613D01*
X48737881Y-108880300D01*
X48805224Y-108947643D01*
X48939911Y-109014987D01*
X49074598Y-109014987D01*
X49175613Y-108981315D01*
X49343972Y-108880300D01*
X49444987Y-108779285D01*
X49546003Y-108610926D01*
X49579674Y-108509911D01*
X49579674Y-108375224D01*
X49512331Y-108240537D01*
X49444987Y-108173193D01*
X49310300Y-108105850D01*
X49242957Y-108105850D01*
X47929758Y-108072178D02*
X48333819Y-108476239D01*
X48131789Y-108274208D02*
X48838896Y-107567101D01*
X48805224Y-107735460D01*
X48805224Y-107870147D01*
X48838896Y-107971163D01*
X47997102Y-106725308D02*
X48333819Y-107062025D01*
X48030774Y-107432414D01*
X48030774Y-107365071D01*
X47997102Y-107264056D01*
X47828743Y-107095697D01*
X47727728Y-107062025D01*
X47660384Y-107062025D01*
X47559369Y-107095697D01*
X47391010Y-107264056D01*
X47357339Y-107365071D01*
X47357339Y-107432414D01*
X47391010Y-107533430D01*
X47559369Y-107701788D01*
X47660384Y-107735460D01*
X47727728Y-107735460D01*
X43900867Y-89728269D02*
X43900867Y-89795613D01*
X43968211Y-89930300D01*
X44035554Y-89997643D01*
X44170241Y-90064987D01*
X44304928Y-90064987D01*
X44405943Y-90031315D01*
X44574302Y-89930300D01*
X44675317Y-89829285D01*
X44776333Y-89660926D01*
X44810004Y-89559911D01*
X44810004Y-89425224D01*
X44742661Y-89290537D01*
X44675317Y-89223193D01*
X44540630Y-89155850D01*
X44473287Y-89155850D01*
X43160088Y-89122178D02*
X43564149Y-89526239D01*
X43362119Y-89324208D02*
X44069226Y-88617101D01*
X44035554Y-88785460D01*
X44035554Y-88920147D01*
X44069226Y-89021163D01*
X43025401Y-88044682D02*
X42553997Y-88516086D01*
X43463134Y-87943666D02*
X43126417Y-88617101D01*
X42688684Y-88179369D01*
X34400867Y-70678269D02*
X34400867Y-70745613D01*
X34468211Y-70880300D01*
X34535554Y-70947643D01*
X34670241Y-71014987D01*
X34804928Y-71014987D01*
X34905943Y-70981315D01*
X35074302Y-70880300D01*
X35175317Y-70779285D01*
X35276333Y-70610926D01*
X35310004Y-70509911D01*
X35310004Y-70375224D01*
X35242661Y-70240537D01*
X35175317Y-70173193D01*
X35040630Y-70105850D01*
X34973287Y-70105850D01*
X33660088Y-70072178D02*
X34064149Y-70476239D01*
X33862119Y-70274208D02*
X34569226Y-69567101D01*
X34535554Y-69735460D01*
X34535554Y-69870147D01*
X34569226Y-69971163D01*
X34131493Y-69129369D02*
X33693760Y-68691636D01*
X33660088Y-69196712D01*
X33559073Y-69095697D01*
X33458058Y-69062025D01*
X33390714Y-69062025D01*
X33289699Y-69095697D01*
X33121340Y-69264056D01*
X33087669Y-69365071D01*
X33087669Y-69432414D01*
X33121340Y-69533430D01*
X33323371Y-69735460D01*
X33424386Y-69769132D01*
X33491730Y-69769132D01*
X23301422Y-147475979D02*
X23368766Y-147475979D01*
X23503453Y-147408635D01*
X23570796Y-147341292D01*
X23638140Y-147206605D01*
X23638140Y-147071918D01*
X23604468Y-146970903D01*
X23503453Y-146802544D01*
X23402438Y-146701529D01*
X23234079Y-146600513D01*
X23133064Y-146566842D01*
X22998377Y-146566842D01*
X22863690Y-146634185D01*
X22796346Y-146701529D01*
X22729003Y-146836216D01*
X22729003Y-146903559D01*
X22695331Y-148216758D02*
X23099392Y-147812697D01*
X22897361Y-148014727D02*
X22190254Y-147307620D01*
X22358613Y-147341292D01*
X22493300Y-147341292D01*
X22594315Y-147307620D01*
X21786193Y-147846368D02*
X21718850Y-147846368D01*
X21617835Y-147880040D01*
X21449476Y-148048399D01*
X21415804Y-148149414D01*
X21415804Y-148216758D01*
X21449476Y-148317773D01*
X21516819Y-148385116D01*
X21651506Y-148452460D01*
X22459628Y-148452460D01*
X22021896Y-148890193D01*
X39250867Y-127678269D02*
X39250867Y-127745613D01*
X39318211Y-127880300D01*
X39385554Y-127947643D01*
X39520241Y-128014987D01*
X39654928Y-128014987D01*
X39755943Y-127981315D01*
X39924302Y-127880300D01*
X40025317Y-127779285D01*
X40126333Y-127610926D01*
X40160004Y-127509911D01*
X40160004Y-127375224D01*
X40092661Y-127240537D01*
X40025317Y-127173193D01*
X39890630Y-127105850D01*
X39823287Y-127105850D01*
X38510088Y-127072178D02*
X38914149Y-127476239D01*
X38712119Y-127274208D02*
X39419226Y-126567101D01*
X39385554Y-126735460D01*
X39385554Y-126870147D01*
X39419226Y-126971163D01*
X37836653Y-126398743D02*
X38240714Y-126802804D01*
X38038684Y-126600773D02*
X38745791Y-125893666D01*
X38712119Y-126062025D01*
X38712119Y-126196712D01*
X38745791Y-126297727D01*
X29650867Y-108678269D02*
X29650867Y-108745613D01*
X29718211Y-108880300D01*
X29785554Y-108947643D01*
X29920241Y-109014987D01*
X30054928Y-109014987D01*
X30155943Y-108981315D01*
X30324302Y-108880300D01*
X30425317Y-108779285D01*
X30526333Y-108610926D01*
X30560004Y-108509911D01*
X30560004Y-108375224D01*
X30492661Y-108240537D01*
X30425317Y-108173193D01*
X30290630Y-108105850D01*
X30223287Y-108105850D01*
X28910088Y-108072178D02*
X29314149Y-108476239D01*
X29112119Y-108274208D02*
X29819226Y-107567101D01*
X29785554Y-107735460D01*
X29785554Y-107870147D01*
X29819226Y-107971163D01*
X29179462Y-106927338D02*
X29112119Y-106859995D01*
X29011104Y-106826323D01*
X28943760Y-106826323D01*
X28842745Y-106859995D01*
X28674386Y-106961010D01*
X28506027Y-107129369D01*
X28405012Y-107297727D01*
X28371340Y-107398743D01*
X28371340Y-107466086D01*
X28405012Y-107567101D01*
X28472356Y-107634445D01*
X28573371Y-107668117D01*
X28640714Y-107668117D01*
X28741730Y-107634445D01*
X28910088Y-107533430D01*
X29078447Y-107365071D01*
X29179462Y-107196712D01*
X29213134Y-107095697D01*
X29213134Y-107028353D01*
X29179462Y-106927338D01*
X24564149Y-89341552D02*
X24564149Y-89408895D01*
X24631493Y-89543582D01*
X24698836Y-89610926D01*
X24833524Y-89678269D01*
X24968211Y-89678269D01*
X25069226Y-89644598D01*
X25237585Y-89543582D01*
X25338600Y-89442567D01*
X25439615Y-89274208D01*
X25473287Y-89173193D01*
X25473287Y-89038506D01*
X25405943Y-88903819D01*
X25338600Y-88836475D01*
X25203913Y-88769132D01*
X25136569Y-88769132D01*
X24160088Y-89072178D02*
X24025401Y-88937491D01*
X23991730Y-88836475D01*
X23991730Y-88769132D01*
X24025401Y-88600773D01*
X24126417Y-88432414D01*
X24395791Y-88163040D01*
X24496806Y-88129369D01*
X24564149Y-88129369D01*
X24665165Y-88163040D01*
X24799852Y-88297727D01*
X24833524Y-88398743D01*
X24833524Y-88466086D01*
X24799852Y-88567101D01*
X24631493Y-88735460D01*
X24530478Y-88769132D01*
X24463134Y-88769132D01*
X24362119Y-88735460D01*
X24227432Y-88600773D01*
X24193760Y-88499758D01*
X24193760Y-88432414D01*
X24227432Y-88331399D01*
X15064149Y-70341552D02*
X15064149Y-70408895D01*
X15131493Y-70543582D01*
X15198836Y-70610926D01*
X15333524Y-70678269D01*
X15468211Y-70678269D01*
X15569226Y-70644598D01*
X15737585Y-70543582D01*
X15838600Y-70442567D01*
X15939615Y-70274208D01*
X15973287Y-70173193D01*
X15973287Y-70038506D01*
X15905943Y-69903819D01*
X15838600Y-69836475D01*
X15703913Y-69769132D01*
X15636569Y-69769132D01*
X14996806Y-69600773D02*
X15097821Y-69634445D01*
X15165165Y-69634445D01*
X15266180Y-69600773D01*
X15299852Y-69567101D01*
X15333524Y-69466086D01*
X15333524Y-69398743D01*
X15299852Y-69297727D01*
X15165165Y-69163040D01*
X15064149Y-69129369D01*
X14996806Y-69129369D01*
X14895791Y-69163040D01*
X14862119Y-69196712D01*
X14828447Y-69297727D01*
X14828447Y-69365071D01*
X14862119Y-69466086D01*
X14996806Y-69600773D01*
X15030478Y-69701788D01*
X15030478Y-69769132D01*
X14996806Y-69870147D01*
X14862119Y-70004834D01*
X14761104Y-70038506D01*
X14693760Y-70038506D01*
X14592745Y-70004834D01*
X14458058Y-69870147D01*
X14424386Y-69769132D01*
X14424386Y-69701788D01*
X14458058Y-69600773D01*
X14592745Y-69466086D01*
X14693760Y-69432414D01*
X14761104Y-69432414D01*
X14862119Y-69466086D01*
X788399Y-147199003D02*
X855742Y-147199003D01*
X990429Y-147131659D01*
X1057773Y-147064316D01*
X1125116Y-146929628D01*
X1125116Y-146794941D01*
X1091445Y-146693926D01*
X990429Y-146525567D01*
X889414Y-146424552D01*
X721055Y-146323537D01*
X620040Y-146289865D01*
X485353Y-146289865D01*
X350666Y-146357209D01*
X283322Y-146424552D01*
X215979Y-146559239D01*
X215979Y-146626583D01*
X-87066Y-146794941D02*
X-558470Y-147266346D01*
X451681Y-147670407D01*
X8014149Y-127341552D02*
X8014149Y-127408895D01*
X8081493Y-127543582D01*
X8148836Y-127610926D01*
X8283524Y-127678269D01*
X8418211Y-127678269D01*
X8519226Y-127644598D01*
X8687585Y-127543582D01*
X8788600Y-127442567D01*
X8889615Y-127274208D01*
X8923287Y-127173193D01*
X8923287Y-127038506D01*
X8855943Y-126903819D01*
X8788600Y-126836475D01*
X8653913Y-126769132D01*
X8586569Y-126769132D01*
X8047821Y-126095697D02*
X8182508Y-126230384D01*
X8216180Y-126331399D01*
X8216180Y-126398743D01*
X8182508Y-126567101D01*
X8081493Y-126735460D01*
X7812119Y-127004834D01*
X7711104Y-127038506D01*
X7643760Y-127038506D01*
X7542745Y-127004834D01*
X7408058Y-126870147D01*
X7374386Y-126769132D01*
X7374386Y-126701788D01*
X7408058Y-126600773D01*
X7576417Y-126432414D01*
X7677432Y-126398743D01*
X7744775Y-126398743D01*
X7845791Y-126432414D01*
X7980478Y-126567101D01*
X8014149Y-126668117D01*
X8014149Y-126735460D01*
X7980478Y-126836475D01*
X3214149Y-108341552D02*
X3214149Y-108408895D01*
X3281493Y-108543582D01*
X3348836Y-108610926D01*
X3483524Y-108678269D01*
X3618211Y-108678269D01*
X3719226Y-108644598D01*
X3887585Y-108543582D01*
X3988600Y-108442567D01*
X4089615Y-108274208D01*
X4123287Y-108173193D01*
X4123287Y-108038506D01*
X4055943Y-107903819D01*
X3988600Y-107836475D01*
X3853913Y-107769132D01*
X3786569Y-107769132D01*
X3214149Y-107062025D02*
X3550867Y-107398743D01*
X3247821Y-107769132D01*
X3247821Y-107701788D01*
X3214149Y-107600773D01*
X3045791Y-107432414D01*
X2944775Y-107398743D01*
X2877432Y-107398743D01*
X2776417Y-107432414D01*
X2608058Y-107600773D01*
X2574386Y-107701788D01*
X2574386Y-107769132D01*
X2608058Y-107870147D01*
X2776417Y-108038506D01*
X2877432Y-108072178D01*
X2944775Y-108072178D01*
X914149Y-89341552D02*
X914149Y-89408895D01*
X981493Y-89543582D01*
X1048836Y-89610926D01*
X1183524Y-89678269D01*
X1318211Y-89678269D01*
X1419226Y-89644598D01*
X1587585Y-89543582D01*
X1688600Y-89442567D01*
X1789615Y-89274208D01*
X1823287Y-89173193D01*
X1823287Y-89038506D01*
X1755943Y-88903819D01*
X1688600Y-88836475D01*
X1553913Y-88769132D01*
X1486569Y-88769132D01*
X712119Y-88331399D02*
X240714Y-88802804D01*
X1149852Y-88230384D02*
X813134Y-88903819D01*
X375401Y-88466086D01*
X-3935850Y-70341552D02*
X-3935850Y-70408895D01*
X-3868506Y-70543582D01*
X-3801163Y-70610926D01*
X-3666475Y-70678269D01*
X-3531788Y-70678269D01*
X-3430773Y-70644598D01*
X-3262414Y-70543582D01*
X-3161399Y-70442567D01*
X-3060384Y-70274208D01*
X-3026712Y-70173193D01*
X-3026712Y-70038506D01*
X-3094056Y-69903819D01*
X-3161399Y-69836475D01*
X-3296086Y-69769132D01*
X-3363430Y-69769132D01*
X-4676628Y-69735460D02*
X-4272567Y-70139521D01*
X-4474598Y-69937491D02*
X-3767491Y-69230384D01*
X-3801162Y-69398743D01*
X-3801163Y-69533430D01*
X-3767491Y-69634445D01*
X229548333Y-48522380D02*
X229548333Y-49236666D01*
X229595952Y-49379523D01*
X229691190Y-49474761D01*
X229834047Y-49522380D01*
X229929285Y-49522380D01*
X228548333Y-49522380D02*
X229119761Y-49522380D01*
X228834047Y-49522380D02*
X228834047Y-48522380D01*
X228929285Y-48665238D01*
X229024523Y-48760476D01*
X229119761Y-48808095D01*
X268436666Y-56177380D02*
X268770000Y-55701190D01*
X269008095Y-56177380D02*
X269008095Y-55177380D01*
X268627142Y-55177380D01*
X268531904Y-55225000D01*
X268484285Y-55272619D01*
X268436666Y-55367857D01*
X268436666Y-55510714D01*
X268484285Y-55605952D01*
X268531904Y-55653571D01*
X268627142Y-55701190D01*
X269008095Y-55701190D01*
X268008095Y-56177380D02*
X268008095Y-55177380D01*
X267627142Y-55177380D01*
X267531904Y-55225000D01*
X267484285Y-55272619D01*
X267436666Y-55367857D01*
X267436666Y-55510714D01*
X267484285Y-55605952D01*
X267531904Y-55653571D01*
X267627142Y-55701190D01*
X268008095Y-55701190D01*
X266484285Y-56177380D02*
X267055714Y-56177380D01*
X266770000Y-56177380D02*
X266770000Y-55177380D01*
X266865238Y-55320238D01*
X266960476Y-55415476D01*
X267055714Y-55463095D01*
X241583095Y-47977380D02*
X241583095Y-46977380D01*
X241202142Y-46977380D01*
X241106904Y-47025000D01*
X241059285Y-47072619D01*
X241011666Y-47167857D01*
X241011666Y-47310714D01*
X241059285Y-47405952D01*
X241106904Y-47453571D01*
X241202142Y-47501190D01*
X241583095Y-47501190D01*
X240678333Y-46977380D02*
X240011666Y-46977380D01*
X240440238Y-47977380D01*
X196446666Y-55437142D02*
X196494285Y-55484761D01*
X196637142Y-55532380D01*
X196732380Y-55532380D01*
X196875238Y-55484761D01*
X196970476Y-55389523D01*
X197018095Y-55294285D01*
X197065714Y-55103809D01*
X197065714Y-54960952D01*
X197018095Y-54770476D01*
X196970476Y-54675238D01*
X196875238Y-54580000D01*
X196732380Y-54532380D01*
X196637142Y-54532380D01*
X196494285Y-54580000D01*
X196446666Y-54627619D01*
X196065714Y-54627619D02*
X196018095Y-54580000D01*
X195922857Y-54532380D01*
X195684761Y-54532380D01*
X195589523Y-54580000D01*
X195541904Y-54627619D01*
X195494285Y-54722857D01*
X195494285Y-54818095D01*
X195541904Y-54960952D01*
X196113333Y-55532380D01*
X195494285Y-55532380D01*
M02*
